<?xml version="1.0" encoding="utf-8" standalone="no"?>
<!DOCTYPE svg PUBLIC "-//W3C//DTD SVG 1.1//EN"
  "http://www.w3.org/Graphics/SVG/1.1/DTD/svg11.dtd">
<svg height="504pt" version="1.1" viewBox="0 0 1080 504" width="1080pt" xmlns="http://www.w3.org/2000/svg" xmlns:xlink="http://www.w3.org/1999/xlink">
 <metadata>
  <rdf:RDF xmlns:cc="http://creativecommons.org/ns#" xmlns:dc="http://purl.org/dc/elements/1.1/" xmlns:rdf="http://www.w3.org/1999/02/22-rdf-syntax-ns#">
   <cc:Work>
    <dc:type rdf:resource="http://purl.org/dc/dcmitype/StillImage"/>
    <dc:date>2021-11-23T12:27:16.897100</dc:date>
    <dc:format>image/svg+xml</dc:format>
    <dc:creator>
     <cc:Agent>
      <dc:title>Matplotlib v3.4.2, https://matplotlib.org/</dc:title>
     </cc:Agent>
    </dc:creator>
   </cc:Work>
  </rdf:RDF>
 </metadata>
 <defs>
  <style type="text/css">*{stroke-linecap:butt;stroke-linejoin:round;}</style>
 </defs>
 <g id="figure_1">
  <g id="patch_1">
   <path d="M 0 504 
L 1080 504 
L 1080 0 
L 0 0 
z
" style="fill:none;"/>
  </g>
  <g id="axes_1">
   <g id="patch_2">
    <path d="M 135 441 
L 515.454545 441 
L 515.454545 60.48 
L 135 60.48 
z
" style="fill:#ffffff;"/>
   </g>
   <g id="PolyCollection_1">
    <defs>
     <path d="M 325.227273 -152.876462 
L 324.900619 -152.876462 
L 324.756111 -155.411904 
L 324.57195 -157.947346 
L 324.348121 -160.482788 
L 324.089151 -163.01823 
L 323.804495 -165.553672 
L 323.507802 -168.089114 
L 323.214813 -170.624557 
L 322.939966 -173.159999 
L 322.692164 -175.695441 
L 322.470504 -178.230883 
L 322.260982 -180.766325 
L 322.035158 -183.301767 
L 321.751458 -185.837209 
L 321.359292 -188.372651 
L 320.805514 -190.908093 
L 320.042172 -193.443536 
L 319.034049 -195.978978 
L 317.764347 -198.51442 
L 316.237038 -201.049862 
L 314.474876 -203.585304 
L 312.51283 -206.120746 
L 310.387583 -208.656188 
L 308.124635 -211.19163 
L 305.725345 -213.727072 
L 303.156687 -216.262514 
L 300.346553 -218.797957 
L 297.186856 -221.333399 
L 293.545546 -223.868841 
L 289.286981 -226.404283 
L 284.29808 -228.939725 
L 278.515936 -231.475167 
L 271.951382 -234.010609 
L 264.703062 -236.546051 
L 256.957901 -239.081493 
L 248.976439 -241.616936 
L 241.064698 -244.152378 
L 233.537226 -246.68782 
L 226.677995 -249.223262 
L 220.706298 -251.758704 
L 215.753548 -254.294146 
L 211.854343 -256.829588 
L 208.95191 -259.36503 
L 206.915014 -261.900472 
L 205.561392 -264.435915 
L 204.682279 -266.971357 
L 204.063716 -269.506799 
L 203.502689 -272.042241 
L 202.818759 -274.577683 
L 201.863777 -277.113125 
L 200.532597 -279.648567 
L 198.776202 -282.184009 
L 196.615896 -284.719451 
L 194.154337 -287.254894 
L 191.57764 -289.790336 
L 189.143592 -292.325778 
L 187.154185 -294.86122 
L 185.91546 -297.396662 
L 185.69213 -299.932104 
L 186.667035 -302.467546 
L 188.914959 -305.002988 
L 192.396683 -307.53843 
L 196.97366 -310.073872 
L 202.438154 -312.609315 
L 208.550043 -315.144757 
L 215.070843 -317.680199 
L 221.78778 -320.215641 
L 228.52495 -322.751083 
L 235.143029 -325.286525 
L 241.532142 -327.821967 
L 247.603518 -330.357409 
L 253.284417 -332.892851 
L 258.518349 -335.428294 
L 263.269781 -337.963736 
L 267.530554 -340.499178 
L 271.324499 -343.03462 
L 274.707442 -345.570062 
L 277.761427 -348.105504 
L 280.583933 -350.640946 
L 283.274398 -353.176388 
L 285.921063 -355.71183 
L 288.590855 -358.247273 
L 291.323962 -360.782715 
L 294.133355 -363.318157 
L 297.00827 -365.853599 
L 299.919962 -368.389041 
L 302.828011 -370.924483 
L 305.685939 -373.459925 
L 308.445638 -375.995367 
L 311.060702 -378.530809 
L 313.489097 -381.066251 
L 315.695542 -383.601694 
L 317.653718 -386.137136 
L 319.348096 -388.672578 
L 320.775007 -391.20802 
L 321.942598 -393.743462 
L 322.869522 -396.278904 
L 323.582529 -398.814346 
L 324.113371 -401.349788 
L 324.495545 -403.88523 
L 325.227273 -403.88523 
L 325.227273 -403.88523 
L 325.227273 -401.349788 
L 325.227273 -398.814346 
L 325.227273 -396.278904 
L 325.227273 -393.743462 
L 325.227273 -391.20802 
L 325.227273 -388.672578 
L 325.227273 -386.137136 
L 325.227273 -383.601694 
L 325.227273 -381.066251 
L 325.227273 -378.530809 
L 325.227273 -375.995367 
L 325.227273 -373.459925 
L 325.227273 -370.924483 
L 325.227273 -368.389041 
L 325.227273 -365.853599 
L 325.227273 -363.318157 
L 325.227273 -360.782715 
L 325.227273 -358.247273 
L 325.227273 -355.71183 
L 325.227273 -353.176388 
L 325.227273 -350.640946 
L 325.227273 -348.105504 
L 325.227273 -345.570062 
L 325.227273 -343.03462 
L 325.227273 -340.499178 
L 325.227273 -337.963736 
L 325.227273 -335.428294 
L 325.227273 -332.892851 
L 325.227273 -330.357409 
L 325.227273 -327.821967 
L 325.227273 -325.286525 
L 325.227273 -322.751083 
L 325.227273 -320.215641 
L 325.227273 -317.680199 
L 325.227273 -315.144757 
L 325.227273 -312.609315 
L 325.227273 -310.073872 
L 325.227273 -307.53843 
L 325.227273 -305.002988 
L 325.227273 -302.467546 
L 325.227273 -299.932104 
L 325.227273 -297.396662 
L 325.227273 -294.86122 
L 325.227273 -292.325778 
L 325.227273 -289.790336 
L 325.227273 -287.254894 
L 325.227273 -284.719451 
L 325.227273 -282.184009 
L 325.227273 -279.648567 
L 325.227273 -277.113125 
L 325.227273 -274.577683 
L 325.227273 -272.042241 
L 325.227273 -269.506799 
L 325.227273 -266.971357 
L 325.227273 -264.435915 
L 325.227273 -261.900472 
L 325.227273 -259.36503 
L 325.227273 -256.829588 
L 325.227273 -254.294146 
L 325.227273 -251.758704 
L 325.227273 -249.223262 
L 325.227273 -246.68782 
L 325.227273 -244.152378 
L 325.227273 -241.616936 
L 325.227273 -239.081493 
L 325.227273 -236.546051 
L 325.227273 -234.010609 
L 325.227273 -231.475167 
L 325.227273 -228.939725 
L 325.227273 -226.404283 
L 325.227273 -223.868841 
L 325.227273 -221.333399 
L 325.227273 -218.797957 
L 325.227273 -216.262514 
L 325.227273 -213.727072 
L 325.227273 -211.19163 
L 325.227273 -208.656188 
L 325.227273 -206.120746 
L 325.227273 -203.585304 
L 325.227273 -201.049862 
L 325.227273 -198.51442 
L 325.227273 -195.978978 
L 325.227273 -193.443536 
L 325.227273 -190.908093 
L 325.227273 -188.372651 
L 325.227273 -185.837209 
L 325.227273 -183.301767 
L 325.227273 -180.766325 
L 325.227273 -178.230883 
L 325.227273 -175.695441 
L 325.227273 -173.159999 
L 325.227273 -170.624557 
L 325.227273 -168.089114 
L 325.227273 -165.553672 
L 325.227273 -163.01823 
L 325.227273 -160.482788 
L 325.227273 -157.947346 
L 325.227273 -155.411904 
L 325.227273 -152.876462 
z
" id="md587b021e2" style="stroke:#3f3f3f;stroke-width:2;"/>
    </defs>
    <g clip-path="url(#pec9fc9020b)">
     <use style="fill:#3274a1;stroke:#3f3f3f;stroke-width:2;" x="0" xlink:href="#md587b021e2" y="504"/>
    </g>
   </g>
   <g id="PolyCollection_2">
    <defs>
     <path d="M 325.523895 -80.296364 
L 325.227273 -80.296364 
L 325.227273 -83.790579 
L 325.227273 -87.284793 
L 325.227273 -90.779008 
L 325.227273 -94.273223 
L 325.227273 -97.767438 
L 325.227273 -101.261653 
L 325.227273 -104.755868 
L 325.227273 -108.250083 
L 325.227273 -111.744298 
L 325.227273 -115.238512 
L 325.227273 -118.732727 
L 325.227273 -122.226942 
L 325.227273 -125.721157 
L 325.227273 -129.215372 
L 325.227273 -132.709587 
L 325.227273 -136.203802 
L 325.227273 -139.698017 
L 325.227273 -143.192231 
L 325.227273 -146.686446 
L 325.227273 -150.180661 
L 325.227273 -153.674876 
L 325.227273 -157.169091 
L 325.227273 -160.663306 
L 325.227273 -164.157521 
L 325.227273 -167.651736 
L 325.227273 -171.14595 
L 325.227273 -174.640165 
L 325.227273 -178.13438 
L 325.227273 -181.628595 
L 325.227273 -185.12281 
L 325.227273 -188.617025 
L 325.227273 -192.11124 
L 325.227273 -195.605455 
L 325.227273 -199.099669 
L 325.227273 -202.593884 
L 325.227273 -206.088099 
L 325.227273 -209.582314 
L 325.227273 -213.076529 
L 325.227273 -216.570744 
L 325.227273 -220.064959 
L 325.227273 -223.559174 
L 325.227273 -227.053388 
L 325.227273 -230.547603 
L 325.227273 -234.041818 
L 325.227273 -237.536033 
L 325.227273 -241.030248 
L 325.227273 -244.524463 
L 325.227273 -248.018678 
L 325.227273 -251.512893 
L 325.227273 -255.007107 
L 325.227273 -258.501322 
L 325.227273 -261.995537 
L 325.227273 -265.489752 
L 325.227273 -268.983967 
L 325.227273 -272.478182 
L 325.227273 -275.972397 
L 325.227273 -279.466612 
L 325.227273 -282.960826 
L 325.227273 -286.455041 
L 325.227273 -289.949256 
L 325.227273 -293.443471 
L 325.227273 -296.937686 
L 325.227273 -300.431901 
L 325.227273 -303.926116 
L 325.227273 -307.420331 
L 325.227273 -310.914545 
L 325.227273 -314.40876 
L 325.227273 -317.902975 
L 325.227273 -321.39719 
L 325.227273 -324.891405 
L 325.227273 -328.38562 
L 325.227273 -331.879835 
L 325.227273 -335.37405 
L 325.227273 -338.868264 
L 325.227273 -342.362479 
L 325.227273 -345.856694 
L 325.227273 -349.350909 
L 325.227273 -352.845124 
L 325.227273 -356.339339 
L 325.227273 -359.833554 
L 325.227273 -363.327769 
L 325.227273 -366.821983 
L 325.227273 -370.316198 
L 325.227273 -373.810413 
L 325.227273 -377.304628 
L 325.227273 -380.798843 
L 325.227273 -384.293058 
L 325.227273 -387.787273 
L 325.227273 -391.281488 
L 325.227273 -394.775702 
L 325.227273 -398.269917 
L 325.227273 -401.764132 
L 325.227273 -405.258347 
L 325.227273 -408.752562 
L 325.227273 -412.246777 
L 325.227273 -415.740992 
L 325.227273 -419.235207 
L 325.227273 -422.729421 
L 325.227273 -426.223636 
L 325.585512 -426.223636 
L 325.585512 -426.223636 
L 325.811114 -422.729421 
L 326.132527 -419.235207 
L 326.564149 -415.740992 
L 327.109963 -412.246777 
L 327.758795 -408.752562 
L 328.48171 -405.258347 
L 329.233084 -401.764132 
L 329.95636 -398.269917 
L 330.594595 -394.775702 
L 331.104847 -391.281488 
L 331.474146 -387.787273 
L 331.733659 -384.293058 
L 331.966807 -380.798843 
L 332.307232 -377.304628 
L 332.924043 -373.810413 
L 333.994738 -370.316198 
L 335.670142 -366.821983 
L 338.039306 -363.327769 
L 341.104138 -359.833554 
L 344.772442 -356.339339 
L 348.873841 -352.845124 
L 353.196732 -349.350909 
L 357.537952 -345.856694 
L 361.752471 -342.362479 
L 365.789627 -338.868264 
L 369.705528 -335.37405 
L 373.647201 -331.879835 
L 377.811399 -328.38562 
L 382.387935 -324.891405 
L 387.502611 -321.39719 
L 393.176377 -317.902975 
L 399.314205 -314.40876 
L 405.728732 -310.914545 
L 412.192337 -307.420331 
L 418.501069 -303.926116 
L 424.529393 -300.431901 
L 430.258335 -296.937686 
L 435.76928 -293.443471 
L 441.20669 -289.949256 
L 446.720523 -286.455041 
L 452.401559 -282.960826 
L 458.222063 -279.466612 
L 463.993139 -275.972397 
L 469.349893 -272.478182 
L 473.77411 -268.983967 
L 476.658858 -265.489752 
L 477.409091 -261.995537 
L 475.559836 -258.501322 
L 470.884056 -255.007107 
L 463.460729 -251.512893 
L 453.682088 -248.018678 
L 442.195018 -244.524463 
L 429.790277 -241.030248 
L 417.26798 -237.536033 
L 405.313716 -234.041818 
L 394.414633 -230.547603 
L 384.83081 -227.053388 
L 376.619436 -223.559174 
L 369.694341 -220.064959 
L 363.896294 -216.570744 
L 359.051757 -213.076529 
L 355.007138 -209.582314 
L 351.637216 -206.088099 
L 348.83575 -202.593884 
L 346.500356 -199.099669 
L 344.522373 -195.605455 
L 342.78731 -192.11124 
L 341.185274 -188.617025 
L 339.626158 -185.12281 
L 338.052748 -181.628595 
L 336.446496 -178.13438 
L 334.824238 -174.640165 
L 333.227687 -171.14595 
L 331.709717 -167.651736 
L 330.321528 -164.157521 
L 329.103448 -160.663306 
L 328.080313 -157.169091 
L 327.260997 -153.674876 
L 326.640956 -150.180661 
L 326.206457 -146.686446 
L 325.939176 -143.192231 
L 325.819869 -139.698017 
L 325.830098 -136.203802 
L 325.951499 -132.709587 
L 326.163032 -129.215372 
L 326.43761 -125.721157 
L 326.740103 -122.226942 
L 327.028546 -118.732727 
L 327.259203 -115.238512 
L 327.394484 -111.744298 
L 327.411181 -108.250083 
L 327.305961 -104.755868 
L 327.095899 -101.261653 
L 326.813691 -97.767438 
L 326.499218 -94.273223 
L 326.190377 -90.779008 
L 325.915974 -87.284793 
L 325.692367 -83.790579 
L 325.523895 -80.296364 
z
" id="mf10b6c7ea4" style="stroke:#3f3f3f;stroke-width:2;"/>
    </defs>
    <g clip-path="url(#pec9fc9020b)">
     <use style="fill:#e1812c;stroke:#3f3f3f;stroke-width:2;" x="0" xlink:href="#mf10b6c7ea4" y="504"/>
    </g>
   </g>
   <g id="patch_3">
    <path clip-path="url(#pec9fc9020b)" d="M 325.227273 252.135603 
L 325.227273 252.135603 
L 325.227273 252.135603 
L 325.227273 252.135603 
z
" style="fill:#3274a1;stroke:#3f3f3f;stroke-linejoin:miter;"/>
   </g>
   <g id="patch_4">
    <path clip-path="url(#pec9fc9020b)" d="M 325.227273 252.135603 
L 325.227273 252.135603 
L 325.227273 252.135603 
L 325.227273 252.135603 
z
" style="fill:#e1812c;stroke:#3f3f3f;stroke-linejoin:miter;"/>
   </g>
   <g id="matplotlib.axis_1">
    <g id="xtick_1">
     <g id="line2d_1">
      <defs>
       <path d="M 0 0 
L 0 3.5 
" id="mfb24b3c79d" style="stroke:#000000;stroke-width:0.8;"/>
      </defs>
      <g>
       <use style="stroke:#000000;stroke-width:0.8;" x="325.227273" xlink:href="#mfb24b3c79d" y="441"/>
      </g>
     </g>
     <g id="text_1">
      <!-- LookNeg-RegNeg -->
      <g transform="translate(245.183523 462.315625)scale(0.2 -0.2)">
       <defs>
        <path d="M 469 0 
L 469 4581 
L 1075 4581 
L 1075 541 
L 3331 541 
L 3331 0 
L 469 0 
z
" id="ArialMT-4c" transform="scale(0.015625)"/>
        <path d="M 213 1659 
Q 213 2581 725 3025 
Q 1153 3394 1769 3394 
Q 2453 3394 2887 2945 
Q 3322 2497 3322 1706 
Q 3322 1066 3130 698 
Q 2938 331 2570 128 
Q 2203 -75 1769 -75 
Q 1072 -75 642 372 
Q 213 819 213 1659 
z
M 791 1659 
Q 791 1022 1069 705 
Q 1347 388 1769 388 
Q 2188 388 2466 706 
Q 2744 1025 2744 1678 
Q 2744 2294 2464 2611 
Q 2184 2928 1769 2928 
Q 1347 2928 1069 2612 
Q 791 2297 791 1659 
z
" id="ArialMT-6f" transform="scale(0.015625)"/>
        <path d="M 425 0 
L 425 4581 
L 988 4581 
L 988 1969 
L 2319 3319 
L 3047 3319 
L 1778 2088 
L 3175 0 
L 2481 0 
L 1384 1697 
L 988 1316 
L 988 0 
L 425 0 
z
" id="ArialMT-6b" transform="scale(0.015625)"/>
        <path d="M 488 0 
L 488 4581 
L 1109 4581 
L 3516 984 
L 3516 4581 
L 4097 4581 
L 4097 0 
L 3475 0 
L 1069 3600 
L 1069 0 
L 488 0 
z
" id="ArialMT-4e" transform="scale(0.015625)"/>
        <path d="M 2694 1069 
L 3275 997 
Q 3138 488 2766 206 
Q 2394 -75 1816 -75 
Q 1088 -75 661 373 
Q 234 822 234 1631 
Q 234 2469 665 2931 
Q 1097 3394 1784 3394 
Q 2450 3394 2872 2941 
Q 3294 2488 3294 1666 
Q 3294 1616 3291 1516 
L 816 1516 
Q 847 969 1125 678 
Q 1403 388 1819 388 
Q 2128 388 2347 550 
Q 2566 713 2694 1069 
z
M 847 1978 
L 2700 1978 
Q 2663 2397 2488 2606 
Q 2219 2931 1791 2931 
Q 1403 2931 1139 2672 
Q 875 2413 847 1978 
z
" id="ArialMT-65" transform="scale(0.015625)"/>
        <path d="M 319 -275 
L 866 -356 
Q 900 -609 1056 -725 
Q 1266 -881 1628 -881 
Q 2019 -881 2231 -725 
Q 2444 -569 2519 -288 
Q 2563 -116 2559 434 
Q 2191 0 1641 0 
Q 956 0 581 494 
Q 206 988 206 1678 
Q 206 2153 378 2554 
Q 550 2956 876 3175 
Q 1203 3394 1644 3394 
Q 2231 3394 2613 2919 
L 2613 3319 
L 3131 3319 
L 3131 450 
Q 3131 -325 2973 -648 
Q 2816 -972 2473 -1159 
Q 2131 -1347 1631 -1347 
Q 1038 -1347 672 -1080 
Q 306 -813 319 -275 
z
M 784 1719 
Q 784 1066 1043 766 
Q 1303 466 1694 466 
Q 2081 466 2343 764 
Q 2606 1063 2606 1700 
Q 2606 2309 2336 2618 
Q 2066 2928 1684 2928 
Q 1309 2928 1046 2623 
Q 784 2319 784 1719 
z
" id="ArialMT-67" transform="scale(0.015625)"/>
        <path d="M 203 1375 
L 203 1941 
L 1931 1941 
L 1931 1375 
L 203 1375 
z
" id="ArialMT-2d" transform="scale(0.015625)"/>
        <path d="M 503 0 
L 503 4581 
L 2534 4581 
Q 3147 4581 3465 4457 
Q 3784 4334 3975 4021 
Q 4166 3709 4166 3331 
Q 4166 2844 3850 2509 
Q 3534 2175 2875 2084 
Q 3116 1969 3241 1856 
Q 3506 1613 3744 1247 
L 4541 0 
L 3778 0 
L 3172 953 
Q 2906 1366 2734 1584 
Q 2563 1803 2427 1890 
Q 2291 1978 2150 2013 
Q 2047 2034 1813 2034 
L 1109 2034 
L 1109 0 
L 503 0 
z
M 1109 2559 
L 2413 2559 
Q 2828 2559 3062 2645 
Q 3297 2731 3419 2920 
Q 3541 3109 3541 3331 
Q 3541 3656 3305 3865 
Q 3069 4075 2559 4075 
L 1109 4075 
L 1109 2559 
z
" id="ArialMT-52" transform="scale(0.015625)"/>
       </defs>
       <use xlink:href="#ArialMT-4c"/>
       <use x="55.615234" xlink:href="#ArialMT-6f"/>
       <use x="111.230469" xlink:href="#ArialMT-6f"/>
       <use x="166.845703" xlink:href="#ArialMT-6b"/>
       <use x="216.845703" xlink:href="#ArialMT-4e"/>
       <use x="289.0625" xlink:href="#ArialMT-65"/>
       <use x="344.677734" xlink:href="#ArialMT-67"/>
       <use x="400.292969" xlink:href="#ArialMT-2d"/>
       <use x="433.59375" xlink:href="#ArialMT-52"/>
       <use x="505.810547" xlink:href="#ArialMT-65"/>
       <use x="561.425781" xlink:href="#ArialMT-67"/>
       <use x="617.041016" xlink:href="#ArialMT-4e"/>
       <use x="689.257812" xlink:href="#ArialMT-65"/>
       <use x="744.873047" xlink:href="#ArialMT-67"/>
      </g>
     </g>
    </g>
   </g>
   <g id="matplotlib.axis_2">
    <g id="ytick_1">
     <g id="line2d_2">
      <defs>
       <path d="M 0 0 
L -3.5 0 
" id="mf6a6401a03" style="stroke:#000000;stroke-width:0.8;"/>
      </defs>
      <g>
       <use style="stroke:#000000;stroke-width:0.8;" x="135" xlink:href="#mf6a6401a03" y="419.60791"/>
      </g>
     </g>
     <g id="text_2">
      <!-- −3 -->
      <g transform="translate(105.196875 426.765723)scale(0.2 -0.2)">
       <defs>
        <path d="M 3381 1997 
L 356 1997 
L 356 2522 
L 3381 2522 
L 3381 1997 
z
" id="ArialMT-2212" transform="scale(0.015625)"/>
        <path d="M 269 1209 
L 831 1284 
Q 928 806 1161 595 
Q 1394 384 1728 384 
Q 2125 384 2398 659 
Q 2672 934 2672 1341 
Q 2672 1728 2419 1979 
Q 2166 2231 1775 2231 
Q 1616 2231 1378 2169 
L 1441 2663 
Q 1497 2656 1531 2656 
Q 1891 2656 2178 2843 
Q 2466 3031 2466 3422 
Q 2466 3731 2256 3934 
Q 2047 4138 1716 4138 
Q 1388 4138 1169 3931 
Q 950 3725 888 3313 
L 325 3413 
Q 428 3978 793 4289 
Q 1159 4600 1703 4600 
Q 2078 4600 2393 4439 
Q 2709 4278 2876 4000 
Q 3044 3722 3044 3409 
Q 3044 3113 2884 2869 
Q 2725 2625 2413 2481 
Q 2819 2388 3044 2092 
Q 3269 1797 3269 1353 
Q 3269 753 2831 336 
Q 2394 -81 1725 -81 
Q 1122 -81 723 278 
Q 325 638 269 1209 
z
" id="ArialMT-33" transform="scale(0.015625)"/>
       </defs>
       <use xlink:href="#ArialMT-2212"/>
       <use x="58.398438" xlink:href="#ArialMT-33"/>
      </g>
     </g>
    </g>
    <g id="ytick_2">
     <g id="line2d_3">
      <g>
       <use style="stroke:#000000;stroke-width:0.8;" x="135" xlink:href="#mf6a6401a03" y="363.783808"/>
      </g>
     </g>
     <g id="text_3">
      <!-- −2 -->
      <g transform="translate(105.196875 370.94162)scale(0.2 -0.2)">
       <defs>
        <path d="M 3222 541 
L 3222 0 
L 194 0 
Q 188 203 259 391 
Q 375 700 629 1000 
Q 884 1300 1366 1694 
Q 2113 2306 2375 2664 
Q 2638 3022 2638 3341 
Q 2638 3675 2398 3904 
Q 2159 4134 1775 4134 
Q 1369 4134 1125 3890 
Q 881 3647 878 3216 
L 300 3275 
Q 359 3922 746 4261 
Q 1134 4600 1788 4600 
Q 2447 4600 2831 4234 
Q 3216 3869 3216 3328 
Q 3216 3053 3103 2787 
Q 2991 2522 2730 2228 
Q 2469 1934 1863 1422 
Q 1356 997 1212 845 
Q 1069 694 975 541 
L 3222 541 
z
" id="ArialMT-32" transform="scale(0.015625)"/>
       </defs>
       <use xlink:href="#ArialMT-2212"/>
       <use x="58.398438" xlink:href="#ArialMT-32"/>
      </g>
     </g>
    </g>
    <g id="ytick_3">
     <g id="line2d_4">
      <g>
       <use style="stroke:#000000;stroke-width:0.8;" x="135" xlink:href="#mf6a6401a03" y="307.959705"/>
      </g>
     </g>
     <g id="text_4">
      <!-- −1 -->
      <g transform="translate(105.196875 315.117518)scale(0.2 -0.2)">
       <defs>
        <path d="M 2384 0 
L 1822 0 
L 1822 3584 
Q 1619 3391 1289 3197 
Q 959 3003 697 2906 
L 697 3450 
Q 1169 3672 1522 3987 
Q 1875 4303 2022 4600 
L 2384 4600 
L 2384 0 
z
" id="ArialMT-31" transform="scale(0.015625)"/>
       </defs>
       <use xlink:href="#ArialMT-2212"/>
       <use x="58.398438" xlink:href="#ArialMT-31"/>
      </g>
     </g>
    </g>
    <g id="ytick_4">
     <g id="line2d_5">
      <g>
       <use style="stroke:#000000;stroke-width:0.8;" x="135" xlink:href="#mf6a6401a03" y="252.135603"/>
      </g>
     </g>
     <g id="text_5">
      <!-- 0 -->
      <g transform="translate(116.878125 259.293415)scale(0.2 -0.2)">
       <defs>
        <path d="M 266 2259 
Q 266 3072 433 3567 
Q 600 4063 929 4331 
Q 1259 4600 1759 4600 
Q 2128 4600 2406 4451 
Q 2684 4303 2865 4023 
Q 3047 3744 3150 3342 
Q 3253 2941 3253 2259 
Q 3253 1453 3087 958 
Q 2922 463 2592 192 
Q 2263 -78 1759 -78 
Q 1097 -78 719 397 
Q 266 969 266 2259 
z
M 844 2259 
Q 844 1131 1108 757 
Q 1372 384 1759 384 
Q 2147 384 2411 759 
Q 2675 1134 2675 2259 
Q 2675 3391 2411 3762 
Q 2147 4134 1753 4134 
Q 1366 4134 1134 3806 
Q 844 3388 844 2259 
z
" id="ArialMT-30" transform="scale(0.015625)"/>
       </defs>
       <use xlink:href="#ArialMT-30"/>
      </g>
     </g>
    </g>
    <g id="ytick_5">
     <g id="line2d_6">
      <g>
       <use style="stroke:#000000;stroke-width:0.8;" x="135" xlink:href="#mf6a6401a03" y="196.3115"/>
      </g>
     </g>
     <g id="text_6">
      <!-- 1 -->
      <g transform="translate(116.878125 203.469313)scale(0.2 -0.2)">
       <use xlink:href="#ArialMT-31"/>
      </g>
     </g>
    </g>
    <g id="ytick_6">
     <g id="line2d_7">
      <g>
       <use style="stroke:#000000;stroke-width:0.8;" x="135" xlink:href="#mf6a6401a03" y="140.487398"/>
      </g>
     </g>
     <g id="text_7">
      <!-- 2 -->
      <g transform="translate(116.878125 147.64521)scale(0.2 -0.2)">
       <use xlink:href="#ArialMT-32"/>
      </g>
     </g>
    </g>
    <g id="ytick_7">
     <g id="line2d_8">
      <g>
       <use style="stroke:#000000;stroke-width:0.8;" x="135" xlink:href="#mf6a6401a03" y="84.663295"/>
      </g>
     </g>
     <g id="text_8">
      <!-- 3 -->
      <g transform="translate(116.878125 91.821108)scale(0.2 -0.2)">
       <use xlink:href="#ArialMT-33"/>
      </g>
     </g>
    </g>
    <g id="text_9">
     <!-- Difference in Ratings -->
     <g transform="translate(95.935156 366.542734)rotate(-90)scale(0.25 -0.25)">
      <defs>
       <path d="M 494 0 
L 494 4581 
L 2072 4581 
Q 2606 4581 2888 4516 
Q 3281 4425 3559 4188 
Q 3922 3881 4101 3404 
Q 4281 2928 4281 2316 
Q 4281 1794 4159 1391 
Q 4038 988 3847 723 
Q 3656 459 3429 307 
Q 3203 156 2883 78 
Q 2563 0 2147 0 
L 494 0 
z
M 1100 541 
L 2078 541 
Q 2531 541 2789 625 
Q 3047 709 3200 863 
Q 3416 1078 3536 1442 
Q 3656 1806 3656 2325 
Q 3656 3044 3420 3430 
Q 3184 3816 2847 3947 
Q 2603 4041 2063 4041 
L 1100 4041 
L 1100 541 
z
" id="ArialMT-44" transform="scale(0.015625)"/>
       <path d="M 425 3934 
L 425 4581 
L 988 4581 
L 988 3934 
L 425 3934 
z
M 425 0 
L 425 3319 
L 988 3319 
L 988 0 
L 425 0 
z
" id="ArialMT-69" transform="scale(0.015625)"/>
       <path d="M 556 0 
L 556 2881 
L 59 2881 
L 59 3319 
L 556 3319 
L 556 3672 
Q 556 4006 616 4169 
Q 697 4388 901 4523 
Q 1106 4659 1475 4659 
Q 1713 4659 2000 4603 
L 1916 4113 
Q 1741 4144 1584 4144 
Q 1328 4144 1222 4034 
Q 1116 3925 1116 3625 
L 1116 3319 
L 1763 3319 
L 1763 2881 
L 1116 2881 
L 1116 0 
L 556 0 
z
" id="ArialMT-66" transform="scale(0.015625)"/>
       <path d="M 416 0 
L 416 3319 
L 922 3319 
L 922 2816 
Q 1116 3169 1280 3281 
Q 1444 3394 1641 3394 
Q 1925 3394 2219 3213 
L 2025 2691 
Q 1819 2813 1613 2813 
Q 1428 2813 1281 2702 
Q 1134 2591 1072 2394 
Q 978 2094 978 1738 
L 978 0 
L 416 0 
z
" id="ArialMT-72" transform="scale(0.015625)"/>
       <path d="M 422 0 
L 422 3319 
L 928 3319 
L 928 2847 
Q 1294 3394 1984 3394 
Q 2284 3394 2536 3286 
Q 2788 3178 2913 3003 
Q 3038 2828 3088 2588 
Q 3119 2431 3119 2041 
L 3119 0 
L 2556 0 
L 2556 2019 
Q 2556 2363 2490 2533 
Q 2425 2703 2258 2804 
Q 2091 2906 1866 2906 
Q 1506 2906 1245 2678 
Q 984 2450 984 1813 
L 984 0 
L 422 0 
z
" id="ArialMT-6e" transform="scale(0.015625)"/>
       <path d="M 2588 1216 
L 3141 1144 
Q 3050 572 2676 248 
Q 2303 -75 1759 -75 
Q 1078 -75 664 370 
Q 250 816 250 1647 
Q 250 2184 428 2587 
Q 606 2991 970 3192 
Q 1334 3394 1763 3394 
Q 2303 3394 2647 3120 
Q 2991 2847 3088 2344 
L 2541 2259 
Q 2463 2594 2264 2762 
Q 2066 2931 1784 2931 
Q 1359 2931 1093 2626 
Q 828 2322 828 1663 
Q 828 994 1084 691 
Q 1341 388 1753 388 
Q 2084 388 2306 591 
Q 2528 794 2588 1216 
z
" id="ArialMT-63" transform="scale(0.015625)"/>
       <path id="ArialMT-20" transform="scale(0.015625)"/>
       <path d="M 2588 409 
Q 2275 144 1986 34 
Q 1697 -75 1366 -75 
Q 819 -75 525 192 
Q 231 459 231 875 
Q 231 1119 342 1320 
Q 453 1522 633 1644 
Q 813 1766 1038 1828 
Q 1203 1872 1538 1913 
Q 2219 1994 2541 2106 
Q 2544 2222 2544 2253 
Q 2544 2597 2384 2738 
Q 2169 2928 1744 2928 
Q 1347 2928 1158 2789 
Q 969 2650 878 2297 
L 328 2372 
Q 403 2725 575 2942 
Q 747 3159 1072 3276 
Q 1397 3394 1825 3394 
Q 2250 3394 2515 3294 
Q 2781 3194 2906 3042 
Q 3031 2891 3081 2659 
Q 3109 2516 3109 2141 
L 3109 1391 
Q 3109 606 3145 398 
Q 3181 191 3288 0 
L 2700 0 
Q 2613 175 2588 409 
z
M 2541 1666 
Q 2234 1541 1622 1453 
Q 1275 1403 1131 1340 
Q 988 1278 909 1158 
Q 831 1038 831 891 
Q 831 666 1001 516 
Q 1172 366 1500 366 
Q 1825 366 2078 508 
Q 2331 650 2450 897 
Q 2541 1088 2541 1459 
L 2541 1666 
z
" id="ArialMT-61" transform="scale(0.015625)"/>
       <path d="M 1650 503 
L 1731 6 
Q 1494 -44 1306 -44 
Q 1000 -44 831 53 
Q 663 150 594 308 
Q 525 466 525 972 
L 525 2881 
L 113 2881 
L 113 3319 
L 525 3319 
L 525 4141 
L 1084 4478 
L 1084 3319 
L 1650 3319 
L 1650 2881 
L 1084 2881 
L 1084 941 
Q 1084 700 1114 631 
Q 1144 563 1211 522 
Q 1278 481 1403 481 
Q 1497 481 1650 503 
z
" id="ArialMT-74" transform="scale(0.015625)"/>
       <path d="M 197 991 
L 753 1078 
Q 800 744 1014 566 
Q 1228 388 1613 388 
Q 2000 388 2187 545 
Q 2375 703 2375 916 
Q 2375 1106 2209 1216 
Q 2094 1291 1634 1406 
Q 1016 1563 777 1677 
Q 538 1791 414 1992 
Q 291 2194 291 2438 
Q 291 2659 392 2848 
Q 494 3038 669 3163 
Q 800 3259 1026 3326 
Q 1253 3394 1513 3394 
Q 1903 3394 2198 3281 
Q 2494 3169 2634 2976 
Q 2775 2784 2828 2463 
L 2278 2388 
Q 2241 2644 2061 2787 
Q 1881 2931 1553 2931 
Q 1166 2931 1000 2803 
Q 834 2675 834 2503 
Q 834 2394 903 2306 
Q 972 2216 1119 2156 
Q 1203 2125 1616 2013 
Q 2213 1853 2448 1751 
Q 2684 1650 2818 1456 
Q 2953 1263 2953 975 
Q 2953 694 2789 445 
Q 2625 197 2315 61 
Q 2006 -75 1616 -75 
Q 969 -75 630 194 
Q 291 463 197 991 
z
" id="ArialMT-73" transform="scale(0.015625)"/>
      </defs>
      <use xlink:href="#ArialMT-44"/>
      <use x="72.216797" xlink:href="#ArialMT-69"/>
      <use x="94.433594" xlink:href="#ArialMT-66"/>
      <use x="120.466797" xlink:href="#ArialMT-66"/>
      <use x="148.25" xlink:href="#ArialMT-65"/>
      <use x="203.865234" xlink:href="#ArialMT-72"/>
      <use x="237.166016" xlink:href="#ArialMT-65"/>
      <use x="292.78125" xlink:href="#ArialMT-6e"/>
      <use x="348.396484" xlink:href="#ArialMT-63"/>
      <use x="398.396484" xlink:href="#ArialMT-65"/>
      <use x="454.011719" xlink:href="#ArialMT-20"/>
      <use x="481.794922" xlink:href="#ArialMT-69"/>
      <use x="504.011719" xlink:href="#ArialMT-6e"/>
      <use x="559.626953" xlink:href="#ArialMT-20"/>
      <use x="587.410156" xlink:href="#ArialMT-52"/>
      <use x="659.626953" xlink:href="#ArialMT-61"/>
      <use x="715.242188" xlink:href="#ArialMT-74"/>
      <use x="743.025391" xlink:href="#ArialMT-69"/>
      <use x="765.242188" xlink:href="#ArialMT-6e"/>
      <use x="820.857422" xlink:href="#ArialMT-67"/>
      <use x="876.472656" xlink:href="#ArialMT-73"/>
     </g>
    </g>
   </g>
   <g id="line2d_9">
    <path clip-path="url(#pec9fc9020b)" d="M 208.098136 242.831585 
L 325.227273 242.831585 
" style="fill:none;stroke:#3f3f3f;stroke-dasharray:6,6;stroke-dashoffset:0;stroke-width:2;"/>
   </g>
   <g id="line2d_10">
    <path clip-path="url(#pec9fc9020b)" d="M 190.504428 211.508061 
L 325.227273 211.508061 
" style="fill:none;stroke:#3f3f3f;stroke-dasharray:12,12;stroke-dashoffset:0;stroke-width:2;"/>
   </g>
   <g id="line2d_11">
    <path clip-path="url(#pec9fc9020b)" d="M 209.716815 189.217187 
L 325.227273 189.217187 
" style="fill:none;stroke:#3f3f3f;stroke-dasharray:6,6;stroke-dashoffset:0;stroke-width:2;"/>
   </g>
   <g id="line2d_12">
    <path clip-path="url(#pec9fc9020b)" d="M 325.227273 252.135603 
L 462.078395 252.135603 
" style="fill:none;stroke:#3f3f3f;stroke-dasharray:6,6;stroke-dashoffset:0;stroke-width:2;"/>
   </g>
   <g id="line2d_13">
    <path clip-path="url(#pec9fc9020b)" d="M 325.227273 233.527568 
L 472.288642 233.527568 
" style="fill:none;stroke:#3f3f3f;stroke-dasharray:12,12;stroke-dashoffset:0;stroke-width:2;"/>
   </g>
   <g id="line2d_14">
    <path clip-path="url(#pec9fc9020b)" d="M 325.227273 203.754714 
L 423.536372 203.754714 
" style="fill:none;stroke:#3f3f3f;stroke-dasharray:6,6;stroke-dashoffset:0;stroke-width:2;"/>
   </g>
   <g id="patch_5">
    <path d="M 135 441 
L 135 60.48 
" style="fill:none;stroke:#000000;stroke-linecap:square;stroke-linejoin:miter;stroke-width:0.8;"/>
   </g>
   <g id="patch_6">
    <path d="M 515.454545 441 
L 515.454545 60.48 
" style="fill:none;stroke:#000000;stroke-linecap:square;stroke-linejoin:miter;stroke-width:0.8;"/>
   </g>
   <g id="patch_7">
    <path d="M 135 441 
L 515.454545 441 
" style="fill:none;stroke:#000000;stroke-linecap:square;stroke-linejoin:miter;stroke-width:0.8;"/>
   </g>
   <g id="patch_8">
    <path d="M 135 60.48 
L 515.454545 60.48 
" style="fill:none;stroke:#000000;stroke-linecap:square;stroke-linejoin:miter;stroke-width:0.8;"/>
   </g>
   <g id="text_10">
    <!-- N=176 -->
    <g transform="translate(280.609304 54.48)scale(0.3 -0.3)">
     <defs>
      <path d="M 3381 2694 
L 356 2694 
L 356 3219 
L 3381 3219 
L 3381 2694 
z
M 3381 1303 
L 356 1303 
L 356 1828 
L 3381 1828 
L 3381 1303 
z
" id="ArialMT-3d" transform="scale(0.015625)"/>
      <path d="M 303 3981 
L 303 4522 
L 3269 4522 
L 3269 4084 
Q 2831 3619 2401 2847 
Q 1972 2075 1738 1259 
Q 1569 684 1522 0 
L 944 0 
Q 953 541 1156 1306 
Q 1359 2072 1739 2783 
Q 2119 3494 2547 3981 
L 303 3981 
z
" id="ArialMT-37" transform="scale(0.015625)"/>
      <path d="M 3184 3459 
L 2625 3416 
Q 2550 3747 2413 3897 
Q 2184 4138 1850 4138 
Q 1581 4138 1378 3988 
Q 1113 3794 959 3422 
Q 806 3050 800 2363 
Q 1003 2672 1297 2822 
Q 1591 2972 1913 2972 
Q 2475 2972 2870 2558 
Q 3266 2144 3266 1488 
Q 3266 1056 3080 686 
Q 2894 316 2569 119 
Q 2244 -78 1831 -78 
Q 1128 -78 684 439 
Q 241 956 241 2144 
Q 241 3472 731 4075 
Q 1159 4600 1884 4600 
Q 2425 4600 2770 4297 
Q 3116 3994 3184 3459 
z
M 888 1484 
Q 888 1194 1011 928 
Q 1134 663 1356 523 
Q 1578 384 1822 384 
Q 2178 384 2434 671 
Q 2691 959 2691 1453 
Q 2691 1928 2437 2201 
Q 2184 2475 1800 2475 
Q 1419 2475 1153 2201 
Q 888 1928 888 1484 
z
" id="ArialMT-36" transform="scale(0.015625)"/>
     </defs>
     <use xlink:href="#ArialMT-4e"/>
     <use x="72.216797" xlink:href="#ArialMT-3d"/>
     <use x="130.615234" xlink:href="#ArialMT-31"/>
     <use x="186.230469" xlink:href="#ArialMT-37"/>
     <use x="241.845703" xlink:href="#ArialMT-36"/>
    </g>
   </g>
   <g id="legend_1">
    <g id="patch_9">
     <path d="M 417.783452 109.515938 
L 507.054545 109.515938 
Q 509.454545 109.515938 509.454545 107.115938 
L 509.454545 68.88 
Q 509.454545 66.48 507.054545 66.48 
L 417.783452 66.48 
Q 415.383452 66.48 415.383452 68.88 
L 415.383452 107.115938 
Q 415.383452 109.515938 417.783452 109.515938 
z
" style="fill:#ffffff;opacity:0.8;stroke:#cccccc;stroke-linejoin:miter;"/>
    </g>
    <g id="patch_10">
     <path d="M 420.183452 82.016719 
L 444.183452 82.016719 
L 444.183452 73.616719 
L 420.183452 73.616719 
z
" style="fill:#3274a1;stroke:#3f3f3f;stroke-linejoin:miter;"/>
    </g>
    <g id="text_11">
     <!-- First -->
     <g transform="translate(453.783452 82.016719)scale(0.15 -0.15)">
      <defs>
       <path d="M 525 0 
L 525 4581 
L 3616 4581 
L 3616 4041 
L 1131 4041 
L 1131 2622 
L 3281 2622 
L 3281 2081 
L 1131 2081 
L 1131 0 
L 525 0 
z
" id="ArialMT-46" transform="scale(0.015625)"/>
      </defs>
      <use xlink:href="#ArialMT-46"/>
      <use x="61.083984" xlink:href="#ArialMT-69"/>
      <use x="83.300781" xlink:href="#ArialMT-72"/>
      <use x="116.601562" xlink:href="#ArialMT-73"/>
      <use x="166.601562" xlink:href="#ArialMT-74"/>
     </g>
    </g>
    <g id="patch_11">
     <path d="M 420.183452 101.734688 
L 444.183452 101.734688 
L 444.183452 93.334688 
L 420.183452 93.334688 
z
" style="fill:#e1812c;stroke:#3f3f3f;stroke-linejoin:miter;"/>
    </g>
    <g id="text_12">
     <!-- Second -->
     <g transform="translate(453.783452 101.734688)scale(0.15 -0.15)">
      <defs>
       <path d="M 288 1472 
L 859 1522 
Q 900 1178 1048 958 
Q 1197 738 1509 602 
Q 1822 466 2213 466 
Q 2559 466 2825 569 
Q 3091 672 3220 851 
Q 3350 1031 3350 1244 
Q 3350 1459 3225 1620 
Q 3100 1781 2813 1891 
Q 2628 1963 1997 2114 
Q 1366 2266 1113 2400 
Q 784 2572 623 2826 
Q 463 3081 463 3397 
Q 463 3744 659 4045 
Q 856 4347 1234 4503 
Q 1613 4659 2075 4659 
Q 2584 4659 2973 4495 
Q 3363 4331 3572 4012 
Q 3781 3694 3797 3291 
L 3216 3247 
Q 3169 3681 2898 3903 
Q 2628 4125 2100 4125 
Q 1550 4125 1298 3923 
Q 1047 3722 1047 3438 
Q 1047 3191 1225 3031 
Q 1400 2872 2139 2705 
Q 2878 2538 3153 2413 
Q 3553 2228 3743 1945 
Q 3934 1663 3934 1294 
Q 3934 928 3725 604 
Q 3516 281 3123 101 
Q 2731 -78 2241 -78 
Q 1619 -78 1198 103 
Q 778 284 539 648 
Q 300 1013 288 1472 
z
" id="ArialMT-53" transform="scale(0.015625)"/>
       <path d="M 2575 0 
L 2575 419 
Q 2259 -75 1647 -75 
Q 1250 -75 917 144 
Q 584 363 401 755 
Q 219 1147 219 1656 
Q 219 2153 384 2558 
Q 550 2963 881 3178 
Q 1213 3394 1622 3394 
Q 1922 3394 2156 3267 
Q 2391 3141 2538 2938 
L 2538 4581 
L 3097 4581 
L 3097 0 
L 2575 0 
z
M 797 1656 
Q 797 1019 1065 703 
Q 1334 388 1700 388 
Q 2069 388 2326 689 
Q 2584 991 2584 1609 
Q 2584 2291 2321 2609 
Q 2059 2928 1675 2928 
Q 1300 2928 1048 2622 
Q 797 2316 797 1656 
z
" id="ArialMT-64" transform="scale(0.015625)"/>
      </defs>
      <use xlink:href="#ArialMT-53"/>
      <use x="66.699219" xlink:href="#ArialMT-65"/>
      <use x="122.314453" xlink:href="#ArialMT-63"/>
      <use x="172.314453" xlink:href="#ArialMT-6f"/>
      <use x="227.929688" xlink:href="#ArialMT-6e"/>
      <use x="283.544922" xlink:href="#ArialMT-64"/>
     </g>
    </g>
   </g>
  </g>
  <g id="axes_2">
   <g id="patch_12">
    <path d="M 591.545455 441 
L 972 441 
L 972 60.48 
L 591.545455 60.48 
z
" style="fill:#ffffff;"/>
   </g>
   <g id="PolyCollection_3">
    <defs>
     <path d="M 781.772727 -181.975978 
L 780.873896 -181.975978 
L 780.481999 -184.224287 
L 779.964032 -186.472596 
L 779.298517 -188.720905 
L 778.467155 -190.969214 
L 777.457202 -193.217523 
L 776.26358 -195.465832 
L 774.890229 -197.714141 
L 773.350231 -199.96245 
L 771.664351 -202.210759 
L 769.857873 -204.459068 
L 767.955894 -206.707377 
L 765.977603 -208.955686 
L 763.93038 -211.203995 
L 761.804721 -213.452304 
L 759.571096 -215.700613 
L 757.179656 -217.948922 
L 754.563373 -220.197231 
L 751.644725 -222.44554 
L 748.345399 -224.693849 
L 744.597922 -226.942158 
L 740.357641 -229.190467 
L 735.613203 -231.438776 
L 730.393754 -233.687085 
L 724.771417 -235.935394 
L 718.858299 -238.183703 
L 712.798141 -240.432012 
L 706.75357 -242.680321 
L 700.890695 -244.92863 
L 695.363191 -247.176939 
L 690.298073 -249.425248 
L 685.785027 -251.673557 
L 681.870486 -253.921866 
L 678.556824 -256.170175 
L 675.80621 -258.418484 
L 673.547984 -260.666793 
L 671.688043 -262.915102 
L 670.118683 -265.163411 
L 668.727661 -267.41172 
L 667.405767 -269.660029 
L 666.052872 -271.908338 
L 664.582951 -274.156647 
L 662.928874 -276.404956 
L 661.047655 -278.653265 
L 658.926334 -280.901574 
L 656.587953 -283.149883 
L 654.096288 -285.398192 
L 651.557537 -287.646501 
L 649.117183 -289.89481 
L 646.950918 -292.143119 
L 645.249705 -294.391428 
L 644.200494 -296.639737 
L 643.965377 -298.888046 
L 644.662714 -301.136355 
L 646.353609 -303.384664 
L 649.036207 -305.632973 
L 652.648609 -307.881282 
L 657.079434 -310.129591 
L 662.183463 -312.3779 
L 667.798963 -314.626209 
L 673.763312 -316.874518 
L 679.924423 -319.122827 
L 686.14688 -321.371136 
L 692.313213 -323.619445 
L 698.321971 -325.867754 
L 704.084754 -328.116063 
L 709.524282 -330.364372 
L 714.574764 -332.612681 
L 719.184775 -334.86099 
L 723.32182 -337.109299 
L 726.977038 -339.357608 
L 730.168325 -341.605917 
L 732.940477 -343.854226 
L 735.3617 -346.102535 
L 737.516736 -348.350844 
L 739.497676 -350.599153 
L 741.394041 -352.847462 
L 743.283835 -355.095771 
L 745.226966 -357.34408 
L 747.261838 -359.592389 
L 749.405188 -361.840698 
L 751.6546 -364.089007 
L 753.992713 -366.337316 
L 756.392025 -368.585625 
L 758.819332 -370.833934 
L 761.239234 -373.082243 
L 763.616527 -375.330552 
L 765.917658 -377.578861 
L 768.111599 -379.82717 
L 770.170536 -382.075479 
L 772.070636 -384.323788 
L 773.792947 -386.572097 
L 775.324352 -388.820406 
L 776.658326 -391.068715 
L 777.795297 -393.317024 
L 778.742434 -395.565333 
L 779.512833 -397.813642 
L 780.124198 -400.061951 
L 780.597206 -402.31026 
L 780.953805 -404.558569 
L 781.772727 -404.558569 
L 781.772727 -404.558569 
L 781.772727 -402.31026 
L 781.772727 -400.061951 
L 781.772727 -397.813642 
L 781.772727 -395.565333 
L 781.772727 -393.317024 
L 781.772727 -391.068715 
L 781.772727 -388.820406 
L 781.772727 -386.572097 
L 781.772727 -384.323788 
L 781.772727 -382.075479 
L 781.772727 -379.82717 
L 781.772727 -377.578861 
L 781.772727 -375.330552 
L 781.772727 -373.082243 
L 781.772727 -370.833934 
L 781.772727 -368.585625 
L 781.772727 -366.337316 
L 781.772727 -364.089007 
L 781.772727 -361.840698 
L 781.772727 -359.592389 
L 781.772727 -357.34408 
L 781.772727 -355.095771 
L 781.772727 -352.847462 
L 781.772727 -350.599153 
L 781.772727 -348.350844 
L 781.772727 -346.102535 
L 781.772727 -343.854226 
L 781.772727 -341.605917 
L 781.772727 -339.357608 
L 781.772727 -337.109299 
L 781.772727 -334.86099 
L 781.772727 -332.612681 
L 781.772727 -330.364372 
L 781.772727 -328.116063 
L 781.772727 -325.867754 
L 781.772727 -323.619445 
L 781.772727 -321.371136 
L 781.772727 -319.122827 
L 781.772727 -316.874518 
L 781.772727 -314.626209 
L 781.772727 -312.3779 
L 781.772727 -310.129591 
L 781.772727 -307.881282 
L 781.772727 -305.632973 
L 781.772727 -303.384664 
L 781.772727 -301.136355 
L 781.772727 -298.888046 
L 781.772727 -296.639737 
L 781.772727 -294.391428 
L 781.772727 -292.143119 
L 781.772727 -289.89481 
L 781.772727 -287.646501 
L 781.772727 -285.398192 
L 781.772727 -283.149883 
L 781.772727 -280.901574 
L 781.772727 -278.653265 
L 781.772727 -276.404956 
L 781.772727 -274.156647 
L 781.772727 -271.908338 
L 781.772727 -269.660029 
L 781.772727 -267.41172 
L 781.772727 -265.163411 
L 781.772727 -262.915102 
L 781.772727 -260.666793 
L 781.772727 -258.418484 
L 781.772727 -256.170175 
L 781.772727 -253.921866 
L 781.772727 -251.673557 
L 781.772727 -249.425248 
L 781.772727 -247.176939 
L 781.772727 -244.92863 
L 781.772727 -242.680321 
L 781.772727 -240.432012 
L 781.772727 -238.183703 
L 781.772727 -235.935394 
L 781.772727 -233.687085 
L 781.772727 -231.438776 
L 781.772727 -229.190467 
L 781.772727 -226.942158 
L 781.772727 -224.693849 
L 781.772727 -222.44554 
L 781.772727 -220.197231 
L 781.772727 -217.948922 
L 781.772727 -215.700613 
L 781.772727 -213.452304 
L 781.772727 -211.203995 
L 781.772727 -208.955686 
L 781.772727 -206.707377 
L 781.772727 -204.459068 
L 781.772727 -202.210759 
L 781.772727 -199.96245 
L 781.772727 -197.714141 
L 781.772727 -195.465832 
L 781.772727 -193.217523 
L 781.772727 -190.969214 
L 781.772727 -188.720905 
L 781.772727 -186.472596 
L 781.772727 -184.224287 
L 781.772727 -181.975978 
z
" id="mc8d397c764" style="stroke:#3f3f3f;stroke-width:2;"/>
    </defs>
    <g clip-path="url(#pc31919ae6e)">
     <use style="fill:#3274a1;stroke:#3f3f3f;stroke-width:2;" x="0" xlink:href="#mc8d397c764" y="504"/>
    </g>
   </g>
   <g id="PolyCollection_4">
    <defs>
     <path d="M 782.203145 -141.177883 
L 781.772727 -141.177883 
L 781.772727 -143.93713 
L 781.772727 -146.696376 
L 781.772727 -149.455622 
L 781.772727 -152.214869 
L 781.772727 -154.974115 
L 781.772727 -157.733361 
L 781.772727 -160.492608 
L 781.772727 -163.251854 
L 781.772727 -166.0111 
L 781.772727 -168.770347 
L 781.772727 -171.529593 
L 781.772727 -174.28884 
L 781.772727 -177.048086 
L 781.772727 -179.807332 
L 781.772727 -182.566579 
L 781.772727 -185.325825 
L 781.772727 -188.085071 
L 781.772727 -190.844318 
L 781.772727 -193.603564 
L 781.772727 -196.362811 
L 781.772727 -199.122057 
L 781.772727 -201.881303 
L 781.772727 -204.64055 
L 781.772727 -207.399796 
L 781.772727 -210.159042 
L 781.772727 -212.918289 
L 781.772727 -215.677535 
L 781.772727 -218.436781 
L 781.772727 -221.196028 
L 781.772727 -223.955274 
L 781.772727 -226.714521 
L 781.772727 -229.473767 
L 781.772727 -232.233013 
L 781.772727 -234.99226 
L 781.772727 -237.751506 
L 781.772727 -240.510752 
L 781.772727 -243.269999 
L 781.772727 -246.029245 
L 781.772727 -248.788491 
L 781.772727 -251.547738 
L 781.772727 -254.306984 
L 781.772727 -257.066231 
L 781.772727 -259.825477 
L 781.772727 -262.584723 
L 781.772727 -265.34397 
L 781.772727 -268.103216 
L 781.772727 -270.862462 
L 781.772727 -273.621709 
L 781.772727 -276.380955 
L 781.772727 -279.140202 
L 781.772727 -281.899448 
L 781.772727 -284.658694 
L 781.772727 -287.417941 
L 781.772727 -290.177187 
L 781.772727 -292.936433 
L 781.772727 -295.69568 
L 781.772727 -298.454926 
L 781.772727 -301.214172 
L 781.772727 -303.973419 
L 781.772727 -306.732665 
L 781.772727 -309.491912 
L 781.772727 -312.251158 
L 781.772727 -315.010404 
L 781.772727 -317.769651 
L 781.772727 -320.528897 
L 781.772727 -323.288143 
L 781.772727 -326.04739 
L 781.772727 -328.806636 
L 781.772727 -331.565882 
L 781.772727 -334.325129 
L 781.772727 -337.084375 
L 781.772727 -339.843622 
L 781.772727 -342.602868 
L 781.772727 -345.362114 
L 781.772727 -348.121361 
L 781.772727 -350.880607 
L 781.772727 -353.639853 
L 781.772727 -356.3991 
L 781.772727 -359.158346 
L 781.772727 -361.917592 
L 781.772727 -364.676839 
L 781.772727 -367.436085 
L 781.772727 -370.195332 
L 781.772727 -372.954578 
L 781.772727 -375.713824 
L 781.772727 -378.473071 
L 781.772727 -381.232317 
L 781.772727 -383.991563 
L 781.772727 -386.75081 
L 781.772727 -389.510056 
L 781.772727 -392.269303 
L 781.772727 -395.028549 
L 781.772727 -397.787795 
L 781.772727 -400.547042 
L 781.772727 -403.306288 
L 781.772727 -406.065534 
L 781.772727 -408.824781 
L 781.772727 -411.584027 
L 781.772727 -414.343273 
L 782.262723 -414.343273 
L 782.262723 -414.343273 
L 782.498672 -411.584027 
L 782.810544 -408.824781 
L 783.204744 -406.065534 
L 783.680553 -403.306288 
L 784.228099 -400.547042 
L 784.827813 -397.787795 
L 785.452112 -395.028549 
L 786.069708 -392.269303 
L 786.652347 -389.510056 
L 787.183038 -386.75081 
L 787.664193 -383.991563 
L 788.123711 -381.232317 
L 788.617119 -378.473071 
L 789.224424 -375.713824 
L 790.041316 -372.954578 
L 791.165577 -370.195332 
L 792.680675 -367.436085 
L 794.639409 -364.676839 
L 797.05079 -361.917592 
L 799.873051 -359.158346 
L 803.014778 -356.3991 
L 806.344736 -353.639853 
L 809.709389 -350.880607 
L 812.955588 -348.121361 
L 815.954856 -345.362114 
L 818.625278 -342.602868 
L 820.947289 -339.843622 
L 822.970549 -337.084375 
L 824.810402 -334.325129 
L 826.633904 -331.565882 
L 828.636958 -328.806636 
L 831.015542 -326.04739 
L 833.935282 -323.288143 
L 837.50437 -320.528897 
L 841.754875 -317.769651 
L 846.636438 -315.010404 
L 852.024262 -312.251158 
L 857.74042 -309.491912 
L 863.584601 -306.732665 
L 869.368209 -303.973419 
L 874.944959 -301.214172 
L 880.231969 -298.454926 
L 885.217545 -295.69568 
L 889.954681 -292.936433 
L 894.542003 -290.177187 
L 899.095874 -287.417941 
L 903.718427 -284.658694 
L 908.466562 -281.899448 
L 913.3266 -279.140202 
L 918.198602 -276.380955 
L 922.89329 -273.621709 
L 927.142999 -270.862462 
L 930.626144 -268.103216 
L 933.002498 -265.34397 
L 933.954545 -262.584723 
L 933.228819 -259.825477 
L 930.670829 -257.066231 
L 926.248143 -254.306984 
L 920.058141 -251.547738 
L 912.319508 -248.788491 
L 903.34918 -246.029245 
L 893.528613 -243.269999 
L 883.264658 -240.510752 
L 872.950829 -237.751506 
L 862.934208 -234.99226 
L 853.491974 -232.233013 
L 844.819602 -229.473767 
L 837.030668 -226.714521 
L 830.166227 -223.955274 
L 824.210389 -221.196028 
L 819.108183 -218.436781 
L 814.782232 -215.677535 
L 811.145811 -212.918289 
L 808.111277 -210.159042 
L 805.594187 -207.399796 
L 803.514288 -204.64055 
L 801.794933 -201.881303 
L 800.36232 -199.122057 
L 799.145511 -196.362811 
L 798.077575 -193.603564 
L 797.097737 -190.844318 
L 796.154024 -188.085071 
L 795.205771 -185.325825 
L 794.225415 -182.566579 
L 793.199158 -179.807332 
L 792.126351 -177.048086 
L 791.01771 -174.28884 
L 789.892643 -171.529593 
L 788.77607 -168.770347 
L 787.695127 -166.0111 
L 786.676081 -163.251854 
L 785.741707 -160.492608 
L 784.909322 -157.733361 
L 784.189593 -154.974115 
L 783.586163 -152.214869 
L 783.096075 -149.455622 
L 782.710865 -146.696376 
L 782.418104 -143.93713 
L 782.203145 -141.177883 
z
" id="m3833536f47" style="stroke:#3f3f3f;stroke-width:2;"/>
    </defs>
    <g clip-path="url(#pc31919ae6e)">
     <use style="fill:#e1812c;stroke:#3f3f3f;stroke-width:2;" x="0" xlink:href="#m3833536f47" y="504"/>
    </g>
   </g>
   <g id="patch_13">
    <path clip-path="url(#pc31919ae6e)" d="M 781.772727 252.135603 
L 781.772727 252.135603 
L 781.772727 252.135603 
L 781.772727 252.135603 
z
" style="fill:#3274a1;stroke:#3f3f3f;stroke-linejoin:miter;"/>
   </g>
   <g id="patch_14">
    <path clip-path="url(#pc31919ae6e)" d="M 781.772727 252.135603 
L 781.772727 252.135603 
L 781.772727 252.135603 
L 781.772727 252.135603 
z
" style="fill:#e1812c;stroke:#3f3f3f;stroke-linejoin:miter;"/>
   </g>
   <g id="matplotlib.axis_3">
    <g id="xtick_2">
     <g id="line2d_15">
      <g>
       <use style="stroke:#000000;stroke-width:0.8;" x="781.772727" xlink:href="#mfb24b3c79d" y="441"/>
      </g>
     </g>
     <g id="text_13">
      <!-- LookNeg-RegNeg -->
      <g transform="translate(701.728977 462.315625)scale(0.2 -0.2)">
       <use xlink:href="#ArialMT-4c"/>
       <use x="55.615234" xlink:href="#ArialMT-6f"/>
       <use x="111.230469" xlink:href="#ArialMT-6f"/>
       <use x="166.845703" xlink:href="#ArialMT-6b"/>
       <use x="216.845703" xlink:href="#ArialMT-4e"/>
       <use x="289.0625" xlink:href="#ArialMT-65"/>
       <use x="344.677734" xlink:href="#ArialMT-67"/>
       <use x="400.292969" xlink:href="#ArialMT-2d"/>
       <use x="433.59375" xlink:href="#ArialMT-52"/>
       <use x="505.810547" xlink:href="#ArialMT-65"/>
       <use x="561.425781" xlink:href="#ArialMT-67"/>
       <use x="617.041016" xlink:href="#ArialMT-4e"/>
       <use x="689.257812" xlink:href="#ArialMT-65"/>
       <use x="744.873047" xlink:href="#ArialMT-67"/>
      </g>
     </g>
    </g>
   </g>
   <g id="matplotlib.axis_4">
    <g id="ytick_8">
     <g id="line2d_16">
      <g>
       <use style="stroke:#000000;stroke-width:0.8;" x="591.545455" xlink:href="#mf6a6401a03" y="419.60791"/>
      </g>
     </g>
    </g>
    <g id="ytick_9">
     <g id="line2d_17">
      <g>
       <use style="stroke:#000000;stroke-width:0.8;" x="591.545455" xlink:href="#mf6a6401a03" y="363.783808"/>
      </g>
     </g>
    </g>
    <g id="ytick_10">
     <g id="line2d_18">
      <g>
       <use style="stroke:#000000;stroke-width:0.8;" x="591.545455" xlink:href="#mf6a6401a03" y="307.959705"/>
      </g>
     </g>
    </g>
    <g id="ytick_11">
     <g id="line2d_19">
      <g>
       <use style="stroke:#000000;stroke-width:0.8;" x="591.545455" xlink:href="#mf6a6401a03" y="252.135603"/>
      </g>
     </g>
    </g>
    <g id="ytick_12">
     <g id="line2d_20">
      <g>
       <use style="stroke:#000000;stroke-width:0.8;" x="591.545455" xlink:href="#mf6a6401a03" y="196.3115"/>
      </g>
     </g>
    </g>
    <g id="ytick_13">
     <g id="line2d_21">
      <g>
       <use style="stroke:#000000;stroke-width:0.8;" x="591.545455" xlink:href="#mf6a6401a03" y="140.487398"/>
      </g>
     </g>
    </g>
    <g id="ytick_14">
     <g id="line2d_22">
      <g>
       <use style="stroke:#000000;stroke-width:0.8;" x="591.545455" xlink:href="#mf6a6401a03" y="84.663295"/>
      </g>
     </g>
    </g>
   </g>
   <g id="line2d_23">
    <path clip-path="url(#pc31919ae6e)" d="M 674.630232 242.831585 
L 781.772727 242.831585 
" style="fill:none;stroke:#3f3f3f;stroke-dasharray:6,6;stroke-dashoffset:0;stroke-width:2;"/>
   </g>
   <g id="line2d_24">
    <path clip-path="url(#pc31919ae6e)" d="M 648.299136 211.197927 
L 781.772727 211.197927 
" style="fill:none;stroke:#3f3f3f;stroke-dasharray:12,12;stroke-dashoffset:0;stroke-width:2;"/>
   </g>
   <g id="line2d_25">
    <path clip-path="url(#pc31919ae6e)" d="M 668.9387 190.108822 
L 781.772727 190.108822 
" style="fill:none;stroke:#3f3f3f;stroke-dasharray:6,6;stroke-dashoffset:0;stroke-width:2;"/>
   </g>
   <g id="line2d_26">
    <path clip-path="url(#pc31919ae6e)" d="M 781.772727 252.135603 
L 918.675287 252.135603 
" style="fill:none;stroke:#3f3f3f;stroke-dasharray:6,6;stroke-dashoffset:0;stroke-width:2;"/>
   </g>
   <g id="line2d_27">
    <path clip-path="url(#pc31919ae6e)" d="M 781.772727 234.768104 
L 929.13761 234.768104 
" style="fill:none;stroke:#3f3f3f;stroke-dasharray:12,12;stroke-dashoffset:0;stroke-width:2;"/>
   </g>
   <g id="line2d_28">
    <path clip-path="url(#pc31919ae6e)" d="M 781.772727 205.95888 
L 879.247376 205.95888 
" style="fill:none;stroke:#3f3f3f;stroke-dasharray:6,6;stroke-dashoffset:0;stroke-width:2;"/>
   </g>
   <g id="patch_15">
    <path d="M 591.545455 441 
L 591.545455 60.48 
" style="fill:none;stroke:#000000;stroke-linecap:square;stroke-linejoin:miter;stroke-width:0.8;"/>
   </g>
   <g id="patch_16">
    <path d="M 972 441 
L 972 60.48 
" style="fill:none;stroke:#000000;stroke-linecap:square;stroke-linejoin:miter;stroke-width:0.8;"/>
   </g>
   <g id="patch_17">
    <path d="M 591.545455 441 
L 972 441 
" style="fill:none;stroke:#000000;stroke-linecap:square;stroke-linejoin:miter;stroke-width:0.8;"/>
   </g>
   <g id="patch_18">
    <path d="M 591.545455 60.48 
L 972 60.48 
" style="fill:none;stroke:#000000;stroke-linecap:square;stroke-linejoin:miter;stroke-width:0.8;"/>
   </g>
   <g id="text_14">
    <!-- N=145 -->
    <g transform="translate(737.154759 54.48)scale(0.3 -0.3)">
     <defs>
      <path d="M 2069 0 
L 2069 1097 
L 81 1097 
L 81 1613 
L 2172 4581 
L 2631 4581 
L 2631 1613 
L 3250 1613 
L 3250 1097 
L 2631 1097 
L 2631 0 
L 2069 0 
z
M 2069 1613 
L 2069 3678 
L 634 1613 
L 2069 1613 
z
" id="ArialMT-34" transform="scale(0.015625)"/>
      <path d="M 266 1200 
L 856 1250 
Q 922 819 1161 601 
Q 1400 384 1738 384 
Q 2144 384 2425 690 
Q 2706 997 2706 1503 
Q 2706 1984 2436 2262 
Q 2166 2541 1728 2541 
Q 1456 2541 1237 2417 
Q 1019 2294 894 2097 
L 366 2166 
L 809 4519 
L 3088 4519 
L 3088 3981 
L 1259 3981 
L 1013 2750 
Q 1425 3038 1878 3038 
Q 2478 3038 2890 2622 
Q 3303 2206 3303 1553 
Q 3303 931 2941 478 
Q 2500 -78 1738 -78 
Q 1113 -78 717 272 
Q 322 622 266 1200 
z
" id="ArialMT-35" transform="scale(0.015625)"/>
     </defs>
     <use xlink:href="#ArialMT-4e"/>
     <use x="72.216797" xlink:href="#ArialMT-3d"/>
     <use x="130.615234" xlink:href="#ArialMT-31"/>
     <use x="186.230469" xlink:href="#ArialMT-34"/>
     <use x="241.845703" xlink:href="#ArialMT-35"/>
    </g>
   </g>
   <g id="legend_2">
    <g id="patch_19">
     <path d="M 874.328906 109.515938 
L 963.6 109.515938 
Q 966 109.515938 966 107.115938 
L 966 68.88 
Q 966 66.48 963.6 66.48 
L 874.328906 66.48 
Q 871.928906 66.48 871.928906 68.88 
L 871.928906 107.115938 
Q 871.928906 109.515938 874.328906 109.515938 
z
" style="fill:#ffffff;opacity:0.8;stroke:#cccccc;stroke-linejoin:miter;"/>
    </g>
    <g id="patch_20">
     <path d="M 876.728906 82.016719 
L 900.728906 82.016719 
L 900.728906 73.616719 
L 876.728906 73.616719 
z
" style="fill:#3274a1;stroke:#3f3f3f;stroke-linejoin:miter;"/>
    </g>
    <g id="text_15">
     <!-- First -->
     <g transform="translate(910.328906 82.016719)scale(0.15 -0.15)">
      <use xlink:href="#ArialMT-46"/>
      <use x="61.083984" xlink:href="#ArialMT-69"/>
      <use x="83.300781" xlink:href="#ArialMT-72"/>
      <use x="116.601562" xlink:href="#ArialMT-73"/>
      <use x="166.601562" xlink:href="#ArialMT-74"/>
     </g>
    </g>
    <g id="patch_21">
     <path d="M 876.728906 101.734688 
L 900.728906 101.734688 
L 900.728906 93.334688 
L 876.728906 93.334688 
z
" style="fill:#e1812c;stroke:#3f3f3f;stroke-linejoin:miter;"/>
    </g>
    <g id="text_16">
     <!-- Second -->
     <g transform="translate(910.328906 101.734688)scale(0.15 -0.15)">
      <use xlink:href="#ArialMT-53"/>
      <use x="66.699219" xlink:href="#ArialMT-65"/>
      <use x="122.314453" xlink:href="#ArialMT-63"/>
      <use x="172.314453" xlink:href="#ArialMT-6f"/>
      <use x="227.929688" xlink:href="#ArialMT-6e"/>
      <use x="283.544922" xlink:href="#ArialMT-64"/>
     </g>
    </g>
   </g>
  </g>
 </g>
 <defs>
  <clipPath id="pec9fc9020b">
   <rect height="380.52" width="380.454545" x="135" y="60.48"/>
  </clipPath>
  <clipPath id="pc31919ae6e">
   <rect height="380.52" width="380.454545" x="591.545455" y="60.48"/>
  </clipPath>
 </defs>
</svg>
