<?xml version="1.0" encoding="utf-8" standalone="no"?>
<!DOCTYPE svg PUBLIC "-//W3C//DTD SVG 1.1//EN"
  "http://www.w3.org/Graphics/SVG/1.1/DTD/svg11.dtd">
<!-- Created with matplotlib (https://matplotlib.org/) -->
<svg height="360pt" version="1.1" viewBox="0 0 720 360" width="720pt" xmlns="http://www.w3.org/2000/svg" xmlns:xlink="http://www.w3.org/1999/xlink">
 <metadata>
  <rdf:RDF xmlns:cc="http://creativecommons.org/ns#" xmlns:dc="http://purl.org/dc/elements/1.1/" xmlns:rdf="http://www.w3.org/1999/02/22-rdf-syntax-ns#">
   <cc:Work>
    <dc:type rdf:resource="http://purl.org/dc/dcmitype/StillImage"/>
    <dc:date>2021-06-25T13:17:04.389148</dc:date>
    <dc:format>image/svg+xml</dc:format>
    <dc:creator>
     <cc:Agent>
      <dc:title>Matplotlib v3.3.4, https://matplotlib.org/</dc:title>
     </cc:Agent>
    </dc:creator>
   </cc:Work>
  </rdf:RDF>
 </metadata>
 <defs>
  <style type="text/css">*{stroke-linecap:butt;stroke-linejoin:round;}</style>
 </defs>
 <g id="figure_1">
  <g id="patch_1">
   <path d="M 0 360 
L 720 360 
L 720 0 
L 0 0 
z
" style="fill:none;"/>
  </g>
  <g id="axes_1">
   <g id="patch_2">
    <path d="M 10.8 267.4 
L 709.2 267.4 
L 709.2 10.8 
L 10.8 10.8 
z
" style="fill:#ffffff;"/>
   </g>
   <g id="PolyCollection_1">
    <defs>
     <path d="M 42.545455 -209.236364 
L 42.545455 -325.872727 
L 48.958678 -310.829378 
L 55.371901 -274.030122 
L 61.785124 -246.727852 
L 68.198347 -236.085167 
L 74.61157 -234.003042 
L 81.024793 -234.247346 
L 87.438017 -234.885102 
L 93.85124 -235.557251 
L 100.264463 -236.120394 
L 106.677686 -236.493399 
L 113.090909 -236.723883 
L 119.504132 -236.917392 
L 125.917355 -237.157274 
L 132.330579 -237.464048 
L 138.743802 -237.786997 
L 145.157025 -238.068827 
L 151.570248 -238.277873 
L 157.983471 -238.362426 
L 164.396694 -238.269219 
L 170.809917 -238.012421 
L 177.22314 -237.662664 
L 183.636364 -237.275436 
L 190.049587 -236.857688 
L 196.46281 -236.412284 
L 202.876033 -235.933166 
L 209.289256 -235.354279 
L 215.702479 -234.653815 
L 222.115702 -233.93045 
L 228.528926 -233.23116 
L 234.942149 -232.448686 
L 241.355372 -231.518719 
L 247.768595 -230.535195 
L 254.181818 -229.583266 
L 260.595041 -228.64137 
L 267.008264 -227.654837 
L 273.421488 -226.608134 
L 279.834711 -225.545896 
L 286.247934 -224.532916 
L 292.661157 -223.582503 
L 299.07438 -222.645339 
L 305.487603 -221.673725 
L 311.900826 -220.677793 
L 318.31405 -219.700197 
L 324.727273 -218.760566 
L 331.140496 -217.862512 
L 337.553719 -217.008572 
L 343.966942 -216.190295 
L 350.380165 -215.419267 
L 356.793388 -214.73679 
L 363.206612 -214.148657 
L 369.619835 -213.600936 
L 376.033058 -213.05268 
L 382.446281 -212.53674 
L 388.859504 -212.103203 
L 395.272727 -211.740939 
L 401.68595 -211.408169 
L 408.099174 -211.090926 
L 414.512397 -210.798339 
L 420.92562 -210.539648 
L 427.338843 -210.318812 
L 433.752066 -210.131477 
L 440.165289 -209.971936 
L 446.578512 -209.842721 
L 452.991736 -209.742198 
L 459.404959 -209.662043 
L 465.818182 -209.600384 
L 472.231405 -209.55474 
L 478.644628 -209.513345 
L 485.057851 -209.468526 
L 491.471074 -209.425443 
L 497.884298 -209.389866 
L 504.297521 -209.358344 
L 510.710744 -209.325867 
L 517.123967 -209.295429 
L 523.53719 -209.273616 
L 529.950413 -209.261698 
L 536.363636 -209.25595 
L 542.77686 -209.252575 
L 549.190083 -209.249816 
L 555.603306 -209.247616 
L 562.016529 -209.245917 
L 568.429752 -209.243805 
L 574.842975 -209.241195 
L 581.256198 -209.23962 
L 587.669421 -209.240262 
L 594.082645 -209.242409 
L 600.495868 -209.244158 
L 606.909091 -209.244054 
L 613.322314 -209.242085 
L 619.735537 -209.239601 
L 626.14876 -209.238222 
L 632.561983 -209.238728 
L 638.975207 -209.240727 
L 645.38843 -209.24272 
L 651.801653 -209.243078 
L 658.214876 -209.241675 
L 664.628099 -209.239936 
L 671.041322 -209.239007 
L 677.454545 -209.2386 
L 677.454545 -209.236364 
L 677.454545 -209.236364 
L 671.041322 -209.236364 
L 664.628099 -209.236364 
L 658.214876 -209.236364 
L 651.801653 -209.236364 
L 645.38843 -209.236364 
L 638.975207 -209.236364 
L 632.561983 -209.236364 
L 626.14876 -209.236364 
L 619.735537 -209.236364 
L 613.322314 -209.236364 
L 606.909091 -209.236364 
L 600.495868 -209.236364 
L 594.082645 -209.236364 
L 587.669421 -209.236364 
L 581.256198 -209.236364 
L 574.842975 -209.236364 
L 568.429752 -209.236364 
L 562.016529 -209.236364 
L 555.603306 -209.236364 
L 549.190083 -209.236364 
L 542.77686 -209.236364 
L 536.363636 -209.236364 
L 529.950413 -209.236364 
L 523.53719 -209.236364 
L 517.123967 -209.236364 
L 510.710744 -209.236364 
L 504.297521 -209.236364 
L 497.884298 -209.236364 
L 491.471074 -209.236364 
L 485.057851 -209.236364 
L 478.644628 -209.236364 
L 472.231405 -209.236364 
L 465.818182 -209.236364 
L 459.404959 -209.236364 
L 452.991736 -209.236364 
L 446.578512 -209.236364 
L 440.165289 -209.236364 
L 433.752066 -209.236364 
L 427.338843 -209.236364 
L 420.92562 -209.236364 
L 414.512397 -209.236364 
L 408.099174 -209.236364 
L 401.68595 -209.236364 
L 395.272727 -209.236364 
L 388.859504 -209.236364 
L 382.446281 -209.236364 
L 376.033058 -209.236364 
L 369.619835 -209.236364 
L 363.206612 -209.236364 
L 356.793388 -209.236364 
L 350.380165 -209.236364 
L 343.966942 -209.236364 
L 337.553719 -209.236364 
L 331.140496 -209.236364 
L 324.727273 -209.236364 
L 318.31405 -209.236364 
L 311.900826 -209.236364 
L 305.487603 -209.236364 
L 299.07438 -209.236364 
L 292.661157 -209.236364 
L 286.247934 -209.236364 
L 279.834711 -209.236364 
L 273.421488 -209.236364 
L 267.008264 -209.236364 
L 260.595041 -209.236364 
L 254.181818 -209.236364 
L 247.768595 -209.236364 
L 241.355372 -209.236364 
L 234.942149 -209.236364 
L 228.528926 -209.236364 
L 222.115702 -209.236364 
L 215.702479 -209.236364 
L 209.289256 -209.236364 
L 202.876033 -209.236364 
L 196.46281 -209.236364 
L 190.049587 -209.236364 
L 183.636364 -209.236364 
L 177.22314 -209.236364 
L 170.809917 -209.236364 
L 164.396694 -209.236364 
L 157.983471 -209.236364 
L 151.570248 -209.236364 
L 145.157025 -209.236364 
L 138.743802 -209.236364 
L 132.330579 -209.236364 
L 125.917355 -209.236364 
L 119.504132 -209.236364 
L 113.090909 -209.236364 
L 106.677686 -209.236364 
L 100.264463 -209.236364 
L 93.85124 -209.236364 
L 87.438017 -209.236364 
L 81.024793 -209.236364 
L 74.61157 -209.236364 
L 68.198347 -209.236364 
L 61.785124 -209.236364 
L 55.371901 -209.236364 
L 48.958678 -209.236364 
L 42.545455 -209.236364 
z
" id="m027457bb9b" style="stroke:#000000;"/>
    </defs>
    <g clip-path="url(#p0f5aee29fa)">
     <use style="fill:#c0c0c0;stroke:#000000;" x="0" xlink:href="#m027457bb9b" y="360"/>
    </g>
   </g>
   <g id="matplotlib.axis_1">
    <g id="xtick_1">
     <g id="line2d_1">
      <defs>
       <path d="M 0 0 
L 0 3.5 
" id="m85014ccdf8" style="stroke:#000000;stroke-width:0.8;"/>
      </defs>
      <g>
       <use style="stroke:#000000;stroke-width:0.8;" x="42.545455" xlink:href="#m85014ccdf8" y="267.4"/>
      </g>
     </g>
     <g id="text_1">
      <!-- 0.0 -->
      <g transform="translate(26.64233 289.596875)scale(0.2 -0.2)">
       <defs>
        <path d="M 31.78125 66.40625 
Q 24.171875 66.40625 20.328125 58.90625 
Q 16.5 51.421875 16.5 36.375 
Q 16.5 21.390625 20.328125 13.890625 
Q 24.171875 6.390625 31.78125 6.390625 
Q 39.453125 6.390625 43.28125 13.890625 
Q 47.125 21.390625 47.125 36.375 
Q 47.125 51.421875 43.28125 58.90625 
Q 39.453125 66.40625 31.78125 66.40625 
z
M 31.78125 74.21875 
Q 44.046875 74.21875 50.515625 64.515625 
Q 56.984375 54.828125 56.984375 36.375 
Q 56.984375 17.96875 50.515625 8.265625 
Q 44.046875 -1.421875 31.78125 -1.421875 
Q 19.53125 -1.421875 13.0625 8.265625 
Q 6.59375 17.96875 6.59375 36.375 
Q 6.59375 54.828125 13.0625 64.515625 
Q 19.53125 74.21875 31.78125 74.21875 
z
" id="DejaVuSans-48"/>
        <path d="M 10.6875 12.40625 
L 21 12.40625 
L 21 0 
L 10.6875 0 
z
" id="DejaVuSans-46"/>
       </defs>
       <use xlink:href="#DejaVuSans-48"/>
       <use x="63.623047" xlink:href="#DejaVuSans-46"/>
       <use x="95.410156" xlink:href="#DejaVuSans-48"/>
      </g>
     </g>
    </g>
    <g id="xtick_2">
     <g id="line2d_2">
      <g>
       <use style="stroke:#000000;stroke-width:0.8;" x="197.556876" xlink:href="#m85014ccdf8" y="267.4"/>
      </g>
     </g>
     <g id="text_2">
      <!-- 0.2 -->
      <g transform="translate(181.653751 289.596875)scale(0.2 -0.2)">
       <defs>
        <path d="M 19.1875 8.296875 
L 53.609375 8.296875 
L 53.609375 0 
L 7.328125 0 
L 7.328125 8.296875 
Q 12.9375 14.109375 22.625 23.890625 
Q 32.328125 33.6875 34.8125 36.53125 
Q 39.546875 41.84375 41.421875 45.53125 
Q 43.3125 49.21875 43.3125 52.78125 
Q 43.3125 58.59375 39.234375 62.25 
Q 35.15625 65.921875 28.609375 65.921875 
Q 23.96875 65.921875 18.8125 64.3125 
Q 13.671875 62.703125 7.8125 59.421875 
L 7.8125 69.390625 
Q 13.765625 71.78125 18.9375 73 
Q 24.125 74.21875 28.421875 74.21875 
Q 39.75 74.21875 46.484375 68.546875 
Q 53.21875 62.890625 53.21875 53.421875 
Q 53.21875 48.921875 51.53125 44.890625 
Q 49.859375 40.875 45.40625 35.40625 
Q 44.1875 33.984375 37.640625 27.21875 
Q 31.109375 20.453125 19.1875 8.296875 
z
" id="DejaVuSans-50"/>
       </defs>
       <use xlink:href="#DejaVuSans-48"/>
       <use x="63.623047" xlink:href="#DejaVuSans-46"/>
       <use x="95.410156" xlink:href="#DejaVuSans-50"/>
      </g>
     </g>
    </g>
    <g id="xtick_3">
     <g id="line2d_3">
      <g>
       <use style="stroke:#000000;stroke-width:0.8;" x="352.568298" xlink:href="#m85014ccdf8" y="267.4"/>
      </g>
     </g>
     <g id="text_3">
      <!-- 0.4 -->
      <g transform="translate(336.665173 289.596875)scale(0.2 -0.2)">
       <defs>
        <path d="M 37.796875 64.3125 
L 12.890625 25.390625 
L 37.796875 25.390625 
z
M 35.203125 72.90625 
L 47.609375 72.90625 
L 47.609375 25.390625 
L 58.015625 25.390625 
L 58.015625 17.1875 
L 47.609375 17.1875 
L 47.609375 0 
L 37.796875 0 
L 37.796875 17.1875 
L 4.890625 17.1875 
L 4.890625 26.703125 
z
" id="DejaVuSans-52"/>
       </defs>
       <use xlink:href="#DejaVuSans-48"/>
       <use x="63.623047" xlink:href="#DejaVuSans-46"/>
       <use x="95.410156" xlink:href="#DejaVuSans-52"/>
      </g>
     </g>
    </g>
    <g id="xtick_4">
     <g id="line2d_4">
      <g>
       <use style="stroke:#000000;stroke-width:0.8;" x="507.579719" xlink:href="#m85014ccdf8" y="267.4"/>
      </g>
     </g>
     <g id="text_4">
      <!-- 0.6 -->
      <g transform="translate(491.676594 289.596875)scale(0.2 -0.2)">
       <defs>
        <path d="M 33.015625 40.375 
Q 26.375 40.375 22.484375 35.828125 
Q 18.609375 31.296875 18.609375 23.390625 
Q 18.609375 15.53125 22.484375 10.953125 
Q 26.375 6.390625 33.015625 6.390625 
Q 39.65625 6.390625 43.53125 10.953125 
Q 47.40625 15.53125 47.40625 23.390625 
Q 47.40625 31.296875 43.53125 35.828125 
Q 39.65625 40.375 33.015625 40.375 
z
M 52.59375 71.296875 
L 52.59375 62.3125 
Q 48.875 64.0625 45.09375 64.984375 
Q 41.3125 65.921875 37.59375 65.921875 
Q 27.828125 65.921875 22.671875 59.328125 
Q 17.53125 52.734375 16.796875 39.40625 
Q 19.671875 43.65625 24.015625 45.921875 
Q 28.375 48.1875 33.59375 48.1875 
Q 44.578125 48.1875 50.953125 41.515625 
Q 57.328125 34.859375 57.328125 23.390625 
Q 57.328125 12.15625 50.6875 5.359375 
Q 44.046875 -1.421875 33.015625 -1.421875 
Q 20.359375 -1.421875 13.671875 8.265625 
Q 6.984375 17.96875 6.984375 36.375 
Q 6.984375 53.65625 15.1875 63.9375 
Q 23.390625 74.21875 37.203125 74.21875 
Q 40.921875 74.21875 44.703125 73.484375 
Q 48.484375 72.75 52.59375 71.296875 
z
" id="DejaVuSans-54"/>
       </defs>
       <use xlink:href="#DejaVuSans-48"/>
       <use x="63.623047" xlink:href="#DejaVuSans-46"/>
       <use x="95.410156" xlink:href="#DejaVuSans-54"/>
      </g>
     </g>
    </g>
    <g id="xtick_5">
     <g id="line2d_5">
      <g>
       <use style="stroke:#000000;stroke-width:0.8;" x="662.591141" xlink:href="#m85014ccdf8" y="267.4"/>
      </g>
     </g>
     <g id="text_5">
      <!-- 0.8 -->
      <g transform="translate(646.688016 289.596875)scale(0.2 -0.2)">
       <defs>
        <path d="M 31.78125 34.625 
Q 24.75 34.625 20.71875 30.859375 
Q 16.703125 27.09375 16.703125 20.515625 
Q 16.703125 13.921875 20.71875 10.15625 
Q 24.75 6.390625 31.78125 6.390625 
Q 38.8125 6.390625 42.859375 10.171875 
Q 46.921875 13.96875 46.921875 20.515625 
Q 46.921875 27.09375 42.890625 30.859375 
Q 38.875 34.625 31.78125 34.625 
z
M 21.921875 38.8125 
Q 15.578125 40.375 12.03125 44.71875 
Q 8.5 49.078125 8.5 55.328125 
Q 8.5 64.0625 14.71875 69.140625 
Q 20.953125 74.21875 31.78125 74.21875 
Q 42.671875 74.21875 48.875 69.140625 
Q 55.078125 64.0625 55.078125 55.328125 
Q 55.078125 49.078125 51.53125 44.71875 
Q 48 40.375 41.703125 38.8125 
Q 48.828125 37.15625 52.796875 32.3125 
Q 56.78125 27.484375 56.78125 20.515625 
Q 56.78125 9.90625 50.3125 4.234375 
Q 43.84375 -1.421875 31.78125 -1.421875 
Q 19.734375 -1.421875 13.25 4.234375 
Q 6.78125 9.90625 6.78125 20.515625 
Q 6.78125 27.484375 10.78125 32.3125 
Q 14.796875 37.15625 21.921875 38.8125 
z
M 18.3125 54.390625 
Q 18.3125 48.734375 21.84375 45.5625 
Q 25.390625 42.390625 31.78125 42.390625 
Q 38.140625 42.390625 41.71875 45.5625 
Q 45.3125 48.734375 45.3125 54.390625 
Q 45.3125 60.0625 41.71875 63.234375 
Q 38.140625 66.40625 31.78125 66.40625 
Q 25.390625 66.40625 21.84375 63.234375 
Q 18.3125 60.0625 18.3125 54.390625 
z
" id="DejaVuSans-56"/>
       </defs>
       <use xlink:href="#DejaVuSans-48"/>
       <use x="63.623047" xlink:href="#DejaVuSans-46"/>
       <use x="95.410156" xlink:href="#DejaVuSans-56"/>
      </g>
     </g>
    </g>
    <g id="text_6">
     <!-- Spearman-Brown adjusted  -->
     <g transform="translate(190.841797 316.752344)scale(0.25 -0.25)">
      <defs>
       <path d="M 53.515625 70.515625 
L 53.515625 60.890625 
Q 47.90625 63.578125 42.921875 64.890625 
Q 37.9375 66.21875 33.296875 66.21875 
Q 25.25 66.21875 20.875 63.09375 
Q 16.5 59.96875 16.5 54.203125 
Q 16.5 49.359375 19.40625 46.890625 
Q 22.3125 44.4375 30.421875 42.921875 
L 36.375 41.703125 
Q 47.40625 39.59375 52.65625 34.296875 
Q 57.90625 29 57.90625 20.125 
Q 57.90625 9.515625 50.796875 4.046875 
Q 43.703125 -1.421875 29.984375 -1.421875 
Q 24.8125 -1.421875 18.96875 -0.25 
Q 13.140625 0.921875 6.890625 3.21875 
L 6.890625 13.375 
Q 12.890625 10.015625 18.65625 8.296875 
Q 24.421875 6.59375 29.984375 6.59375 
Q 38.421875 6.59375 43.015625 9.90625 
Q 47.609375 13.234375 47.609375 19.390625 
Q 47.609375 24.75 44.3125 27.78125 
Q 41.015625 30.8125 33.5 32.328125 
L 27.484375 33.5 
Q 16.453125 35.6875 11.515625 40.375 
Q 6.59375 45.0625 6.59375 53.421875 
Q 6.59375 63.09375 13.40625 68.65625 
Q 20.21875 74.21875 32.171875 74.21875 
Q 37.3125 74.21875 42.625 73.28125 
Q 47.953125 72.359375 53.515625 70.515625 
z
" id="DejaVuSans-83"/>
       <path d="M 18.109375 8.203125 
L 18.109375 -20.796875 
L 9.078125 -20.796875 
L 9.078125 54.6875 
L 18.109375 54.6875 
L 18.109375 46.390625 
Q 20.953125 51.265625 25.265625 53.625 
Q 29.59375 56 35.59375 56 
Q 45.5625 56 51.78125 48.09375 
Q 58.015625 40.1875 58.015625 27.296875 
Q 58.015625 14.40625 51.78125 6.484375 
Q 45.5625 -1.421875 35.59375 -1.421875 
Q 29.59375 -1.421875 25.265625 0.953125 
Q 20.953125 3.328125 18.109375 8.203125 
z
M 48.6875 27.296875 
Q 48.6875 37.203125 44.609375 42.84375 
Q 40.53125 48.484375 33.40625 48.484375 
Q 26.265625 48.484375 22.1875 42.84375 
Q 18.109375 37.203125 18.109375 27.296875 
Q 18.109375 17.390625 22.1875 11.75 
Q 26.265625 6.109375 33.40625 6.109375 
Q 40.53125 6.109375 44.609375 11.75 
Q 48.6875 17.390625 48.6875 27.296875 
z
" id="DejaVuSans-112"/>
       <path d="M 56.203125 29.59375 
L 56.203125 25.203125 
L 14.890625 25.203125 
Q 15.484375 15.921875 20.484375 11.0625 
Q 25.484375 6.203125 34.421875 6.203125 
Q 39.59375 6.203125 44.453125 7.46875 
Q 49.3125 8.734375 54.109375 11.28125 
L 54.109375 2.78125 
Q 49.265625 0.734375 44.1875 -0.34375 
Q 39.109375 -1.421875 33.890625 -1.421875 
Q 20.796875 -1.421875 13.15625 6.1875 
Q 5.515625 13.8125 5.515625 26.8125 
Q 5.515625 40.234375 12.765625 48.109375 
Q 20.015625 56 32.328125 56 
Q 43.359375 56 49.78125 48.890625 
Q 56.203125 41.796875 56.203125 29.59375 
z
M 47.21875 32.234375 
Q 47.125 39.59375 43.09375 43.984375 
Q 39.0625 48.390625 32.421875 48.390625 
Q 24.90625 48.390625 20.390625 44.140625 
Q 15.875 39.890625 15.1875 32.171875 
z
" id="DejaVuSans-101"/>
       <path d="M 34.28125 27.484375 
Q 23.390625 27.484375 19.1875 25 
Q 14.984375 22.515625 14.984375 16.5 
Q 14.984375 11.71875 18.140625 8.90625 
Q 21.296875 6.109375 26.703125 6.109375 
Q 34.1875 6.109375 38.703125 11.40625 
Q 43.21875 16.703125 43.21875 25.484375 
L 43.21875 27.484375 
z
M 52.203125 31.203125 
L 52.203125 0 
L 43.21875 0 
L 43.21875 8.296875 
Q 40.140625 3.328125 35.546875 0.953125 
Q 30.953125 -1.421875 24.3125 -1.421875 
Q 15.921875 -1.421875 10.953125 3.296875 
Q 6 8.015625 6 15.921875 
Q 6 25.140625 12.171875 29.828125 
Q 18.359375 34.515625 30.609375 34.515625 
L 43.21875 34.515625 
L 43.21875 35.40625 
Q 43.21875 41.609375 39.140625 45 
Q 35.0625 48.390625 27.6875 48.390625 
Q 23 48.390625 18.546875 47.265625 
Q 14.109375 46.140625 10.015625 43.890625 
L 10.015625 52.203125 
Q 14.9375 54.109375 19.578125 55.046875 
Q 24.21875 56 28.609375 56 
Q 40.484375 56 46.34375 49.84375 
Q 52.203125 43.703125 52.203125 31.203125 
z
" id="DejaVuSans-97"/>
       <path d="M 41.109375 46.296875 
Q 39.59375 47.171875 37.8125 47.578125 
Q 36.03125 48 33.890625 48 
Q 26.265625 48 22.1875 43.046875 
Q 18.109375 38.09375 18.109375 28.8125 
L 18.109375 0 
L 9.078125 0 
L 9.078125 54.6875 
L 18.109375 54.6875 
L 18.109375 46.1875 
Q 20.953125 51.171875 25.484375 53.578125 
Q 30.03125 56 36.53125 56 
Q 37.453125 56 38.578125 55.875 
Q 39.703125 55.765625 41.0625 55.515625 
z
" id="DejaVuSans-114"/>
       <path d="M 52 44.1875 
Q 55.375 50.25 60.0625 53.125 
Q 64.75 56 71.09375 56 
Q 79.640625 56 84.28125 50.015625 
Q 88.921875 44.046875 88.921875 33.015625 
L 88.921875 0 
L 79.890625 0 
L 79.890625 32.71875 
Q 79.890625 40.578125 77.09375 44.375 
Q 74.3125 48.1875 68.609375 48.1875 
Q 61.625 48.1875 57.5625 43.546875 
Q 53.515625 38.921875 53.515625 30.90625 
L 53.515625 0 
L 44.484375 0 
L 44.484375 32.71875 
Q 44.484375 40.625 41.703125 44.40625 
Q 38.921875 48.1875 33.109375 48.1875 
Q 26.21875 48.1875 22.15625 43.53125 
Q 18.109375 38.875 18.109375 30.90625 
L 18.109375 0 
L 9.078125 0 
L 9.078125 54.6875 
L 18.109375 54.6875 
L 18.109375 46.1875 
Q 21.1875 51.21875 25.484375 53.609375 
Q 29.78125 56 35.6875 56 
Q 41.65625 56 45.828125 52.96875 
Q 50 49.953125 52 44.1875 
z
" id="DejaVuSans-109"/>
       <path d="M 54.890625 33.015625 
L 54.890625 0 
L 45.90625 0 
L 45.90625 32.71875 
Q 45.90625 40.484375 42.875 44.328125 
Q 39.84375 48.1875 33.796875 48.1875 
Q 26.515625 48.1875 22.3125 43.546875 
Q 18.109375 38.921875 18.109375 30.90625 
L 18.109375 0 
L 9.078125 0 
L 9.078125 54.6875 
L 18.109375 54.6875 
L 18.109375 46.1875 
Q 21.34375 51.125 25.703125 53.5625 
Q 30.078125 56 35.796875 56 
Q 45.21875 56 50.046875 50.171875 
Q 54.890625 44.34375 54.890625 33.015625 
z
" id="DejaVuSans-110"/>
       <path d="M 4.890625 31.390625 
L 31.203125 31.390625 
L 31.203125 23.390625 
L 4.890625 23.390625 
z
" id="DejaVuSans-45"/>
       <path d="M 19.671875 34.8125 
L 19.671875 8.109375 
L 35.5 8.109375 
Q 43.453125 8.109375 47.28125 11.40625 
Q 51.125 14.703125 51.125 21.484375 
Q 51.125 28.328125 47.28125 31.5625 
Q 43.453125 34.8125 35.5 34.8125 
z
M 19.671875 64.796875 
L 19.671875 42.828125 
L 34.28125 42.828125 
Q 41.5 42.828125 45.03125 45.53125 
Q 48.578125 48.25 48.578125 53.8125 
Q 48.578125 59.328125 45.03125 62.0625 
Q 41.5 64.796875 34.28125 64.796875 
z
M 9.8125 72.90625 
L 35.015625 72.90625 
Q 46.296875 72.90625 52.390625 68.21875 
Q 58.5 63.53125 58.5 54.890625 
Q 58.5 48.1875 55.375 44.234375 
Q 52.25 40.28125 46.1875 39.3125 
Q 53.46875 37.75 57.5 32.78125 
Q 61.53125 27.828125 61.53125 20.40625 
Q 61.53125 10.640625 54.890625 5.3125 
Q 48.25 0 35.984375 0 
L 9.8125 0 
z
" id="DejaVuSans-66"/>
       <path d="M 30.609375 48.390625 
Q 23.390625 48.390625 19.1875 42.75 
Q 14.984375 37.109375 14.984375 27.296875 
Q 14.984375 17.484375 19.15625 11.84375 
Q 23.34375 6.203125 30.609375 6.203125 
Q 37.796875 6.203125 41.984375 11.859375 
Q 46.1875 17.53125 46.1875 27.296875 
Q 46.1875 37.015625 41.984375 42.703125 
Q 37.796875 48.390625 30.609375 48.390625 
z
M 30.609375 56 
Q 42.328125 56 49.015625 48.375 
Q 55.71875 40.765625 55.71875 27.296875 
Q 55.71875 13.875 49.015625 6.21875 
Q 42.328125 -1.421875 30.609375 -1.421875 
Q 18.84375 -1.421875 12.171875 6.21875 
Q 5.515625 13.875 5.515625 27.296875 
Q 5.515625 40.765625 12.171875 48.375 
Q 18.84375 56 30.609375 56 
z
" id="DejaVuSans-111"/>
       <path d="M 4.203125 54.6875 
L 13.1875 54.6875 
L 24.421875 12.015625 
L 35.59375 54.6875 
L 46.1875 54.6875 
L 57.421875 12.015625 
L 68.609375 54.6875 
L 77.59375 54.6875 
L 63.28125 0 
L 52.6875 0 
L 40.921875 44.828125 
L 29.109375 0 
L 18.5 0 
z
" id="DejaVuSans-119"/>
       <path id="DejaVuSans-32"/>
       <path d="M 45.40625 46.390625 
L 45.40625 75.984375 
L 54.390625 75.984375 
L 54.390625 0 
L 45.40625 0 
L 45.40625 8.203125 
Q 42.578125 3.328125 38.25 0.953125 
Q 33.9375 -1.421875 27.875 -1.421875 
Q 17.96875 -1.421875 11.734375 6.484375 
Q 5.515625 14.40625 5.515625 27.296875 
Q 5.515625 40.1875 11.734375 48.09375 
Q 17.96875 56 27.875 56 
Q 33.9375 56 38.25 53.625 
Q 42.578125 51.265625 45.40625 46.390625 
z
M 14.796875 27.296875 
Q 14.796875 17.390625 18.875 11.75 
Q 22.953125 6.109375 30.078125 6.109375 
Q 37.203125 6.109375 41.296875 11.75 
Q 45.40625 17.390625 45.40625 27.296875 
Q 45.40625 37.203125 41.296875 42.84375 
Q 37.203125 48.484375 30.078125 48.484375 
Q 22.953125 48.484375 18.875 42.84375 
Q 14.796875 37.203125 14.796875 27.296875 
z
" id="DejaVuSans-100"/>
       <path d="M 9.421875 54.6875 
L 18.40625 54.6875 
L 18.40625 -0.984375 
Q 18.40625 -11.421875 14.421875 -16.109375 
Q 10.453125 -20.796875 1.609375 -20.796875 
L -1.8125 -20.796875 
L -1.8125 -13.1875 
L 0.59375 -13.1875 
Q 5.71875 -13.1875 7.5625 -10.8125 
Q 9.421875 -8.453125 9.421875 -0.984375 
z
M 9.421875 75.984375 
L 18.40625 75.984375 
L 18.40625 64.59375 
L 9.421875 64.59375 
z
" id="DejaVuSans-106"/>
       <path d="M 8.5 21.578125 
L 8.5 54.6875 
L 17.484375 54.6875 
L 17.484375 21.921875 
Q 17.484375 14.15625 20.5 10.265625 
Q 23.53125 6.390625 29.59375 6.390625 
Q 36.859375 6.390625 41.078125 11.03125 
Q 45.3125 15.671875 45.3125 23.6875 
L 45.3125 54.6875 
L 54.296875 54.6875 
L 54.296875 0 
L 45.3125 0 
L 45.3125 8.40625 
Q 42.046875 3.421875 37.71875 1 
Q 33.40625 -1.421875 27.6875 -1.421875 
Q 18.265625 -1.421875 13.375 4.4375 
Q 8.5 10.296875 8.5 21.578125 
z
M 31.109375 56 
z
" id="DejaVuSans-117"/>
       <path d="M 44.28125 53.078125 
L 44.28125 44.578125 
Q 40.484375 46.53125 36.375 47.5 
Q 32.28125 48.484375 27.875 48.484375 
Q 21.1875 48.484375 17.84375 46.4375 
Q 14.5 44.390625 14.5 40.28125 
Q 14.5 37.15625 16.890625 35.375 
Q 19.28125 33.59375 26.515625 31.984375 
L 29.59375 31.296875 
Q 39.15625 29.25 43.1875 25.515625 
Q 47.21875 21.78125 47.21875 15.09375 
Q 47.21875 7.46875 41.1875 3.015625 
Q 35.15625 -1.421875 24.609375 -1.421875 
Q 20.21875 -1.421875 15.453125 -0.5625 
Q 10.6875 0.296875 5.421875 2 
L 5.421875 11.28125 
Q 10.40625 8.6875 15.234375 7.390625 
Q 20.0625 6.109375 24.8125 6.109375 
Q 31.15625 6.109375 34.5625 8.28125 
Q 37.984375 10.453125 37.984375 14.40625 
Q 37.984375 18.0625 35.515625 20.015625 
Q 33.0625 21.96875 24.703125 23.78125 
L 21.578125 24.515625 
Q 13.234375 26.265625 9.515625 29.90625 
Q 5.8125 33.546875 5.8125 39.890625 
Q 5.8125 47.609375 11.28125 51.796875 
Q 16.75 56 26.8125 56 
Q 31.78125 56 36.171875 55.265625 
Q 40.578125 54.546875 44.28125 53.078125 
z
" id="DejaVuSans-115"/>
       <path d="M 18.3125 70.21875 
L 18.3125 54.6875 
L 36.8125 54.6875 
L 36.8125 47.703125 
L 18.3125 47.703125 
L 18.3125 18.015625 
Q 18.3125 11.328125 20.140625 9.421875 
Q 21.96875 7.515625 27.59375 7.515625 
L 36.8125 7.515625 
L 36.8125 0 
L 27.59375 0 
Q 17.1875 0 13.234375 3.875 
Q 9.28125 7.765625 9.28125 18.015625 
L 9.28125 47.703125 
L 2.6875 47.703125 
L 2.6875 54.6875 
L 9.28125 54.6875 
L 9.28125 70.21875 
z
" id="DejaVuSans-116"/>
      </defs>
      <use xlink:href="#DejaVuSans-83"/>
      <use x="63.476562" xlink:href="#DejaVuSans-112"/>
      <use x="126.953125" xlink:href="#DejaVuSans-101"/>
      <use x="188.476562" xlink:href="#DejaVuSans-97"/>
      <use x="249.755859" xlink:href="#DejaVuSans-114"/>
      <use x="289.119141" xlink:href="#DejaVuSans-109"/>
      <use x="386.53125" xlink:href="#DejaVuSans-97"/>
      <use x="447.810547" xlink:href="#DejaVuSans-110"/>
      <use x="511.189453" xlink:href="#DejaVuSans-45"/>
      <use x="543.648438" xlink:href="#DejaVuSans-66"/>
      <use x="612.251953" xlink:href="#DejaVuSans-114"/>
      <use x="651.115234" xlink:href="#DejaVuSans-111"/>
      <use x="712.296875" xlink:href="#DejaVuSans-119"/>
      <use x="794.083984" xlink:href="#DejaVuSans-110"/>
      <use x="857.462891" xlink:href="#DejaVuSans-32"/>
      <use x="889.25" xlink:href="#DejaVuSans-97"/>
      <use x="950.529297" xlink:href="#DejaVuSans-100"/>
      <use x="1014.005859" xlink:href="#DejaVuSans-106"/>
      <use x="1041.789062" xlink:href="#DejaVuSans-117"/>
      <use x="1105.167969" xlink:href="#DejaVuSans-115"/>
      <use x="1157.267578" xlink:href="#DejaVuSans-116"/>
      <use x="1196.476562" xlink:href="#DejaVuSans-101"/>
      <use x="1258" xlink:href="#DejaVuSans-100"/>
      <use x="1321.476562" xlink:href="#DejaVuSans-32"/>
     </g>
     <!--  Pearson correlations -->
     <g transform="translate(228.820313 344.746875)scale(0.25 -0.25)">
      <defs>
       <path d="M 19.671875 64.796875 
L 19.671875 37.40625 
L 32.078125 37.40625 
Q 38.96875 37.40625 42.71875 40.96875 
Q 46.484375 44.53125 46.484375 51.125 
Q 46.484375 57.671875 42.71875 61.234375 
Q 38.96875 64.796875 32.078125 64.796875 
z
M 9.8125 72.90625 
L 32.078125 72.90625 
Q 44.34375 72.90625 50.609375 67.359375 
Q 56.890625 61.8125 56.890625 51.125 
Q 56.890625 40.328125 50.609375 34.8125 
Q 44.34375 29.296875 32.078125 29.296875 
L 19.671875 29.296875 
L 19.671875 0 
L 9.8125 0 
z
" id="DejaVuSans-80"/>
       <path d="M 48.78125 52.59375 
L 48.78125 44.1875 
Q 44.96875 46.296875 41.140625 47.34375 
Q 37.3125 48.390625 33.40625 48.390625 
Q 24.65625 48.390625 19.8125 42.84375 
Q 14.984375 37.3125 14.984375 27.296875 
Q 14.984375 17.28125 19.8125 11.734375 
Q 24.65625 6.203125 33.40625 6.203125 
Q 37.3125 6.203125 41.140625 7.25 
Q 44.96875 8.296875 48.78125 10.40625 
L 48.78125 2.09375 
Q 45.015625 0.34375 40.984375 -0.53125 
Q 36.96875 -1.421875 32.421875 -1.421875 
Q 20.0625 -1.421875 12.78125 6.34375 
Q 5.515625 14.109375 5.515625 27.296875 
Q 5.515625 40.671875 12.859375 48.328125 
Q 20.21875 56 33.015625 56 
Q 37.15625 56 41.109375 55.140625 
Q 45.0625 54.296875 48.78125 52.59375 
z
" id="DejaVuSans-99"/>
       <path d="M 9.421875 75.984375 
L 18.40625 75.984375 
L 18.40625 0 
L 9.421875 0 
z
" id="DejaVuSans-108"/>
       <path d="M 9.421875 54.6875 
L 18.40625 54.6875 
L 18.40625 0 
L 9.421875 0 
z
M 9.421875 75.984375 
L 18.40625 75.984375 
L 18.40625 64.59375 
L 9.421875 64.59375 
z
" id="DejaVuSans-105"/>
      </defs>
      <use xlink:href="#DejaVuSans-32"/>
      <use x="31.787109" xlink:href="#DejaVuSans-80"/>
      <use x="88.464844" xlink:href="#DejaVuSans-101"/>
      <use x="149.988281" xlink:href="#DejaVuSans-97"/>
      <use x="211.267578" xlink:href="#DejaVuSans-114"/>
      <use x="252.380859" xlink:href="#DejaVuSans-115"/>
      <use x="304.480469" xlink:href="#DejaVuSans-111"/>
      <use x="365.662109" xlink:href="#DejaVuSans-110"/>
      <use x="429.041016" xlink:href="#DejaVuSans-32"/>
      <use x="460.828125" xlink:href="#DejaVuSans-99"/>
      <use x="515.808594" xlink:href="#DejaVuSans-111"/>
      <use x="576.990234" xlink:href="#DejaVuSans-114"/>
      <use x="616.353516" xlink:href="#DejaVuSans-114"/>
      <use x="655.216797" xlink:href="#DejaVuSans-101"/>
      <use x="716.740234" xlink:href="#DejaVuSans-108"/>
      <use x="744.523438" xlink:href="#DejaVuSans-97"/>
      <use x="805.802734" xlink:href="#DejaVuSans-116"/>
      <use x="845.011719" xlink:href="#DejaVuSans-105"/>
      <use x="872.794922" xlink:href="#DejaVuSans-111"/>
      <use x="933.976562" xlink:href="#DejaVuSans-110"/>
      <use x="997.355469" xlink:href="#DejaVuSans-115"/>
     </g>
    </g>
   </g>
   <g id="matplotlib.axis_2">
    <g id="ytick_1">
     <g id="line2d_6">
      <defs>
       <path d="M 0 0 
L -3.5 0 
" id="m0e3b5793b8" style="stroke:#000000;stroke-width:0.8;"/>
      </defs>
      <g>
       <use style="stroke:#000000;stroke-width:0.8;" x="10.8" xlink:href="#m0e3b5793b8" y="220.745455"/>
      </g>
     </g>
    </g>
   </g>
   <g id="patch_3">
    <path d="M 10.8 220.745455 
L 10.8 220.745455 
" style="fill:none;stroke:#000000;stroke-linecap:square;stroke-linejoin:miter;stroke-width:0.8;"/>
   </g>
   <g id="patch_4">
    <path d="M 42.545455 267.4 
L 662.591141 267.4 
" style="fill:none;stroke:#000000;stroke-linecap:square;stroke-linejoin:miter;stroke-width:0.8;"/>
   </g>
   <g id="line2d_7">
    <path clip-path="url(#p0f5aee29fa)" d="M 42.545455 220.745455 
L 42.545455 220.745455 
" style="fill:none;stroke:#000000;stroke-linecap:square;stroke-width:2;"/>
   </g>
   <g id="line2d_8">
    <path clip-path="url(#p0f5aee29fa)" d="M 216.053003 220.745455 
L 476.030099 220.745455 
" style="fill:none;stroke:#000000;stroke-linecap:square;stroke-width:2;"/>
   </g>
   <g id="line2d_9">
    <path clip-path="url(#p0f5aee29fa)" d="M 42.545455 209.081818 
L 42.545455 232.409091 
" style="fill:none;stroke:#000000;stroke-linecap:square;stroke-width:1.5;"/>
   </g>
   <g id="line2d_10">
    <path clip-path="url(#p0f5aee29fa)" d="M 476.030099 209.081818 
L 476.030099 232.409091 
" style="fill:none;stroke:#000000;stroke-linecap:square;stroke-width:1.5;"/>
   </g>
   <g id="line2d_11">
    <defs>
     <path d="M -0 3.535534 
L 2.12132 0 
L -0 -3.535534 
L -2.12132 -0 
z
" id="mbad9f493ad" style="stroke:#000000;stroke-linejoin:miter;"/>
    </defs>
    <g clip-path="url(#p0f5aee29fa)">
     <use style="stroke:#000000;stroke-linejoin:miter;" x="479.801586" xlink:href="#mbad9f493ad" y="220.745455"/>
     <use style="stroke:#000000;stroke-linejoin:miter;" x="488.833154" xlink:href="#mbad9f493ad" y="220.745455"/>
     <use style="stroke:#000000;stroke-linejoin:miter;" x="481.059316" xlink:href="#mbad9f493ad" y="220.745455"/>
     <use style="stroke:#000000;stroke-linejoin:miter;" x="476.714587" xlink:href="#mbad9f493ad" y="220.745455"/>
     <use style="stroke:#000000;stroke-linejoin:miter;" x="489.795398" xlink:href="#mbad9f493ad" y="220.745455"/>
     <use style="stroke:#000000;stroke-linejoin:miter;" x="477.44579" xlink:href="#mbad9f493ad" y="220.745455"/>
     <use style="stroke:#000000;stroke-linejoin:miter;" x="476.743484" xlink:href="#mbad9f493ad" y="220.745455"/>
     <use style="stroke:#000000;stroke-linejoin:miter;" x="527.725873" xlink:href="#mbad9f493ad" y="220.745455"/>
     <use style="stroke:#000000;stroke-linejoin:miter;" x="484.190912" xlink:href="#mbad9f493ad" y="220.745455"/>
     <use style="stroke:#000000;stroke-linejoin:miter;" x="500.816853" xlink:href="#mbad9f493ad" y="220.745455"/>
     <use style="stroke:#000000;stroke-linejoin:miter;" x="515.183863" xlink:href="#mbad9f493ad" y="220.745455"/>
     <use style="stroke:#000000;stroke-linejoin:miter;" x="481.43939" xlink:href="#mbad9f493ad" y="220.745455"/>
     <use style="stroke:#000000;stroke-linejoin:miter;" x="491.8515" xlink:href="#mbad9f493ad" y="220.745455"/>
     <use style="stroke:#000000;stroke-linejoin:miter;" x="500.475186" xlink:href="#mbad9f493ad" y="220.745455"/>
     <use style="stroke:#000000;stroke-linejoin:miter;" x="494.764834" xlink:href="#mbad9f493ad" y="220.745455"/>
     <use style="stroke:#000000;stroke-linejoin:miter;" x="489.450173" xlink:href="#mbad9f493ad" y="220.745455"/>
     <use style="stroke:#000000;stroke-linejoin:miter;" x="481.322664" xlink:href="#mbad9f493ad" y="220.745455"/>
     <use style="stroke:#000000;stroke-linejoin:miter;" x="482.129945" xlink:href="#mbad9f493ad" y="220.745455"/>
     <use style="stroke:#000000;stroke-linejoin:miter;" x="488.916204" xlink:href="#mbad9f493ad" y="220.745455"/>
     <use style="stroke:#000000;stroke-linejoin:miter;" x="504.594148" xlink:href="#mbad9f493ad" y="220.745455"/>
     <use style="stroke:#000000;stroke-linejoin:miter;" x="524.643081" xlink:href="#mbad9f493ad" y="220.745455"/>
     <use style="stroke:#000000;stroke-linejoin:miter;" x="517.505023" xlink:href="#mbad9f493ad" y="220.745455"/>
     <use style="stroke:#000000;stroke-linejoin:miter;" x="496.106548" xlink:href="#mbad9f493ad" y="220.745455"/>
     <use style="stroke:#000000;stroke-linejoin:miter;" x="491.8442" xlink:href="#mbad9f493ad" y="220.745455"/>
     <use style="stroke:#000000;stroke-linejoin:miter;" x="524.484391" xlink:href="#mbad9f493ad" y="220.745455"/>
     <use style="stroke:#000000;stroke-linejoin:miter;" x="500.958066" xlink:href="#mbad9f493ad" y="220.745455"/>
     <use style="stroke:#000000;stroke-linejoin:miter;" x="481.396896" xlink:href="#mbad9f493ad" y="220.745455"/>
     <use style="stroke:#000000;stroke-linejoin:miter;" x="480.099099" xlink:href="#mbad9f493ad" y="220.745455"/>
     <use style="stroke:#000000;stroke-linejoin:miter;" x="483.60046" xlink:href="#mbad9f493ad" y="220.745455"/>
     <use style="stroke:#000000;stroke-linejoin:miter;" x="484.008512" xlink:href="#mbad9f493ad" y="220.745455"/>
     <use style="stroke:#000000;stroke-linejoin:miter;" x="479.503459" xlink:href="#mbad9f493ad" y="220.745455"/>
     <use style="stroke:#000000;stroke-linejoin:miter;" x="649.153692" xlink:href="#mbad9f493ad" y="220.745455"/>
     <use style="stroke:#000000;stroke-linejoin:miter;" x="607.10127" xlink:href="#mbad9f493ad" y="220.745455"/>
     <use style="stroke:#000000;stroke-linejoin:miter;" x="491.87817" xlink:href="#mbad9f493ad" y="220.745455"/>
     <use style="stroke:#000000;stroke-linejoin:miter;" x="528.908699" xlink:href="#mbad9f493ad" y="220.745455"/>
     <use style="stroke:#000000;stroke-linejoin:miter;" x="497.157448" xlink:href="#mbad9f493ad" y="220.745455"/>
     <use style="stroke:#000000;stroke-linejoin:miter;" x="479.817197" xlink:href="#mbad9f493ad" y="220.745455"/>
     <use style="stroke:#000000;stroke-linejoin:miter;" x="489.42175" xlink:href="#mbad9f493ad" y="220.745455"/>
     <use style="stroke:#000000;stroke-linejoin:miter;" x="541.703602" xlink:href="#mbad9f493ad" y="220.745455"/>
     <use style="stroke:#000000;stroke-linejoin:miter;" x="595.689078" xlink:href="#mbad9f493ad" y="220.745455"/>
     <use style="stroke:#000000;stroke-linejoin:miter;" x="642.936328" xlink:href="#mbad9f493ad" y="220.745455"/>
     <use style="stroke:#000000;stroke-linejoin:miter;" x="677.454545" xlink:href="#mbad9f493ad" y="220.745455"/>
     <use style="stroke:#000000;stroke-linejoin:miter;" x="612.0855" xlink:href="#mbad9f493ad" y="220.745455"/>
     <use style="stroke:#000000;stroke-linejoin:miter;" x="649.415649" xlink:href="#mbad9f493ad" y="220.745455"/>
     <use style="stroke:#000000;stroke-linejoin:miter;" x="546.294863" xlink:href="#mbad9f493ad" y="220.745455"/>
     <use style="stroke:#000000;stroke-linejoin:miter;" x="486.108192" xlink:href="#mbad9f493ad" y="220.745455"/>
     <use style="stroke:#000000;stroke-linejoin:miter;" x="532.995049" xlink:href="#mbad9f493ad" y="220.745455"/>
     <use style="stroke:#000000;stroke-linejoin:miter;" x="506.703083" xlink:href="#mbad9f493ad" y="220.745455"/>
     <use style="stroke:#000000;stroke-linejoin:miter;" x="476.761928" xlink:href="#mbad9f493ad" y="220.745455"/>
     <use style="stroke:#000000;stroke-linejoin:miter;" x="521.454554" xlink:href="#mbad9f493ad" y="220.745455"/>
     <use style="stroke:#000000;stroke-linejoin:miter;" x="481.35125" xlink:href="#mbad9f493ad" y="220.745455"/>
     <use style="stroke:#000000;stroke-linejoin:miter;" x="481.852181" xlink:href="#mbad9f493ad" y="220.745455"/>
     <use style="stroke:#000000;stroke-linejoin:miter;" x="557.784785" xlink:href="#mbad9f493ad" y="220.745455"/>
     <use style="stroke:#000000;stroke-linejoin:miter;" x="597.189307" xlink:href="#mbad9f493ad" y="220.745455"/>
     <use style="stroke:#000000;stroke-linejoin:miter;" x="657.523234" xlink:href="#mbad9f493ad" y="220.745455"/>
     <use style="stroke:#000000;stroke-linejoin:miter;" x="566.028838" xlink:href="#mbad9f493ad" y="220.745455"/>
     <use style="stroke:#000000;stroke-linejoin:miter;" x="546.600012" xlink:href="#mbad9f493ad" y="220.745455"/>
     <use style="stroke:#000000;stroke-linejoin:miter;" x="604.92476" xlink:href="#mbad9f493ad" y="220.745455"/>
     <use style="stroke:#000000;stroke-linejoin:miter;" x="501.556002" xlink:href="#mbad9f493ad" y="220.745455"/>
     <use style="stroke:#000000;stroke-linejoin:miter;" x="482.032659" xlink:href="#mbad9f493ad" y="220.745455"/>
     <use style="stroke:#000000;stroke-linejoin:miter;" x="506.206392" xlink:href="#mbad9f493ad" y="220.745455"/>
     <use style="stroke:#000000;stroke-linejoin:miter;" x="568.795243" xlink:href="#mbad9f493ad" y="220.745455"/>
     <use style="stroke:#000000;stroke-linejoin:miter;" x="491.815578" xlink:href="#mbad9f493ad" y="220.745455"/>
     <use style="stroke:#000000;stroke-linejoin:miter;" x="480.373502" xlink:href="#mbad9f493ad" y="220.745455"/>
     <use style="stroke:#000000;stroke-linejoin:miter;" x="476.882412" xlink:href="#mbad9f493ad" y="220.745455"/>
     <use style="stroke:#000000;stroke-linejoin:miter;" x="486.987451" xlink:href="#mbad9f493ad" y="220.745455"/>
     <use style="stroke:#000000;stroke-linejoin:miter;" x="479.007347" xlink:href="#mbad9f493ad" y="220.745455"/>
     <use style="stroke:#000000;stroke-linejoin:miter;" x="480.142462" xlink:href="#mbad9f493ad" y="220.745455"/>
     <use style="stroke:#000000;stroke-linejoin:miter;" x="512.835345" xlink:href="#mbad9f493ad" y="220.745455"/>
     <use style="stroke:#000000;stroke-linejoin:miter;" x="498.613271" xlink:href="#mbad9f493ad" y="220.745455"/>
     <use style="stroke:#000000;stroke-linejoin:miter;" x="483.873105" xlink:href="#mbad9f493ad" y="220.745455"/>
     <use style="stroke:#000000;stroke-linejoin:miter;" x="485.513166" xlink:href="#mbad9f493ad" y="220.745455"/>
     <use style="stroke:#000000;stroke-linejoin:miter;" x="502.007017" xlink:href="#mbad9f493ad" y="220.745455"/>
     <use style="stroke:#000000;stroke-linejoin:miter;" x="477.923089" xlink:href="#mbad9f493ad" y="220.745455"/>
     <use style="stroke:#000000;stroke-linejoin:miter;" x="479.08554" xlink:href="#mbad9f493ad" y="220.745455"/>
     <use style="stroke:#000000;stroke-linejoin:miter;" x="477.741942" xlink:href="#mbad9f493ad" y="220.745455"/>
     <use style="stroke:#000000;stroke-linejoin:miter;" x="496.412764" xlink:href="#mbad9f493ad" y="220.745455"/>
     <use style="stroke:#000000;stroke-linejoin:miter;" x="487.250476" xlink:href="#mbad9f493ad" y="220.745455"/>
     <use style="stroke:#000000;stroke-linejoin:miter;" x="495.101867" xlink:href="#mbad9f493ad" y="220.745455"/>
     <use style="stroke:#000000;stroke-linejoin:miter;" x="478.655851" xlink:href="#mbad9f493ad" y="220.745455"/>
     <use style="stroke:#000000;stroke-linejoin:miter;" x="479.799004" xlink:href="#mbad9f493ad" y="220.745455"/>
     <use style="stroke:#000000;stroke-linejoin:miter;" x="476.720713" xlink:href="#mbad9f493ad" y="220.745455"/>
     <use style="stroke:#000000;stroke-linejoin:miter;" x="482.745094" xlink:href="#mbad9f493ad" y="220.745455"/>
     <use style="stroke:#000000;stroke-linejoin:miter;" x="478.060992" xlink:href="#mbad9f493ad" y="220.745455"/>
     <use style="stroke:#000000;stroke-linejoin:miter;" x="484.260176" xlink:href="#mbad9f493ad" y="220.745455"/>
     <use style="stroke:#000000;stroke-linejoin:miter;" x="486.52258" xlink:href="#mbad9f493ad" y="220.745455"/>
     <use style="stroke:#000000;stroke-linejoin:miter;" x="563.818819" xlink:href="#mbad9f493ad" y="220.745455"/>
     <use style="stroke:#000000;stroke-linejoin:miter;" x="510.470409" xlink:href="#mbad9f493ad" y="220.745455"/>
     <use style="stroke:#000000;stroke-linejoin:miter;" x="504.376363" xlink:href="#mbad9f493ad" y="220.745455"/>
     <use style="stroke:#000000;stroke-linejoin:miter;" x="501.095946" xlink:href="#mbad9f493ad" y="220.745455"/>
     <use style="stroke:#000000;stroke-linejoin:miter;" x="532.380681" xlink:href="#mbad9f493ad" y="220.745455"/>
     <use style="stroke:#000000;stroke-linejoin:miter;" x="540.323053" xlink:href="#mbad9f493ad" y="220.745455"/>
     <use style="stroke:#000000;stroke-linejoin:miter;" x="478.443204" xlink:href="#mbad9f493ad" y="220.745455"/>
     <use style="stroke:#000000;stroke-linejoin:miter;" x="498.048528" xlink:href="#mbad9f493ad" y="220.745455"/>
     <use style="stroke:#000000;stroke-linejoin:miter;" x="506.190261" xlink:href="#mbad9f493ad" y="220.745455"/>
     <use style="stroke:#000000;stroke-linejoin:miter;" x="496.856064" xlink:href="#mbad9f493ad" y="220.745455"/>
     <use style="stroke:#000000;stroke-linejoin:miter;" x="550.784046" xlink:href="#mbad9f493ad" y="220.745455"/>
     <use style="stroke:#000000;stroke-linejoin:miter;" x="477.177452" xlink:href="#mbad9f493ad" y="220.745455"/>
     <use style="stroke:#000000;stroke-linejoin:miter;" x="504.279248" xlink:href="#mbad9f493ad" y="220.745455"/>
     <use style="stroke:#000000;stroke-linejoin:miter;" x="485.738425" xlink:href="#mbad9f493ad" y="220.745455"/>
     <use style="stroke:#000000;stroke-linejoin:miter;" x="520.077406" xlink:href="#mbad9f493ad" y="220.745455"/>
     <use style="stroke:#000000;stroke-linejoin:miter;" x="506.70839" xlink:href="#mbad9f493ad" y="220.745455"/>
     <use style="stroke:#000000;stroke-linejoin:miter;" x="517.406088" xlink:href="#mbad9f493ad" y="220.745455"/>
     <use style="stroke:#000000;stroke-linejoin:miter;" x="481.91054" xlink:href="#mbad9f493ad" y="220.745455"/>
     <use style="stroke:#000000;stroke-linejoin:miter;" x="493.518361" xlink:href="#mbad9f493ad" y="220.745455"/>
     <use style="stroke:#000000;stroke-linejoin:miter;" x="489.491638" xlink:href="#mbad9f493ad" y="220.745455"/>
     <use style="stroke:#000000;stroke-linejoin:miter;" x="506.499392" xlink:href="#mbad9f493ad" y="220.745455"/>
     <use style="stroke:#000000;stroke-linejoin:miter;" x="488.844301" xlink:href="#mbad9f493ad" y="220.745455"/>
     <use style="stroke:#000000;stroke-linejoin:miter;" x="511.429661" xlink:href="#mbad9f493ad" y="220.745455"/>
     <use style="stroke:#000000;stroke-linejoin:miter;" x="501.223672" xlink:href="#mbad9f493ad" y="220.745455"/>
     <use style="stroke:#000000;stroke-linejoin:miter;" x="503.218465" xlink:href="#mbad9f493ad" y="220.745455"/>
     <use style="stroke:#000000;stroke-linejoin:miter;" x="508.7836" xlink:href="#mbad9f493ad" y="220.745455"/>
     <use style="stroke:#000000;stroke-linejoin:miter;" x="482.912441" xlink:href="#mbad9f493ad" y="220.745455"/>
     <use style="stroke:#000000;stroke-linejoin:miter;" x="506.552763" xlink:href="#mbad9f493ad" y="220.745455"/>
     <use style="stroke:#000000;stroke-linejoin:miter;" x="495.032217" xlink:href="#mbad9f493ad" y="220.745455"/>
     <use style="stroke:#000000;stroke-linejoin:miter;" x="499.847609" xlink:href="#mbad9f493ad" y="220.745455"/>
     <use style="stroke:#000000;stroke-linejoin:miter;" x="494.000711" xlink:href="#mbad9f493ad" y="220.745455"/>
     <use style="stroke:#000000;stroke-linejoin:miter;" x="500.250447" xlink:href="#mbad9f493ad" y="220.745455"/>
     <use style="stroke:#000000;stroke-linejoin:miter;" x="486.630114" xlink:href="#mbad9f493ad" y="220.745455"/>
     <use style="stroke:#000000;stroke-linejoin:miter;" x="492.383801" xlink:href="#mbad9f493ad" y="220.745455"/>
     <use style="stroke:#000000;stroke-linejoin:miter;" x="488.071311" xlink:href="#mbad9f493ad" y="220.745455"/>
     <use style="stroke:#000000;stroke-linejoin:miter;" x="495.415762" xlink:href="#mbad9f493ad" y="220.745455"/>
     <use style="stroke:#000000;stroke-linejoin:miter;" x="486.566788" xlink:href="#mbad9f493ad" y="220.745455"/>
     <use style="stroke:#000000;stroke-linejoin:miter;" x="482.39842" xlink:href="#mbad9f493ad" y="220.745455"/>
     <use style="stroke:#000000;stroke-linejoin:miter;" x="508.027071" xlink:href="#mbad9f493ad" y="220.745455"/>
     <use style="stroke:#000000;stroke-linejoin:miter;" x="508.59955" xlink:href="#mbad9f493ad" y="220.745455"/>
     <use style="stroke:#000000;stroke-linejoin:miter;" x="477.476418" xlink:href="#mbad9f493ad" y="220.745455"/>
     <use style="stroke:#000000;stroke-linejoin:miter;" x="502.160022" xlink:href="#mbad9f493ad" y="220.745455"/>
     <use style="stroke:#000000;stroke-linejoin:miter;" x="493.438201" xlink:href="#mbad9f493ad" y="220.745455"/>
     <use style="stroke:#000000;stroke-linejoin:miter;" x="499.376642" xlink:href="#mbad9f493ad" y="220.745455"/>
     <use style="stroke:#000000;stroke-linejoin:miter;" x="489.584938" xlink:href="#mbad9f493ad" y="220.745455"/>
     <use style="stroke:#000000;stroke-linejoin:miter;" x="508.690112" xlink:href="#mbad9f493ad" y="220.745455"/>
     <use style="stroke:#000000;stroke-linejoin:miter;" x="513.277283" xlink:href="#mbad9f493ad" y="220.745455"/>
     <use style="stroke:#000000;stroke-linejoin:miter;" x="481.89766" xlink:href="#mbad9f493ad" y="220.745455"/>
     <use style="stroke:#000000;stroke-linejoin:miter;" x="491.680449" xlink:href="#mbad9f493ad" y="220.745455"/>
     <use style="stroke:#000000;stroke-linejoin:miter;" x="477.209931" xlink:href="#mbad9f493ad" y="220.745455"/>
     <use style="stroke:#000000;stroke-linejoin:miter;" x="493.504916" xlink:href="#mbad9f493ad" y="220.745455"/>
     <use style="stroke:#000000;stroke-linejoin:miter;" x="504.59808" xlink:href="#mbad9f493ad" y="220.745455"/>
     <use style="stroke:#000000;stroke-linejoin:miter;" x="495.055725" xlink:href="#mbad9f493ad" y="220.745455"/>
     <use style="stroke:#000000;stroke-linejoin:miter;" x="506.128823" xlink:href="#mbad9f493ad" y="220.745455"/>
     <use style="stroke:#000000;stroke-linejoin:miter;" x="512.153889" xlink:href="#mbad9f493ad" y="220.745455"/>
     <use style="stroke:#000000;stroke-linejoin:miter;" x="488.006281" xlink:href="#mbad9f493ad" y="220.745455"/>
     <use style="stroke:#000000;stroke-linejoin:miter;" x="478.349961" xlink:href="#mbad9f493ad" y="220.745455"/>
     <use style="stroke:#000000;stroke-linejoin:miter;" x="476.974513" xlink:href="#mbad9f493ad" y="220.745455"/>
     <use style="stroke:#000000;stroke-linejoin:miter;" x="480.955019" xlink:href="#mbad9f493ad" y="220.745455"/>
     <use style="stroke:#000000;stroke-linejoin:miter;" x="486.784437" xlink:href="#mbad9f493ad" y="220.745455"/>
     <use style="stroke:#000000;stroke-linejoin:miter;" x="507.403842" xlink:href="#mbad9f493ad" y="220.745455"/>
     <use style="stroke:#000000;stroke-linejoin:miter;" x="495.758936" xlink:href="#mbad9f493ad" y="220.745455"/>
     <use style="stroke:#000000;stroke-linejoin:miter;" x="488.524559" xlink:href="#mbad9f493ad" y="220.745455"/>
     <use style="stroke:#000000;stroke-linejoin:miter;" x="484.162126" xlink:href="#mbad9f493ad" y="220.745455"/>
     <use style="stroke:#000000;stroke-linejoin:miter;" x="485.31195" xlink:href="#mbad9f493ad" y="220.745455"/>
     <use style="stroke:#000000;stroke-linejoin:miter;" x="487.727797" xlink:href="#mbad9f493ad" y="220.745455"/>
     <use style="stroke:#000000;stroke-linejoin:miter;" x="512.105424" xlink:href="#mbad9f493ad" y="220.745455"/>
     <use style="stroke:#000000;stroke-linejoin:miter;" x="484.849328" xlink:href="#mbad9f493ad" y="220.745455"/>
     <use style="stroke:#000000;stroke-linejoin:miter;" x="499.255197" xlink:href="#mbad9f493ad" y="220.745455"/>
     <use style="stroke:#000000;stroke-linejoin:miter;" x="504.841197" xlink:href="#mbad9f493ad" y="220.745455"/>
     <use style="stroke:#000000;stroke-linejoin:miter;" x="476.979667" xlink:href="#mbad9f493ad" y="220.745455"/>
     <use style="stroke:#000000;stroke-linejoin:miter;" x="502.249478" xlink:href="#mbad9f493ad" y="220.745455"/>
     <use style="stroke:#000000;stroke-linejoin:miter;" x="505.33167" xlink:href="#mbad9f493ad" y="220.745455"/>
     <use style="stroke:#000000;stroke-linejoin:miter;" x="495.4464" xlink:href="#mbad9f493ad" y="220.745455"/>
     <use style="stroke:#000000;stroke-linejoin:miter;" x="512.461789" xlink:href="#mbad9f493ad" y="220.745455"/>
     <use style="stroke:#000000;stroke-linejoin:miter;" x="486.911859" xlink:href="#mbad9f493ad" y="220.745455"/>
     <use style="stroke:#000000;stroke-linejoin:miter;" x="480.554784" xlink:href="#mbad9f493ad" y="220.745455"/>
     <use style="stroke:#000000;stroke-linejoin:miter;" x="507.259982" xlink:href="#mbad9f493ad" y="220.745455"/>
     <use style="stroke:#000000;stroke-linejoin:miter;" x="490.548475" xlink:href="#mbad9f493ad" y="220.745455"/>
     <use style="stroke:#000000;stroke-linejoin:miter;" x="497.535828" xlink:href="#mbad9f493ad" y="220.745455"/>
     <use style="stroke:#000000;stroke-linejoin:miter;" x="478.232067" xlink:href="#mbad9f493ad" y="220.745455"/>
     <use style="stroke:#000000;stroke-linejoin:miter;" x="492.901728" xlink:href="#mbad9f493ad" y="220.745455"/>
     <use style="stroke:#000000;stroke-linejoin:miter;" x="537.316083" xlink:href="#mbad9f493ad" y="220.745455"/>
     <use style="stroke:#000000;stroke-linejoin:miter;" x="481.620419" xlink:href="#mbad9f493ad" y="220.745455"/>
     <use style="stroke:#000000;stroke-linejoin:miter;" x="478.811334" xlink:href="#mbad9f493ad" y="220.745455"/>
     <use style="stroke:#000000;stroke-linejoin:miter;" x="479.990041" xlink:href="#mbad9f493ad" y="220.745455"/>
    </g>
   </g>
   <g id="patch_5">
    <path clip-path="url(#p0f5aee29fa)" d="M 42.545455 197.418182 
L 42.545455 244.072727 
L 216.053003 244.072727 
L 216.053003 197.418182 
L 42.545455 197.418182 
z
" style="fill:none;stroke:#000000;stroke-linejoin:miter;stroke-width:1.5;"/>
   </g>
   <g id="line2d_12">
    <path clip-path="url(#p0f5aee29fa)" d="M 130.686493 197.418182 
L 130.686493 244.072727 
" style="fill:none;stroke:#000000;stroke-linecap:square;stroke-width:1.5;"/>
   </g>
  </g>
 </g>
 <defs>
  <clipPath id="p0f5aee29fa">
   <rect height="256.6" width="698.4" x="10.8" y="10.8"/>
  </clipPath>
 </defs>
</svg>
