<?xml version="1.0" encoding="utf-8" standalone="no"?>
<!DOCTYPE svg PUBLIC "-//W3C//DTD SVG 1.1//EN"
  "http://www.w3.org/Graphics/SVG/1.1/DTD/svg11.dtd">
<!-- Created with matplotlib (https://matplotlib.org/) -->
<svg height="504pt" version="1.1" viewBox="0 0 1080 504" width="1080pt" xmlns="http://www.w3.org/2000/svg" xmlns:xlink="http://www.w3.org/1999/xlink">
 <metadata>
  <rdf:RDF xmlns:cc="http://creativecommons.org/ns#" xmlns:dc="http://purl.org/dc/elements/1.1/" xmlns:rdf="http://www.w3.org/1999/02/22-rdf-syntax-ns#">
   <cc:Work>
    <dc:type rdf:resource="http://purl.org/dc/dcmitype/StillImage"/>
    <dc:date>2021-03-23T16:22:15.221976</dc:date>
    <dc:format>image/svg+xml</dc:format>
    <dc:creator>
     <cc:Agent>
      <dc:title>Matplotlib v3.3.2, https://matplotlib.org/</dc:title>
     </cc:Agent>
    </dc:creator>
   </cc:Work>
  </rdf:RDF>
 </metadata>
 <defs>
  <style type="text/css">*{stroke-linecap:butt;stroke-linejoin:round;}</style>
 </defs>
 <g id="figure_1">
  <g id="patch_1">
   <path d="M 0 504 
L 1080 504 
L 1080 0 
L 0 0 
z
" style="fill:none;"/>
  </g>
  <g id="axes_1">
   <g id="patch_2">
    <path d="M 88.55 439.2 
L 535.35 439.2 
L 535.35 82.28 
L 88.55 82.28 
z
" style="fill:#ffffff;"/>
   </g>
   <g id="matplotlib.axis_1">
    <g id="xtick_1">
     <g id="line2d_1">
      <defs>
       <path d="M 0 0 
L 0 3.5 
" id="mbf4aeba611" style="stroke:#000000;stroke-width:0.8;"/>
      </defs>
      <g>
       <use style="stroke:#000000;stroke-width:0.8;" x="133.656238" xlink:href="#mbf4aeba611" y="439.2"/>
      </g>
     </g>
     <g id="text_1">
      <!-- 0.01 -->
      <g transform="translate(116.957019 457.597656)scale(0.15 -0.15)">
       <defs>
        <path d="M 31.78125 66.40625 
Q 24.171875 66.40625 20.328125 58.90625 
Q 16.5 51.421875 16.5 36.375 
Q 16.5 21.390625 20.328125 13.890625 
Q 24.171875 6.390625 31.78125 6.390625 
Q 39.453125 6.390625 43.28125 13.890625 
Q 47.125 21.390625 47.125 36.375 
Q 47.125 51.421875 43.28125 58.90625 
Q 39.453125 66.40625 31.78125 66.40625 
z
M 31.78125 74.21875 
Q 44.046875 74.21875 50.515625 64.515625 
Q 56.984375 54.828125 56.984375 36.375 
Q 56.984375 17.96875 50.515625 8.265625 
Q 44.046875 -1.421875 31.78125 -1.421875 
Q 19.53125 -1.421875 13.0625 8.265625 
Q 6.59375 17.96875 6.59375 36.375 
Q 6.59375 54.828125 13.0625 64.515625 
Q 19.53125 74.21875 31.78125 74.21875 
z
" id="DejaVuSans-48"/>
        <path d="M 10.6875 12.40625 
L 21 12.40625 
L 21 0 
L 10.6875 0 
z
" id="DejaVuSans-46"/>
        <path d="M 12.40625 8.296875 
L 28.515625 8.296875 
L 28.515625 63.921875 
L 10.984375 60.40625 
L 10.984375 69.390625 
L 28.421875 72.90625 
L 38.28125 72.90625 
L 38.28125 8.296875 
L 54.390625 8.296875 
L 54.390625 0 
L 12.40625 0 
z
" id="DejaVuSans-49"/>
       </defs>
       <use xlink:href="#DejaVuSans-48"/>
       <use x="63.623047" xlink:href="#DejaVuSans-46"/>
       <use x="95.410156" xlink:href="#DejaVuSans-48"/>
       <use x="159.033203" xlink:href="#DejaVuSans-49"/>
      </g>
     </g>
    </g>
    <g id="xtick_2">
     <g id="line2d_2">
      <g>
       <use style="stroke:#000000;stroke-width:0.8;" x="267.554158" xlink:href="#mbf4aeba611" y="439.2"/>
      </g>
     </g>
     <g id="text_2">
      <!-- 0.1 -->
      <g transform="translate(255.626815 457.597656)scale(0.15 -0.15)">
       <use xlink:href="#DejaVuSans-48"/>
       <use x="63.623047" xlink:href="#DejaVuSans-46"/>
       <use x="95.410156" xlink:href="#DejaVuSans-49"/>
      </g>
     </g>
    </g>
    <g id="xtick_3">
     <g id="line2d_3">
      <g>
       <use style="stroke:#000000;stroke-width:0.8;" x="401.452079" xlink:href="#mbf4aeba611" y="439.2"/>
      </g>
     </g>
     <g id="text_3">
      <!-- 1 -->
      <g transform="translate(396.680204 457.597656)scale(0.15 -0.15)">
       <use xlink:href="#DejaVuSans-49"/>
      </g>
     </g>
    </g>
    <g id="xtick_4">
     <g id="line2d_4">
      <g>
       <use style="stroke:#000000;stroke-width:0.8;" x="535.35" xlink:href="#mbf4aeba611" y="439.2"/>
      </g>
     </g>
     <g id="text_4">
      <!-- 10 -->
      <g transform="translate(525.80625 457.597656)scale(0.15 -0.15)">
       <use xlink:href="#DejaVuSans-49"/>
       <use x="63.623047" xlink:href="#DejaVuSans-48"/>
      </g>
     </g>
    </g>
    <g id="xtick_5">
     <g id="line2d_5">
      <defs>
       <path d="M 0 0 
L 0 2 
" id="m65bb0e5b5b" style="stroke:#000000;stroke-width:0.6;"/>
      </defs>
      <g>
       <use style="stroke:#000000;stroke-width:0.6;" x="93.348947" xlink:href="#m65bb0e5b5b" y="439.2"/>
      </g>
     </g>
    </g>
    <g id="xtick_6">
     <g id="line2d_6">
      <g>
       <use style="stroke:#000000;stroke-width:0.6;" x="103.951151" xlink:href="#m65bb0e5b5b" y="439.2"/>
      </g>
     </g>
    </g>
    <g id="xtick_7">
     <g id="line2d_7">
      <g>
       <use style="stroke:#000000;stroke-width:0.6;" x="112.915187" xlink:href="#m65bb0e5b5b" y="439.2"/>
      </g>
     </g>
    </g>
    <g id="xtick_8">
     <g id="line2d_8">
      <g>
       <use style="stroke:#000000;stroke-width:0.6;" x="120.680188" xlink:href="#m65bb0e5b5b" y="439.2"/>
      </g>
     </g>
    </g>
    <g id="xtick_9">
     <g id="line2d_9">
      <g>
       <use style="stroke:#000000;stroke-width:0.6;" x="127.529405" xlink:href="#m65bb0e5b5b" y="439.2"/>
      </g>
     </g>
    </g>
    <g id="xtick_10">
     <g id="line2d_10">
      <g>
       <use style="stroke:#000000;stroke-width:0.6;" x="173.963528" xlink:href="#m65bb0e5b5b" y="439.2"/>
      </g>
     </g>
    </g>
    <g id="xtick_11">
     <g id="line2d_11">
      <g>
       <use style="stroke:#000000;stroke-width:0.6;" x="197.541782" xlink:href="#m65bb0e5b5b" y="439.2"/>
      </g>
     </g>
    </g>
    <g id="xtick_12">
     <g id="line2d_12">
      <g>
       <use style="stroke:#000000;stroke-width:0.6;" x="214.270819" xlink:href="#m65bb0e5b5b" y="439.2"/>
      </g>
     </g>
    </g>
    <g id="xtick_13">
     <g id="line2d_13">
      <g>
       <use style="stroke:#000000;stroke-width:0.6;" x="227.246868" xlink:href="#m65bb0e5b5b" y="439.2"/>
      </g>
     </g>
    </g>
    <g id="xtick_14">
     <g id="line2d_14">
      <g>
       <use style="stroke:#000000;stroke-width:0.6;" x="237.849072" xlink:href="#m65bb0e5b5b" y="439.2"/>
      </g>
     </g>
    </g>
    <g id="xtick_15">
     <g id="line2d_15">
      <g>
       <use style="stroke:#000000;stroke-width:0.6;" x="246.813108" xlink:href="#m65bb0e5b5b" y="439.2"/>
      </g>
     </g>
    </g>
    <g id="xtick_16">
     <g id="line2d_16">
      <g>
       <use style="stroke:#000000;stroke-width:0.6;" x="254.578109" xlink:href="#m65bb0e5b5b" y="439.2"/>
      </g>
     </g>
    </g>
    <g id="xtick_17">
     <g id="line2d_17">
      <g>
       <use style="stroke:#000000;stroke-width:0.6;" x="261.427326" xlink:href="#m65bb0e5b5b" y="439.2"/>
      </g>
     </g>
    </g>
    <g id="xtick_18">
     <g id="line2d_18">
      <g>
       <use style="stroke:#000000;stroke-width:0.6;" x="307.861449" xlink:href="#m65bb0e5b5b" y="439.2"/>
      </g>
     </g>
    </g>
    <g id="xtick_19">
     <g id="line2d_19">
      <g>
       <use style="stroke:#000000;stroke-width:0.6;" x="331.439702" xlink:href="#m65bb0e5b5b" y="439.2"/>
      </g>
     </g>
    </g>
    <g id="xtick_20">
     <g id="line2d_20">
      <g>
       <use style="stroke:#000000;stroke-width:0.6;" x="348.168739" xlink:href="#m65bb0e5b5b" y="439.2"/>
      </g>
     </g>
    </g>
    <g id="xtick_21">
     <g id="line2d_21">
      <g>
       <use style="stroke:#000000;stroke-width:0.6;" x="361.144789" xlink:href="#m65bb0e5b5b" y="439.2"/>
      </g>
     </g>
    </g>
    <g id="xtick_22">
     <g id="line2d_22">
      <g>
       <use style="stroke:#000000;stroke-width:0.6;" x="371.746993" xlink:href="#m65bb0e5b5b" y="439.2"/>
      </g>
     </g>
    </g>
    <g id="xtick_23">
     <g id="line2d_23">
      <g>
       <use style="stroke:#000000;stroke-width:0.6;" x="380.711029" xlink:href="#m65bb0e5b5b" y="439.2"/>
      </g>
     </g>
    </g>
    <g id="xtick_24">
     <g id="line2d_24">
      <g>
       <use style="stroke:#000000;stroke-width:0.6;" x="388.47603" xlink:href="#m65bb0e5b5b" y="439.2"/>
      </g>
     </g>
    </g>
    <g id="xtick_25">
     <g id="line2d_25">
      <g>
       <use style="stroke:#000000;stroke-width:0.6;" x="395.325246" xlink:href="#m65bb0e5b5b" y="439.2"/>
      </g>
     </g>
    </g>
    <g id="xtick_26">
     <g id="line2d_26">
      <g>
       <use style="stroke:#000000;stroke-width:0.6;" x="441.75937" xlink:href="#m65bb0e5b5b" y="439.2"/>
      </g>
     </g>
    </g>
    <g id="xtick_27">
     <g id="line2d_27">
      <g>
       <use style="stroke:#000000;stroke-width:0.6;" x="465.337623" xlink:href="#m65bb0e5b5b" y="439.2"/>
      </g>
     </g>
    </g>
    <g id="xtick_28">
     <g id="line2d_28">
      <g>
       <use style="stroke:#000000;stroke-width:0.6;" x="482.06666" xlink:href="#m65bb0e5b5b" y="439.2"/>
      </g>
     </g>
    </g>
    <g id="xtick_29">
     <g id="line2d_29">
      <g>
       <use style="stroke:#000000;stroke-width:0.6;" x="495.042709" xlink:href="#m65bb0e5b5b" y="439.2"/>
      </g>
     </g>
    </g>
    <g id="xtick_30">
     <g id="line2d_30">
      <g>
       <use style="stroke:#000000;stroke-width:0.6;" x="505.644914" xlink:href="#m65bb0e5b5b" y="439.2"/>
      </g>
     </g>
    </g>
    <g id="xtick_31">
     <g id="line2d_31">
      <g>
       <use style="stroke:#000000;stroke-width:0.6;" x="514.60895" xlink:href="#m65bb0e5b5b" y="439.2"/>
      </g>
     </g>
    </g>
    <g id="xtick_32">
     <g id="line2d_32">
      <g>
       <use style="stroke:#000000;stroke-width:0.6;" x="522.373951" xlink:href="#m65bb0e5b5b" y="439.2"/>
      </g>
     </g>
    </g>
    <g id="xtick_33">
     <g id="line2d_33">
      <g>
       <use style="stroke:#000000;stroke-width:0.6;" x="529.223167" xlink:href="#m65bb0e5b5b" y="439.2"/>
      </g>
     </g>
    </g>
    <g id="text_5">
     <!-- $\lambda$ -->
     <g transform="translate(304.45 483.713281)scale(0.25 -0.25)">
      <defs>
       <path d="M 36.71875 67.4375 
L 48.828125 0 
L 39.3125 0 
L 31.84375 40.4375 
L 5.125 0 
L -4.390625 0 
L 29.734375 52.4375 
L 28.03125 62.109375 
Q 26.953125 68.265625 21.734375 68.265625 
L 17.046875 68.265625 
L 18.5 75.984375 
L 24.21875 75.875 
Q 35.203125 75.734375 36.71875 67.4375 
z
" id="DejaVuSans-Oblique-955"/>
      </defs>
      <use transform="translate(0 0.015625)" xlink:href="#DejaVuSans-Oblique-955"/>
     </g>
    </g>
   </g>
   <g id="matplotlib.axis_2">
    <g id="ytick_1">
     <g id="line2d_34">
      <defs>
       <path d="M 0 0 
L -3.5 0 
" id="m99dbd40a04" style="stroke:#000000;stroke-width:0.8;"/>
      </defs>
      <g>
       <use style="stroke:#000000;stroke-width:0.8;" x="88.55" xlink:href="#m99dbd40a04" y="405.506557"/>
      </g>
     </g>
     <g id="text_6">
      <!-- 0.395 -->
      <g transform="translate(38.607813 411.205386)scale(0.15 -0.15)">
       <defs>
        <path d="M 40.578125 39.3125 
Q 47.65625 37.796875 51.625 33 
Q 55.609375 28.21875 55.609375 21.1875 
Q 55.609375 10.40625 48.1875 4.484375 
Q 40.765625 -1.421875 27.09375 -1.421875 
Q 22.515625 -1.421875 17.65625 -0.515625 
Q 12.796875 0.390625 7.625 2.203125 
L 7.625 11.71875 
Q 11.71875 9.328125 16.59375 8.109375 
Q 21.484375 6.890625 26.8125 6.890625 
Q 36.078125 6.890625 40.9375 10.546875 
Q 45.796875 14.203125 45.796875 21.1875 
Q 45.796875 27.640625 41.28125 31.265625 
Q 36.765625 34.90625 28.71875 34.90625 
L 20.21875 34.90625 
L 20.21875 43.015625 
L 29.109375 43.015625 
Q 36.375 43.015625 40.234375 45.921875 
Q 44.09375 48.828125 44.09375 54.296875 
Q 44.09375 59.90625 40.109375 62.90625 
Q 36.140625 65.921875 28.71875 65.921875 
Q 24.65625 65.921875 20.015625 65.03125 
Q 15.375 64.15625 9.8125 62.3125 
L 9.8125 71.09375 
Q 15.4375 72.65625 20.34375 73.4375 
Q 25.25 74.21875 29.59375 74.21875 
Q 40.828125 74.21875 47.359375 69.109375 
Q 53.90625 64.015625 53.90625 55.328125 
Q 53.90625 49.265625 50.4375 45.09375 
Q 46.96875 40.921875 40.578125 39.3125 
z
" id="DejaVuSans-51"/>
        <path d="M 10.984375 1.515625 
L 10.984375 10.5 
Q 14.703125 8.734375 18.5 7.8125 
Q 22.3125 6.890625 25.984375 6.890625 
Q 35.75 6.890625 40.890625 13.453125 
Q 46.046875 20.015625 46.78125 33.40625 
Q 43.953125 29.203125 39.59375 26.953125 
Q 35.25 24.703125 29.984375 24.703125 
Q 19.046875 24.703125 12.671875 31.3125 
Q 6.296875 37.9375 6.296875 49.421875 
Q 6.296875 60.640625 12.9375 67.421875 
Q 19.578125 74.21875 30.609375 74.21875 
Q 43.265625 74.21875 49.921875 64.515625 
Q 56.59375 54.828125 56.59375 36.375 
Q 56.59375 19.140625 48.40625 8.859375 
Q 40.234375 -1.421875 26.421875 -1.421875 
Q 22.703125 -1.421875 18.890625 -0.6875 
Q 15.09375 0.046875 10.984375 1.515625 
z
M 30.609375 32.421875 
Q 37.25 32.421875 41.125 36.953125 
Q 45.015625 41.5 45.015625 49.421875 
Q 45.015625 57.28125 41.125 61.84375 
Q 37.25 66.40625 30.609375 66.40625 
Q 23.96875 66.40625 20.09375 61.84375 
Q 16.21875 57.28125 16.21875 49.421875 
Q 16.21875 41.5 20.09375 36.953125 
Q 23.96875 32.421875 30.609375 32.421875 
z
" id="DejaVuSans-57"/>
        <path d="M 10.796875 72.90625 
L 49.515625 72.90625 
L 49.515625 64.59375 
L 19.828125 64.59375 
L 19.828125 46.734375 
Q 21.96875 47.46875 24.109375 47.828125 
Q 26.265625 48.1875 28.421875 48.1875 
Q 40.625 48.1875 47.75 41.5 
Q 54.890625 34.8125 54.890625 23.390625 
Q 54.890625 11.625 47.5625 5.09375 
Q 40.234375 -1.421875 26.90625 -1.421875 
Q 22.3125 -1.421875 17.546875 -0.640625 
Q 12.796875 0.140625 7.71875 1.703125 
L 7.71875 11.625 
Q 12.109375 9.234375 16.796875 8.0625 
Q 21.484375 6.890625 26.703125 6.890625 
Q 35.15625 6.890625 40.078125 11.328125 
Q 45.015625 15.765625 45.015625 23.390625 
Q 45.015625 31 40.078125 35.4375 
Q 35.15625 39.890625 26.703125 39.890625 
Q 22.75 39.890625 18.8125 39.015625 
Q 14.890625 38.140625 10.796875 36.28125 
z
" id="DejaVuSans-53"/>
       </defs>
       <use xlink:href="#DejaVuSans-48"/>
       <use x="63.623047" xlink:href="#DejaVuSans-46"/>
       <use x="95.410156" xlink:href="#DejaVuSans-51"/>
       <use x="159.033203" xlink:href="#DejaVuSans-57"/>
       <use x="222.65625" xlink:href="#DejaVuSans-53"/>
      </g>
     </g>
    </g>
    <g id="ytick_2">
     <g id="line2d_35">
      <g>
       <use style="stroke:#000000;stroke-width:0.8;" x="88.55" xlink:href="#m99dbd40a04" y="343.603366"/>
      </g>
     </g>
     <g id="text_7">
      <!-- 0.400 -->
      <g transform="translate(38.607813 349.302194)scale(0.15 -0.15)">
       <defs>
        <path d="M 37.796875 64.3125 
L 12.890625 25.390625 
L 37.796875 25.390625 
z
M 35.203125 72.90625 
L 47.609375 72.90625 
L 47.609375 25.390625 
L 58.015625 25.390625 
L 58.015625 17.1875 
L 47.609375 17.1875 
L 47.609375 0 
L 37.796875 0 
L 37.796875 17.1875 
L 4.890625 17.1875 
L 4.890625 26.703125 
z
" id="DejaVuSans-52"/>
       </defs>
       <use xlink:href="#DejaVuSans-48"/>
       <use x="63.623047" xlink:href="#DejaVuSans-46"/>
       <use x="95.410156" xlink:href="#DejaVuSans-52"/>
       <use x="159.033203" xlink:href="#DejaVuSans-48"/>
       <use x="222.65625" xlink:href="#DejaVuSans-48"/>
      </g>
     </g>
    </g>
    <g id="ytick_3">
     <g id="line2d_36">
      <g>
       <use style="stroke:#000000;stroke-width:0.8;" x="88.55" xlink:href="#m99dbd40a04" y="281.700174"/>
      </g>
     </g>
     <g id="text_8">
      <!-- 0.405 -->
      <g transform="translate(38.607813 287.399002)scale(0.15 -0.15)">
       <use xlink:href="#DejaVuSans-48"/>
       <use x="63.623047" xlink:href="#DejaVuSans-46"/>
       <use x="95.410156" xlink:href="#DejaVuSans-52"/>
       <use x="159.033203" xlink:href="#DejaVuSans-48"/>
       <use x="222.65625" xlink:href="#DejaVuSans-53"/>
      </g>
     </g>
    </g>
    <g id="ytick_4">
     <g id="line2d_37">
      <g>
       <use style="stroke:#000000;stroke-width:0.8;" x="88.55" xlink:href="#m99dbd40a04" y="219.796982"/>
      </g>
     </g>
     <g id="text_9">
      <!-- 0.410 -->
      <g transform="translate(38.607813 225.49581)scale(0.15 -0.15)">
       <use xlink:href="#DejaVuSans-48"/>
       <use x="63.623047" xlink:href="#DejaVuSans-46"/>
       <use x="95.410156" xlink:href="#DejaVuSans-52"/>
       <use x="159.033203" xlink:href="#DejaVuSans-49"/>
       <use x="222.65625" xlink:href="#DejaVuSans-48"/>
      </g>
     </g>
    </g>
    <g id="ytick_5">
     <g id="line2d_38">
      <g>
       <use style="stroke:#000000;stroke-width:0.8;" x="88.55" xlink:href="#m99dbd40a04" y="157.89379"/>
      </g>
     </g>
     <g id="text_10">
      <!-- 0.415 -->
      <g transform="translate(38.607813 163.592618)scale(0.15 -0.15)">
       <use xlink:href="#DejaVuSans-48"/>
       <use x="63.623047" xlink:href="#DejaVuSans-46"/>
       <use x="95.410156" xlink:href="#DejaVuSans-52"/>
       <use x="159.033203" xlink:href="#DejaVuSans-49"/>
       <use x="222.65625" xlink:href="#DejaVuSans-53"/>
      </g>
     </g>
    </g>
    <g id="ytick_6">
     <g id="line2d_39">
      <g>
       <use style="stroke:#000000;stroke-width:0.8;" x="88.55" xlink:href="#m99dbd40a04" y="95.990598"/>
      </g>
     </g>
     <g id="text_11">
      <!-- 0.420 -->
      <g transform="translate(38.607813 101.689426)scale(0.15 -0.15)">
       <defs>
        <path d="M 19.1875 8.296875 
L 53.609375 8.296875 
L 53.609375 0 
L 7.328125 0 
L 7.328125 8.296875 
Q 12.9375 14.109375 22.625 23.890625 
Q 32.328125 33.6875 34.8125 36.53125 
Q 39.546875 41.84375 41.421875 45.53125 
Q 43.3125 49.21875 43.3125 52.78125 
Q 43.3125 58.59375 39.234375 62.25 
Q 35.15625 65.921875 28.609375 65.921875 
Q 23.96875 65.921875 18.8125 64.3125 
Q 13.671875 62.703125 7.8125 59.421875 
L 7.8125 69.390625 
Q 13.765625 71.78125 18.9375 73 
Q 24.125 74.21875 28.421875 74.21875 
Q 39.75 74.21875 46.484375 68.546875 
Q 53.21875 62.890625 53.21875 53.421875 
Q 53.21875 48.921875 51.53125 44.890625 
Q 49.859375 40.875 45.40625 35.40625 
Q 44.1875 33.984375 37.640625 27.21875 
Q 31.109375 20.453125 19.1875 8.296875 
z
" id="DejaVuSans-50"/>
       </defs>
       <use xlink:href="#DejaVuSans-48"/>
       <use x="63.623047" xlink:href="#DejaVuSans-46"/>
       <use x="95.410156" xlink:href="#DejaVuSans-52"/>
       <use x="159.033203" xlink:href="#DejaVuSans-50"/>
       <use x="222.65625" xlink:href="#DejaVuSans-48"/>
      </g>
     </g>
    </g>
    <g id="text_12">
     <!-- Mean Squared Error -->
     <g transform="translate(29.408594 385.144297)rotate(-90)scale(0.25 -0.25)">
      <defs>
       <path d="M 9.8125 72.90625 
L 24.515625 72.90625 
L 43.109375 23.296875 
L 61.8125 72.90625 
L 76.515625 72.90625 
L 76.515625 0 
L 66.890625 0 
L 66.890625 64.015625 
L 48.09375 14.015625 
L 38.1875 14.015625 
L 19.390625 64.015625 
L 19.390625 0 
L 9.8125 0 
z
" id="DejaVuSans-77"/>
       <path d="M 56.203125 29.59375 
L 56.203125 25.203125 
L 14.890625 25.203125 
Q 15.484375 15.921875 20.484375 11.0625 
Q 25.484375 6.203125 34.421875 6.203125 
Q 39.59375 6.203125 44.453125 7.46875 
Q 49.3125 8.734375 54.109375 11.28125 
L 54.109375 2.78125 
Q 49.265625 0.734375 44.1875 -0.34375 
Q 39.109375 -1.421875 33.890625 -1.421875 
Q 20.796875 -1.421875 13.15625 6.1875 
Q 5.515625 13.8125 5.515625 26.8125 
Q 5.515625 40.234375 12.765625 48.109375 
Q 20.015625 56 32.328125 56 
Q 43.359375 56 49.78125 48.890625 
Q 56.203125 41.796875 56.203125 29.59375 
z
M 47.21875 32.234375 
Q 47.125 39.59375 43.09375 43.984375 
Q 39.0625 48.390625 32.421875 48.390625 
Q 24.90625 48.390625 20.390625 44.140625 
Q 15.875 39.890625 15.1875 32.171875 
z
" id="DejaVuSans-101"/>
       <path d="M 34.28125 27.484375 
Q 23.390625 27.484375 19.1875 25 
Q 14.984375 22.515625 14.984375 16.5 
Q 14.984375 11.71875 18.140625 8.90625 
Q 21.296875 6.109375 26.703125 6.109375 
Q 34.1875 6.109375 38.703125 11.40625 
Q 43.21875 16.703125 43.21875 25.484375 
L 43.21875 27.484375 
z
M 52.203125 31.203125 
L 52.203125 0 
L 43.21875 0 
L 43.21875 8.296875 
Q 40.140625 3.328125 35.546875 0.953125 
Q 30.953125 -1.421875 24.3125 -1.421875 
Q 15.921875 -1.421875 10.953125 3.296875 
Q 6 8.015625 6 15.921875 
Q 6 25.140625 12.171875 29.828125 
Q 18.359375 34.515625 30.609375 34.515625 
L 43.21875 34.515625 
L 43.21875 35.40625 
Q 43.21875 41.609375 39.140625 45 
Q 35.0625 48.390625 27.6875 48.390625 
Q 23 48.390625 18.546875 47.265625 
Q 14.109375 46.140625 10.015625 43.890625 
L 10.015625 52.203125 
Q 14.9375 54.109375 19.578125 55.046875 
Q 24.21875 56 28.609375 56 
Q 40.484375 56 46.34375 49.84375 
Q 52.203125 43.703125 52.203125 31.203125 
z
" id="DejaVuSans-97"/>
       <path d="M 54.890625 33.015625 
L 54.890625 0 
L 45.90625 0 
L 45.90625 32.71875 
Q 45.90625 40.484375 42.875 44.328125 
Q 39.84375 48.1875 33.796875 48.1875 
Q 26.515625 48.1875 22.3125 43.546875 
Q 18.109375 38.921875 18.109375 30.90625 
L 18.109375 0 
L 9.078125 0 
L 9.078125 54.6875 
L 18.109375 54.6875 
L 18.109375 46.1875 
Q 21.34375 51.125 25.703125 53.5625 
Q 30.078125 56 35.796875 56 
Q 45.21875 56 50.046875 50.171875 
Q 54.890625 44.34375 54.890625 33.015625 
z
" id="DejaVuSans-110"/>
       <path id="DejaVuSans-32"/>
       <path d="M 53.515625 70.515625 
L 53.515625 60.890625 
Q 47.90625 63.578125 42.921875 64.890625 
Q 37.9375 66.21875 33.296875 66.21875 
Q 25.25 66.21875 20.875 63.09375 
Q 16.5 59.96875 16.5 54.203125 
Q 16.5 49.359375 19.40625 46.890625 
Q 22.3125 44.4375 30.421875 42.921875 
L 36.375 41.703125 
Q 47.40625 39.59375 52.65625 34.296875 
Q 57.90625 29 57.90625 20.125 
Q 57.90625 9.515625 50.796875 4.046875 
Q 43.703125 -1.421875 29.984375 -1.421875 
Q 24.8125 -1.421875 18.96875 -0.25 
Q 13.140625 0.921875 6.890625 3.21875 
L 6.890625 13.375 
Q 12.890625 10.015625 18.65625 8.296875 
Q 24.421875 6.59375 29.984375 6.59375 
Q 38.421875 6.59375 43.015625 9.90625 
Q 47.609375 13.234375 47.609375 19.390625 
Q 47.609375 24.75 44.3125 27.78125 
Q 41.015625 30.8125 33.5 32.328125 
L 27.484375 33.5 
Q 16.453125 35.6875 11.515625 40.375 
Q 6.59375 45.0625 6.59375 53.421875 
Q 6.59375 63.09375 13.40625 68.65625 
Q 20.21875 74.21875 32.171875 74.21875 
Q 37.3125 74.21875 42.625 73.28125 
Q 47.953125 72.359375 53.515625 70.515625 
z
" id="DejaVuSans-83"/>
       <path d="M 14.796875 27.296875 
Q 14.796875 17.390625 18.875 11.75 
Q 22.953125 6.109375 30.078125 6.109375 
Q 37.203125 6.109375 41.296875 11.75 
Q 45.40625 17.390625 45.40625 27.296875 
Q 45.40625 37.203125 41.296875 42.84375 
Q 37.203125 48.484375 30.078125 48.484375 
Q 22.953125 48.484375 18.875 42.84375 
Q 14.796875 37.203125 14.796875 27.296875 
z
M 45.40625 8.203125 
Q 42.578125 3.328125 38.25 0.953125 
Q 33.9375 -1.421875 27.875 -1.421875 
Q 17.96875 -1.421875 11.734375 6.484375 
Q 5.515625 14.40625 5.515625 27.296875 
Q 5.515625 40.1875 11.734375 48.09375 
Q 17.96875 56 27.875 56 
Q 33.9375 56 38.25 53.625 
Q 42.578125 51.265625 45.40625 46.390625 
L 45.40625 54.6875 
L 54.390625 54.6875 
L 54.390625 -20.796875 
L 45.40625 -20.796875 
z
" id="DejaVuSans-113"/>
       <path d="M 8.5 21.578125 
L 8.5 54.6875 
L 17.484375 54.6875 
L 17.484375 21.921875 
Q 17.484375 14.15625 20.5 10.265625 
Q 23.53125 6.390625 29.59375 6.390625 
Q 36.859375 6.390625 41.078125 11.03125 
Q 45.3125 15.671875 45.3125 23.6875 
L 45.3125 54.6875 
L 54.296875 54.6875 
L 54.296875 0 
L 45.3125 0 
L 45.3125 8.40625 
Q 42.046875 3.421875 37.71875 1 
Q 33.40625 -1.421875 27.6875 -1.421875 
Q 18.265625 -1.421875 13.375 4.4375 
Q 8.5 10.296875 8.5 21.578125 
z
M 31.109375 56 
z
" id="DejaVuSans-117"/>
       <path d="M 41.109375 46.296875 
Q 39.59375 47.171875 37.8125 47.578125 
Q 36.03125 48 33.890625 48 
Q 26.265625 48 22.1875 43.046875 
Q 18.109375 38.09375 18.109375 28.8125 
L 18.109375 0 
L 9.078125 0 
L 9.078125 54.6875 
L 18.109375 54.6875 
L 18.109375 46.1875 
Q 20.953125 51.171875 25.484375 53.578125 
Q 30.03125 56 36.53125 56 
Q 37.453125 56 38.578125 55.875 
Q 39.703125 55.765625 41.0625 55.515625 
z
" id="DejaVuSans-114"/>
       <path d="M 45.40625 46.390625 
L 45.40625 75.984375 
L 54.390625 75.984375 
L 54.390625 0 
L 45.40625 0 
L 45.40625 8.203125 
Q 42.578125 3.328125 38.25 0.953125 
Q 33.9375 -1.421875 27.875 -1.421875 
Q 17.96875 -1.421875 11.734375 6.484375 
Q 5.515625 14.40625 5.515625 27.296875 
Q 5.515625 40.1875 11.734375 48.09375 
Q 17.96875 56 27.875 56 
Q 33.9375 56 38.25 53.625 
Q 42.578125 51.265625 45.40625 46.390625 
z
M 14.796875 27.296875 
Q 14.796875 17.390625 18.875 11.75 
Q 22.953125 6.109375 30.078125 6.109375 
Q 37.203125 6.109375 41.296875 11.75 
Q 45.40625 17.390625 45.40625 27.296875 
Q 45.40625 37.203125 41.296875 42.84375 
Q 37.203125 48.484375 30.078125 48.484375 
Q 22.953125 48.484375 18.875 42.84375 
Q 14.796875 37.203125 14.796875 27.296875 
z
" id="DejaVuSans-100"/>
       <path d="M 9.8125 72.90625 
L 55.90625 72.90625 
L 55.90625 64.59375 
L 19.671875 64.59375 
L 19.671875 43.015625 
L 54.390625 43.015625 
L 54.390625 34.71875 
L 19.671875 34.71875 
L 19.671875 8.296875 
L 56.78125 8.296875 
L 56.78125 0 
L 9.8125 0 
z
" id="DejaVuSans-69"/>
       <path d="M 30.609375 48.390625 
Q 23.390625 48.390625 19.1875 42.75 
Q 14.984375 37.109375 14.984375 27.296875 
Q 14.984375 17.484375 19.15625 11.84375 
Q 23.34375 6.203125 30.609375 6.203125 
Q 37.796875 6.203125 41.984375 11.859375 
Q 46.1875 17.53125 46.1875 27.296875 
Q 46.1875 37.015625 41.984375 42.703125 
Q 37.796875 48.390625 30.609375 48.390625 
z
M 30.609375 56 
Q 42.328125 56 49.015625 48.375 
Q 55.71875 40.765625 55.71875 27.296875 
Q 55.71875 13.875 49.015625 6.21875 
Q 42.328125 -1.421875 30.609375 -1.421875 
Q 18.84375 -1.421875 12.171875 6.21875 
Q 5.515625 13.875 5.515625 27.296875 
Q 5.515625 40.765625 12.171875 48.375 
Q 18.84375 56 30.609375 56 
z
" id="DejaVuSans-111"/>
      </defs>
      <use xlink:href="#DejaVuSans-77"/>
      <use x="86.279297" xlink:href="#DejaVuSans-101"/>
      <use x="147.802734" xlink:href="#DejaVuSans-97"/>
      <use x="209.082031" xlink:href="#DejaVuSans-110"/>
      <use x="272.460938" xlink:href="#DejaVuSans-32"/>
      <use x="304.248047" xlink:href="#DejaVuSans-83"/>
      <use x="367.724609" xlink:href="#DejaVuSans-113"/>
      <use x="431.201172" xlink:href="#DejaVuSans-117"/>
      <use x="494.580078" xlink:href="#DejaVuSans-97"/>
      <use x="555.859375" xlink:href="#DejaVuSans-114"/>
      <use x="594.722656" xlink:href="#DejaVuSans-101"/>
      <use x="656.246094" xlink:href="#DejaVuSans-100"/>
      <use x="719.722656" xlink:href="#DejaVuSans-32"/>
      <use x="751.509766" xlink:href="#DejaVuSans-69"/>
      <use x="814.693359" xlink:href="#DejaVuSans-114"/>
      <use x="854.056641" xlink:href="#DejaVuSans-114"/>
      <use x="892.919922" xlink:href="#DejaVuSans-111"/>
      <use x="954.101562" xlink:href="#DejaVuSans-114"/>
     </g>
    </g>
   </g>
   <g id="line2d_40">
    <path clip-path="url(#p490430460f)" d="M 510.328451 98.503636 
L 508.317971 101.394332 
L 505.905396 103.065587 
L 505.5033 103.312977 
L 505.101204 103.812783 
L 502.688629 108.915017 
L 500.276054 113.553591 
L 497.863479 117.76761 
L 495.450904 121.593039 
L 492.636233 125.609303 
L 491.429945 127.403329 
L 491.027849 128.70759 
L 487.408987 146.82934 
L 484.594316 159.724756 
L 481.779645 171.633854 
L 478.964974 182.637944 
L 476.150303 192.811008 
L 474.139823 199.953232 
L 472.53144 208.72905 
L 469.716769 225.112382 
L 468.510481 232.189436 
L 465.69581 249.937905 
L 462.881139 266.273794 
L 458.458085 291.080984 
L 456.447605 303.05488 
L 453.230839 321.204354 
L 449.20988 344.738992 
L 447.199401 354.189503 
L 444.786826 364.241938 
L 443.982634 367.646031 
L 441.570059 378.333227 
L 437.951196 392.576087 
L 435.940717 399.692962 
L 434.332333 404.644221 
L 432.321854 408.630345 
L 430.311375 412.267455 
L 429.105087 414.501611 
L 427.8988 416.373251 
L 425.88832 419.550004 
L 424.682033 420.943799 
L 423.475745 421.610858 
L 420.258978 422.960435 
L 418.650595 422.622678 
L 417.444307 422.330812 
L 416.640116 422.273493 
L 415.835924 421.739917 
L 414.629636 420.813995 
L 413.825445 420.497484 
L 411.814965 419.37219 
L 410.206582 418.847014 
L 409.804486 418.586335 
L 409.40239 418.181768 
L 407.794007 417.109812 
L 406.185623 415.597142 
L 404.979336 414.315292 
L 404.175144 413.471877 
L 400.958377 409.336472 
L 399.752089 408.6506 
L 398.545802 407.565945 
L 397.74161 406.989806 
L 396.937418 406.569091 
L 396.535323 406.230679 
L 395.731131 406.138873 
L 393.720652 406.158054 
L 392.112268 406.677598 
L 390.905981 407.553601 
L 390.101789 407.817814 
L 389.297597 407.261382 
L 388.895501 406.968772 
L 388.493405 406.976235 
L 386.885022 406.498293 
L 386.08083 405.782251 
L 384.874543 404.109229 
L 383.668255 402.140553 
L 381.657776 398.610058 
L 380.853584 397.47406 
L 378.843105 393.851499 
L 376.832626 390.097024 
L 375.626338 388.026031 
L 374.42005 385.464391 
L 371.605379 378.67365 
L 369.192804 373.451336 
L 366.378133 366.481926 
L 364.76975 362.575649 
L 361.552983 354.595185 
L 360.346695 351.98253 
L 358.738312 348.606411 
L 355.923641 342.433612 
L 354.717353 340.228518 
L 350.696395 333.313666 
L 349.490107 330.354538 
L 347.479628 324.739767 
L 344.664957 315.927985 
L 342.252382 308.402416 
L 335.014656 288.13846 
L 331.395794 279.74615 
L 322.951781 260.712095 
L 314.105672 242.89448 
L 311.291001 237.741879 
L 308.47633 232.903481 
L 301.238604 221.55365 
L 294.000879 211.550727 
L 290.784112 207.304526 
L 288.371537 204.021158 
L 283.546386 197.616877 
L 278.721236 191.545795 
L 273.896086 185.863365 
L 271.081415 182.619661 
L 267.060456 177.888757 
L 262.637402 173.151057 
L 256.605964 167.124036 
L 251.780814 162.635092 
L 246.955663 158.406414 
L 241.728417 154.150744 
L 237.707459 151.127625 
L 233.6865 148.320904 
L 228.86135 145.193816 
L 224.036199 142.368488 
L 220.015241 140.301139 
L 213.983803 137.426644 
L 206.746078 134.155993 
L 202.725119 132.4839 
L 195.889489 129.904638 
L 189.455956 127.714368 
L 182.620326 125.626387 
L 175.382601 123.654424 
L 167.742779 121.811057 
L 159.700862 120.105563 
L 151.256849 118.543404 
L 142.41074 117.126486 
L 132.76044 115.802225 
L 122.305947 114.590461 
L 110.645167 113.468401 
L 108.634688 113.29652 
L 108.634688 113.29652 
" style="fill:none;stroke:#1f77b4;stroke-linecap:square;stroke-width:1.5;"/>
   </g>
   <g id="patch_3">
    <path d="M 88.55 439.2 
L 88.55 82.28 
" style="fill:none;stroke:#000000;stroke-linecap:square;stroke-linejoin:miter;stroke-width:0.8;"/>
   </g>
   <g id="patch_4">
    <path d="M 535.35 439.2 
L 535.35 82.28 
" style="fill:none;stroke:#000000;stroke-linecap:square;stroke-linejoin:miter;stroke-width:0.8;"/>
   </g>
   <g id="patch_5">
    <path d="M 88.55 439.2 
L 535.35 439.2 
" style="fill:none;stroke:#000000;stroke-linecap:square;stroke-linejoin:miter;stroke-width:0.8;"/>
   </g>
   <g id="patch_6">
    <path d="M 88.55 82.28 
L 535.35 82.28 
" style="fill:none;stroke:#000000;stroke-linecap:square;stroke-linejoin:miter;stroke-width:0.8;"/>
   </g>
  </g>
  <g id="axes_2">
   <g id="patch_7">
    <path d="M 622.4 439.2 
L 1069.2 439.2 
L 1069.2 82.28 
L 622.4 82.28 
z
" style="fill:#ffffff;"/>
   </g>
   <g id="PathCollection_1">
    <defs>
     <path d="M 0 3 
C 0.795609 3 1.55874 2.683901 2.12132 2.12132 
C 2.683901 1.55874 3 0.795609 3 0 
C 3 -0.795609 2.683901 -1.55874 2.12132 -2.12132 
C 1.55874 -2.683901 0.795609 -3 0 -3 
C -0.795609 -3 -1.55874 -2.683901 -2.12132 -2.12132 
C -2.683901 -1.55874 -3 -0.795609 -3 0 
C -3 0.795609 -2.683901 1.55874 -2.12132 2.12132 
C -1.55874 2.683901 -0.795609 3 0 3 
z
" id="m96a521d0ac" style="stroke:#1f77b4;stroke-opacity:0.8;"/>
    </defs>
    <g clip-path="url(#pf069fbeb17)">
     <use style="fill:#1f77b4;fill-opacity:0.8;stroke:#1f77b4;stroke-opacity:0.8;" x="769.5139" xlink:href="#m96a521d0ac" y="206.661212"/>
     <use style="fill:#1f77b4;fill-opacity:0.8;stroke:#1f77b4;stroke-opacity:0.8;" x="882.764012" xlink:href="#m96a521d0ac" y="272.125008"/>
     <use style="fill:#1f77b4;fill-opacity:0.8;stroke:#1f77b4;stroke-opacity:0.8;" x="1069.2" xlink:href="#m96a521d0ac" y="104.19614"/>
     <use style="fill:#1f77b4;fill-opacity:0.8;stroke:#1f77b4;stroke-opacity:0.8;" x="746.167906" xlink:href="#m96a521d0ac" y="177.249942"/>
     <use style="fill:#1f77b4;fill-opacity:0.8;stroke:#1f77b4;stroke-opacity:0.8;" x="999.252495" xlink:href="#m96a521d0ac" y="342.332557"/>
     <use style="fill:#1f77b4;fill-opacity:0.8;stroke:#1f77b4;stroke-opacity:0.8;" x="733.882485" xlink:href="#m96a521d0ac" y="197.173705"/>
     <use style="fill:#1f77b4;fill-opacity:0.8;stroke:#1f77b4;stroke-opacity:0.8;" x="921.359612" xlink:href="#m96a521d0ac" y="202.866209"/>
     <use style="fill:#1f77b4;fill-opacity:0.8;stroke:#1f77b4;stroke-opacity:0.8;" x="833.031382" xlink:href="#m96a521d0ac" y="283.510016"/>
     <use style="fill:#1f77b4;fill-opacity:0.8;stroke:#1f77b4;stroke-opacity:0.8;" x="869.962198" xlink:href="#m96a521d0ac" y="98.503636"/>
     <use style="fill:#1f77b4;fill-opacity:0.8;stroke:#1f77b4;stroke-opacity:0.8;" x="893.367345" xlink:href="#m96a521d0ac" y="182.942446"/>
     <use style="fill:#1f77b4;fill-opacity:0.8;stroke:#1f77b4;stroke-opacity:0.8;" x="928.662197" xlink:href="#m96a521d0ac" y="165.864934"/>
     <use style="fill:#1f77b4;fill-opacity:0.8;stroke:#1f77b4;stroke-opacity:0.8;" x="989.887041" xlink:href="#m96a521d0ac" y="288.253769"/>
     <use style="fill:#1f77b4;fill-opacity:0.8;stroke:#1f77b4;stroke-opacity:0.8;" x="861.470425" xlink:href="#m96a521d0ac" y="301.536279"/>
     <use style="fill:#1f77b4;fill-opacity:0.8;stroke:#1f77b4;stroke-opacity:0.8;" x="933.748339" xlink:href="#m96a521d0ac" y="342.332557"/>
     <use style="fill:#1f77b4;fill-opacity:0.8;stroke:#1f77b4;stroke-opacity:0.8;" x="801.063334" xlink:href="#m96a521d0ac" y="152.582424"/>
     <use style="fill:#1f77b4;fill-opacity:0.8;stroke:#1f77b4;stroke-opacity:0.8;" x="905.9511" xlink:href="#m96a521d0ac" y="294.895024"/>
     <use style="fill:#1f77b4;fill-opacity:0.8;stroke:#1f77b4;stroke-opacity:0.8;" x="848.089382" xlink:href="#m96a521d0ac" y="197.173705"/>
     <use style="fill:#1f77b4;fill-opacity:0.8;stroke:#1f77b4;stroke-opacity:0.8;" x="851.045869" xlink:href="#m96a521d0ac" y="167.762435"/>
     <use style="fill:#1f77b4;fill-opacity:0.8;stroke:#1f77b4;stroke-opacity:0.8;" x="974.619734" xlink:href="#m96a521d0ac" y="131.70991"/>
     <use style="fill:#1f77b4;fill-opacity:0.8;stroke:#1f77b4;stroke-opacity:0.8;" x="937.990212" xlink:href="#m96a521d0ac" y="160.17243"/>
     <use style="fill:#1f77b4;fill-opacity:0.8;stroke:#1f77b4;stroke-opacity:0.8;" x="741.987095" xlink:href="#m96a521d0ac" y="191.481201"/>
     <use style="fill:#1f77b4;fill-opacity:0.8;stroke:#1f77b4;stroke-opacity:0.8;" x="895.738219" xlink:href="#m96a521d0ac" y="246.50874"/>
     <use style="fill:#1f77b4;fill-opacity:0.8;stroke:#1f77b4;stroke-opacity:0.8;" x="931.929059" xlink:href="#m96a521d0ac" y="172.506188"/>
     <use style="fill:#1f77b4;fill-opacity:0.8;stroke:#1f77b4;stroke-opacity:0.8;" x="846.440916" xlink:href="#m96a521d0ac" y="188.634949"/>
     <use style="fill:#1f77b4;fill-opacity:0.8;stroke:#1f77b4;stroke-opacity:0.8;" x="864.007903" xlink:href="#m96a521d0ac" y="184.839947"/>
     <use style="fill:#1f77b4;fill-opacity:0.8;stroke:#1f77b4;stroke-opacity:0.8;" x="791.715975" xlink:href="#m96a521d0ac" y="262.637501"/>
     <use style="fill:#1f77b4;fill-opacity:0.8;stroke:#1f77b4;stroke-opacity:0.8;" x="901.984136" xlink:href="#m96a521d0ac" y="220.892472"/>
     <use style="fill:#1f77b4;fill-opacity:0.8;stroke:#1f77b4;stroke-opacity:0.8;" x="918.040375" xlink:href="#m96a521d0ac" y="345.178809"/>
     <use style="fill:#1f77b4;fill-opacity:0.8;stroke:#1f77b4;stroke-opacity:0.8;" x="895.767237" xlink:href="#m96a521d0ac" y="125.068655"/>
     <use style="fill:#1f77b4;fill-opacity:0.8;stroke:#1f77b4;stroke-opacity:0.8;" x="954.93283" xlink:href="#m96a521d0ac" y="299.638777"/>
     <use style="fill:#1f77b4;fill-opacity:0.8;stroke:#1f77b4;stroke-opacity:0.8;" x="717.712479" xlink:href="#m96a521d0ac" y="241.764987"/>
     <use style="fill:#1f77b4;fill-opacity:0.8;stroke:#1f77b4;stroke-opacity:0.8;" x="891.673675" xlink:href="#m96a521d0ac" y="140.248666"/>
     <use style="fill:#1f77b4;fill-opacity:0.8;stroke:#1f77b4;stroke-opacity:0.8;" x="919.266871" xlink:href="#m96a521d0ac" y="159.223679"/>
     <use style="fill:#1f77b4;fill-opacity:0.8;stroke:#1f77b4;stroke-opacity:0.8;" x="761.083451" xlink:href="#m96a521d0ac" y="287.305019"/>
     <use style="fill:#1f77b4;fill-opacity:0.8;stroke:#1f77b4;stroke-opacity:0.8;" x="708.412232" xlink:href="#m96a521d0ac" y="165.864934"/>
     <use style="fill:#1f77b4;fill-opacity:0.8;stroke:#1f77b4;stroke-opacity:0.8;" x="996.783382" xlink:href="#m96a521d0ac" y="235.123732"/>
     <use style="fill:#1f77b4;fill-opacity:0.8;stroke:#1f77b4;stroke-opacity:0.8;" x="659.967094" xlink:href="#m96a521d0ac" y="290.151271"/>
     <use style="fill:#1f77b4;fill-opacity:0.8;stroke:#1f77b4;stroke-opacity:0.8;" x="974.371868" xlink:href="#m96a521d0ac" y="200.968708"/>
     <use style="fill:#1f77b4;fill-opacity:0.8;stroke:#1f77b4;stroke-opacity:0.8;" x="951.886791" xlink:href="#m96a521d0ac" y="181.044944"/>
     <use style="fill:#1f77b4;fill-opacity:0.8;stroke:#1f77b4;stroke-opacity:0.8;" x="707.958876" xlink:href="#m96a521d0ac" y="422.976364"/>
     <use style="fill:#1f77b4;fill-opacity:0.8;stroke:#1f77b4;stroke-opacity:0.8;" x="761.067923" xlink:href="#m96a521d0ac" y="262.637501"/>
     <use style="fill:#1f77b4;fill-opacity:0.8;stroke:#1f77b4;stroke-opacity:0.8;" x="883.032143" xlink:href="#m96a521d0ac" y="356.563817"/>
     <use style="fill:#1f77b4;fill-opacity:0.8;stroke:#1f77b4;stroke-opacity:0.8;" x="886.590561" xlink:href="#m96a521d0ac" y="267.381255"/>
     <use style="fill:#1f77b4;fill-opacity:0.8;stroke:#1f77b4;stroke-opacity:0.8;" x="780.334041" xlink:href="#m96a521d0ac" y="155.428676"/>
     <use style="fill:#1f77b4;fill-opacity:0.8;stroke:#1f77b4;stroke-opacity:0.8;" x="883.813048" xlink:href="#m96a521d0ac" y="168.711186"/>
     <use style="fill:#1f77b4;fill-opacity:0.8;stroke:#1f77b4;stroke-opacity:0.8;" x="752.6684" xlink:href="#m96a521d0ac" y="208.558713"/>
     <use style="fill:#1f77b4;fill-opacity:0.8;stroke:#1f77b4;stroke-opacity:0.8;" x="880.200149" xlink:href="#m96a521d0ac" y="123.171154"/>
     <use style="fill:#1f77b4;fill-opacity:0.8;stroke:#1f77b4;stroke-opacity:0.8;" x="774.610306" xlink:href="#m96a521d0ac" y="184.839947"/>
     <use style="fill:#1f77b4;fill-opacity:0.8;stroke:#1f77b4;stroke-opacity:0.8;" x="959.042184" xlink:href="#m96a521d0ac" y="265.483753"/>
     <use style="fill:#1f77b4;fill-opacity:0.8;stroke:#1f77b4;stroke-opacity:0.8;" x="745.983735" xlink:href="#m96a521d0ac" y="235.123732"/>
     <use style="fill:#1f77b4;fill-opacity:0.8;stroke:#1f77b4;stroke-opacity:0.8;" x="922.629667" xlink:href="#m96a521d0ac" y="148.787422"/>
     <use style="fill:#1f77b4;fill-opacity:0.8;stroke:#1f77b4;stroke-opacity:0.8;" x="868.581667" xlink:href="#m96a521d0ac" y="184.839947"/>
     <use style="fill:#1f77b4;fill-opacity:0.8;stroke:#1f77b4;stroke-opacity:0.8;" x="818.01069" xlink:href="#m96a521d0ac" y="373.641329"/>
     <use style="fill:#1f77b4;fill-opacity:0.8;stroke:#1f77b4;stroke-opacity:0.8;" x="757.957203" xlink:href="#m96a521d0ac" y="254.098745"/>
     <use style="fill:#1f77b4;fill-opacity:0.8;stroke:#1f77b4;stroke-opacity:0.8;" x="869.496406" xlink:href="#m96a521d0ac" y="213.302467"/>
     <use style="fill:#1f77b4;fill-opacity:0.8;stroke:#1f77b4;stroke-opacity:0.8;" x="880.094739" xlink:href="#m96a521d0ac" y="165.864934"/>
     <use style="fill:#1f77b4;fill-opacity:0.8;stroke:#1f77b4;stroke-opacity:0.8;" x="837.437095" xlink:href="#m96a521d0ac" y="159.223679"/>
     <use style="fill:#1f77b4;fill-opacity:0.8;stroke:#1f77b4;stroke-opacity:0.8;" x="749.072807" xlink:href="#m96a521d0ac" y="165.864934"/>
     <use style="fill:#1f77b4;fill-opacity:0.8;stroke:#1f77b4;stroke-opacity:0.8;" x="823.971697" xlink:href="#m96a521d0ac" y="239.867485"/>
     <use style="fill:#1f77b4;fill-opacity:0.8;stroke:#1f77b4;stroke-opacity:0.8;" x="755.817415" xlink:href="#m96a521d0ac" y="181.993695"/>
     <use style="fill:#1f77b4;fill-opacity:0.8;stroke:#1f77b4;stroke-opacity:0.8;" x="881.928955" xlink:href="#m96a521d0ac" y="236.072483"/>
     <use style="fill:#1f77b4;fill-opacity:0.8;stroke:#1f77b4;stroke-opacity:0.8;" x="622.4" xlink:href="#m96a521d0ac" y="298.690027"/>
     <use style="fill:#1f77b4;fill-opacity:0.8;stroke:#1f77b4;stroke-opacity:0.8;" x="801.203025" xlink:href="#m96a521d0ac" y="191.481201"/>
     <use style="fill:#1f77b4;fill-opacity:0.8;stroke:#1f77b4;stroke-opacity:0.8;" x="754.594867" xlink:href="#m96a521d0ac" y="111.786146"/>
     <use style="fill:#1f77b4;fill-opacity:0.8;stroke:#1f77b4;stroke-opacity:0.8;" x="796.483188" xlink:href="#m96a521d0ac" y="159.223679"/>
     <use style="fill:#1f77b4;fill-opacity:0.8;stroke:#1f77b4;stroke-opacity:0.8;" x="658.360477" xlink:href="#m96a521d0ac" y="292.048772"/>
     <use style="fill:#1f77b4;fill-opacity:0.8;stroke:#1f77b4;stroke-opacity:0.8;" x="761.217747" xlink:href="#m96a521d0ac" y="289.20252"/>
     <use style="fill:#1f77b4;fill-opacity:0.8;stroke:#1f77b4;stroke-opacity:0.8;" x="796.808301" xlink:href="#m96a521d0ac" y="301.536279"/>
     <use style="fill:#1f77b4;fill-opacity:0.8;stroke:#1f77b4;stroke-opacity:0.8;" x="752.193199" xlink:href="#m96a521d0ac" y="255.047496"/>
     <use style="fill:#1f77b4;fill-opacity:0.8;stroke:#1f77b4;stroke-opacity:0.8;" x="734.649834" xlink:href="#m96a521d0ac" y="314.818788"/>
     <use style="fill:#1f77b4;fill-opacity:0.8;stroke:#1f77b4;stroke-opacity:0.8;" x="751.403215" xlink:href="#m96a521d0ac" y="146.88992"/>
     <use style="fill:#1f77b4;fill-opacity:0.8;stroke:#1f77b4;stroke-opacity:0.8;" x="816.607063" xlink:href="#m96a521d0ac" y="237.021233"/>
     <use style="fill:#1f77b4;fill-opacity:0.8;stroke:#1f77b4;stroke-opacity:0.8;" x="767.539531" xlink:href="#m96a521d0ac" y="115.581148"/>
     <use style="fill:#1f77b4;fill-opacity:0.8;stroke:#1f77b4;stroke-opacity:0.8;" x="814.777387" xlink:href="#m96a521d0ac" y="235.123732"/>
     <use style="fill:#1f77b4;fill-opacity:0.8;stroke:#1f77b4;stroke-opacity:0.8;" x="908.423634" xlink:href="#m96a521d0ac" y="159.223679"/>
     <use style="fill:#1f77b4;fill-opacity:0.8;stroke:#1f77b4;stroke-opacity:0.8;" x="826.287168" xlink:href="#m96a521d0ac" y="235.123732"/>
     <use style="fill:#1f77b4;fill-opacity:0.8;stroke:#1f77b4;stroke-opacity:0.8;" x="827.302844" xlink:href="#m96a521d0ac" y="246.50874"/>
     <use style="fill:#1f77b4;fill-opacity:0.8;stroke:#1f77b4;stroke-opacity:0.8;" x="843.752693" xlink:href="#m96a521d0ac" y="273.073759"/>
     <use style="fill:#1f77b4;fill-opacity:0.8;stroke:#1f77b4;stroke-opacity:0.8;" x="789.887877" xlink:href="#m96a521d0ac" y="108.939894"/>
     <use style="fill:#1f77b4;fill-opacity:0.8;stroke:#1f77b4;stroke-opacity:0.8;" x="785.884329" xlink:href="#m96a521d0ac" y="254.098745"/>
     <use style="fill:#1f77b4;fill-opacity:0.8;stroke:#1f77b4;stroke-opacity:0.8;" x="757.743685" xlink:href="#m96a521d0ac" y="222.789973"/>
     <use style="fill:#1f77b4;fill-opacity:0.8;stroke:#1f77b4;stroke-opacity:0.8;" x="826.409555" xlink:href="#m96a521d0ac" y="144.043668"/>
     <use style="fill:#1f77b4;fill-opacity:0.8;stroke:#1f77b4;stroke-opacity:0.8;" x="834.322164" xlink:href="#m96a521d0ac" y="160.17243"/>
     <use style="fill:#1f77b4;fill-opacity:0.8;stroke:#1f77b4;stroke-opacity:0.8;" x="698.365494" xlink:href="#m96a521d0ac" y="172.506188"/>
     <use style="fill:#1f77b4;fill-opacity:0.8;stroke:#1f77b4;stroke-opacity:0.8;" x="870.85779" xlink:href="#m96a521d0ac" y="266.432504"/>
     <use style="fill:#1f77b4;fill-opacity:0.8;stroke:#1f77b4;stroke-opacity:0.8;" x="900.954248" xlink:href="#m96a521d0ac" y="241.764987"/>
     <use style="fill:#1f77b4;fill-opacity:0.8;stroke:#1f77b4;stroke-opacity:0.8;" x="809.058586" xlink:href="#m96a521d0ac" y="172.506188"/>
     <use style="fill:#1f77b4;fill-opacity:0.8;stroke:#1f77b4;stroke-opacity:0.8;" x="863.45802" xlink:href="#m96a521d0ac" y="127.914907"/>
     <use style="fill:#1f77b4;fill-opacity:0.8;stroke:#1f77b4;stroke-opacity:0.8;" x="973.038449" xlink:href="#m96a521d0ac" y="254.098745"/>
     <use style="fill:#1f77b4;fill-opacity:0.8;stroke:#1f77b4;stroke-opacity:0.8;" x="826.199326" xlink:href="#m96a521d0ac" y="171.557438"/>
     <use style="fill:#1f77b4;fill-opacity:0.8;stroke:#1f77b4;stroke-opacity:0.8;" x="756.659249" xlink:href="#m96a521d0ac" y="178.198692"/>
     <use style="fill:#1f77b4;fill-opacity:0.8;stroke:#1f77b4;stroke-opacity:0.8;" x="868.620554" xlink:href="#m96a521d0ac" y="134.556162"/>
     <use style="fill:#1f77b4;fill-opacity:0.8;stroke:#1f77b4;stroke-opacity:0.8;" x="901.299496" xlink:href="#m96a521d0ac" y="98.503636"/>
     <use style="fill:#1f77b4;fill-opacity:0.8;stroke:#1f77b4;stroke-opacity:0.8;" x="813.684924" xlink:href="#m96a521d0ac" y="343.281308"/>
     <use style="fill:#1f77b4;fill-opacity:0.8;stroke:#1f77b4;stroke-opacity:0.8;" x="872.945334" xlink:href="#m96a521d0ac" y="306.280032"/>
     <use style="fill:#1f77b4;fill-opacity:0.8;stroke:#1f77b4;stroke-opacity:0.8;" x="865.511742" xlink:href="#m96a521d0ac" y="200.019957"/>
     <use style="fill:#1f77b4;fill-opacity:0.8;stroke:#1f77b4;stroke-opacity:0.8;" x="876.493684" xlink:href="#m96a521d0ac" y="209.507464"/>
     <use style="fill:#1f77b4;fill-opacity:0.8;stroke:#1f77b4;stroke-opacity:0.8;" x="816.381175" xlink:href="#m96a521d0ac" y="267.381255"/>
     <use style="fill:#1f77b4;fill-opacity:0.8;stroke:#1f77b4;stroke-opacity:0.8;" x="941.450259" xlink:href="#m96a521d0ac" y="193.378703"/>
     <use style="fill:#1f77b4;fill-opacity:0.8;stroke:#1f77b4;stroke-opacity:0.8;" x="897.398068" xlink:href="#m96a521d0ac" y="171.557438"/>
     <use style="fill:#1f77b4;fill-opacity:0.8;stroke:#1f77b4;stroke-opacity:0.8;" x="1015.474218" xlink:href="#m96a521d0ac" y="159.223679"/>
     <use style="fill:#1f77b4;fill-opacity:0.8;stroke:#1f77b4;stroke-opacity:0.8;" x="897.340165" xlink:href="#m96a521d0ac" y="222.789973"/>
     <use style="fill:#1f77b4;fill-opacity:0.8;stroke:#1f77b4;stroke-opacity:0.8;" x="712.891837" xlink:href="#m96a521d0ac" y="311.023785"/>
     <use style="fill:#1f77b4;fill-opacity:0.8;stroke:#1f77b4;stroke-opacity:0.8;" x="926.130839" xlink:href="#m96a521d0ac" y="235.123732"/>
     <use style="fill:#1f77b4;fill-opacity:0.8;stroke:#1f77b4;stroke-opacity:0.8;" x="803.832688" xlink:href="#m96a521d0ac" y="178.198692"/>
     <use style="fill:#1f77b4;fill-opacity:0.8;stroke:#1f77b4;stroke-opacity:0.8;" x="664.759311" xlink:href="#m96a521d0ac" y="260.74"/>
     <use style="fill:#1f77b4;fill-opacity:0.8;stroke:#1f77b4;stroke-opacity:0.8;" x="832.45485" xlink:href="#m96a521d0ac" y="279.715013"/>
     <use style="fill:#1f77b4;fill-opacity:0.8;stroke:#1f77b4;stroke-opacity:0.8;" x="742.783923" xlink:href="#m96a521d0ac" y="254.098745"/>
     <use style="fill:#1f77b4;fill-opacity:0.8;stroke:#1f77b4;stroke-opacity:0.8;" x="914.237843" xlink:href="#m96a521d0ac" y="241.764987"/>
     <use style="fill:#1f77b4;fill-opacity:0.8;stroke:#1f77b4;stroke-opacity:0.8;" x="806.585592" xlink:href="#m96a521d0ac" y="157.326178"/>
     <use style="fill:#1f77b4;fill-opacity:0.8;stroke:#1f77b4;stroke-opacity:0.8;" x="1023.56613" xlink:href="#m96a521d0ac" y="172.506188"/>
     <use style="fill:#1f77b4;fill-opacity:0.8;stroke:#1f77b4;stroke-opacity:0.8;" x="705.360468" xlink:href="#m96a521d0ac" y="266.432504"/>
     <use style="fill:#1f77b4;fill-opacity:0.8;stroke:#1f77b4;stroke-opacity:0.8;" x="655.226069" xlink:href="#m96a521d0ac" y="170.608687"/>
     <use style="fill:#1f77b4;fill-opacity:0.8;stroke:#1f77b4;stroke-opacity:0.8;" x="746.673836" xlink:href="#m96a521d0ac" y="165.864934"/>
     <use style="fill:#1f77b4;fill-opacity:0.8;stroke:#1f77b4;stroke-opacity:0.8;" x="847.574965" xlink:href="#m96a521d0ac" y="231.328729"/>
     <use style="fill:#1f77b4;fill-opacity:0.8;stroke:#1f77b4;stroke-opacity:0.8;" x="836.761272" xlink:href="#m96a521d0ac" y="127.914907"/>
     <use style="fill:#1f77b4;fill-opacity:0.8;stroke:#1f77b4;stroke-opacity:0.8;" x="865.494437" xlink:href="#m96a521d0ac" y="216.148719"/>
     <use style="fill:#1f77b4;fill-opacity:0.8;stroke:#1f77b4;stroke-opacity:0.8;" x="755.267729" xlink:href="#m96a521d0ac" y="241.764987"/>
     <use style="fill:#1f77b4;fill-opacity:0.8;stroke:#1f77b4;stroke-opacity:0.8;" x="811.485653" xlink:href="#m96a521d0ac" y="235.123732"/>
     <use style="fill:#1f77b4;fill-opacity:0.8;stroke:#1f77b4;stroke-opacity:0.8;" x="702.601708" xlink:href="#m96a521d0ac" y="178.198692"/>
     <use style="fill:#1f77b4;fill-opacity:0.8;stroke:#1f77b4;stroke-opacity:0.8;" x="791.625172" xlink:href="#m96a521d0ac" y="165.864934"/>
     <use style="fill:#1f77b4;fill-opacity:0.8;stroke:#1f77b4;stroke-opacity:0.8;" x="914.894847" xlink:href="#m96a521d0ac" y="184.839947"/>
     <use style="fill:#1f77b4;fill-opacity:0.8;stroke:#1f77b4;stroke-opacity:0.8;" x="788.348507" xlink:href="#m96a521d0ac" y="158.274928"/>
     <use style="fill:#1f77b4;fill-opacity:0.8;stroke:#1f77b4;stroke-opacity:0.8;" x="936.499335" xlink:href="#m96a521d0ac" y="178.198692"/>
     <use style="fill:#1f77b4;fill-opacity:0.8;stroke:#1f77b4;stroke-opacity:0.8;" x="940.767856" xlink:href="#m96a521d0ac" y="190.532451"/>
     <use style="fill:#1f77b4;fill-opacity:0.8;stroke:#1f77b4;stroke-opacity:0.8;" x="868.733334" xlink:href="#m96a521d0ac" y="215.199968"/>
     <use style="fill:#1f77b4;fill-opacity:0.8;stroke:#1f77b4;stroke-opacity:0.8;" x="866.902605" xlink:href="#m96a521d0ac" y="212.353716"/>
     <use style="fill:#1f77b4;fill-opacity:0.8;stroke:#1f77b4;stroke-opacity:0.8;" x="968.794734" xlink:href="#m96a521d0ac" y="218.04622"/>
     <use style="fill:#1f77b4;fill-opacity:0.8;stroke:#1f77b4;stroke-opacity:0.8;" x="942.761767" xlink:href="#m96a521d0ac" y="216.148719"/>
     <use style="fill:#1f77b4;fill-opacity:0.8;stroke:#1f77b4;stroke-opacity:0.8;" x="810.685733" xlink:href="#m96a521d0ac" y="266.432504"/>
     <use style="fill:#1f77b4;fill-opacity:0.8;stroke:#1f77b4;stroke-opacity:0.8;" x="976.089094" xlink:href="#m96a521d0ac" y="191.481201"/>
     <use style="fill:#1f77b4;fill-opacity:0.8;stroke:#1f77b4;stroke-opacity:0.8;" x="887.980896" xlink:href="#m96a521d0ac" y="190.532451"/>
     <use style="fill:#1f77b4;fill-opacity:0.8;stroke:#1f77b4;stroke-opacity:0.8;" x="1012.905552" xlink:href="#m96a521d0ac" y="199.071207"/>
     <use style="fill:#1f77b4;fill-opacity:0.8;stroke:#1f77b4;stroke-opacity:0.8;" x="1031.763781" xlink:href="#m96a521d0ac" y="247.457491"/>
     <use style="fill:#1f77b4;fill-opacity:0.8;stroke:#1f77b4;stroke-opacity:0.8;" x="715.086896" xlink:href="#m96a521d0ac" y="288.253769"/>
     <use style="fill:#1f77b4;fill-opacity:0.8;stroke:#1f77b4;stroke-opacity:0.8;" x="852.978784" xlink:href="#m96a521d0ac" y="209.507464"/>
     <use style="fill:#1f77b4;fill-opacity:0.8;stroke:#1f77b4;stroke-opacity:0.8;" x="670.63162" xlink:href="#m96a521d0ac" y="203.81496"/>
     <use style="fill:#1f77b4;fill-opacity:0.8;stroke:#1f77b4;stroke-opacity:0.8;" x="727.324548" xlink:href="#m96a521d0ac" y="178.198692"/>
     <use style="fill:#1f77b4;fill-opacity:0.8;stroke:#1f77b4;stroke-opacity:0.8;" x="788.135581" xlink:href="#m96a521d0ac" y="241.764987"/>
     <use style="fill:#1f77b4;fill-opacity:0.8;stroke:#1f77b4;stroke-opacity:0.8;" x="713.683796" xlink:href="#m96a521d0ac" y="274.022509"/>
     <use style="fill:#1f77b4;fill-opacity:0.8;stroke:#1f77b4;stroke-opacity:0.8;" x="922.558143" xlink:href="#m96a521d0ac" y="197.173705"/>
     <use style="fill:#1f77b4;fill-opacity:0.8;stroke:#1f77b4;stroke-opacity:0.8;" x="892.898921" xlink:href="#m96a521d0ac" y="304.382531"/>
     <use style="fill:#1f77b4;fill-opacity:0.8;stroke:#1f77b4;stroke-opacity:0.8;" x="979.952819" xlink:href="#m96a521d0ac" y="193.378703"/>
     <use style="fill:#1f77b4;fill-opacity:0.8;stroke:#1f77b4;stroke-opacity:0.8;" x="776.354575" xlink:href="#m96a521d0ac" y="254.098745"/>
     <use style="fill:#1f77b4;fill-opacity:0.8;stroke:#1f77b4;stroke-opacity:0.8;" x="969.496284" xlink:href="#m96a521d0ac" y="159.223679"/>
    </g>
   </g>
   <g id="PolyCollection_1">
    <path clip-path="url(#pf069fbeb17)" d="M 622.4 209.609244 
L 622.4 264.047823 
L 626.913131 263.111674 
L 631.426263 262.197372 
L 635.939394 261.306798 
L 640.452525 260.429343 
L 644.965657 259.569622 
L 649.478788 258.719948 
L 653.991919 257.824904 
L 658.505051 256.924059 
L 663.018182 256.008079 
L 667.531313 255.081187 
L 672.044444 254.184087 
L 676.557576 253.331517 
L 681.070707 252.449693 
L 685.583838 251.614387 
L 690.09697 250.740506 
L 694.610101 249.918031 
L 699.123232 249.017964 
L 703.636364 248.137986 
L 708.149495 247.252322 
L 712.662626 246.31298 
L 717.175758 245.377014 
L 721.688889 244.494317 
L 726.20202 243.709279 
L 730.715152 242.961854 
L 735.228283 242.123018 
L 739.741414 241.250684 
L 744.254545 240.500141 
L 748.767677 239.659503 
L 753.280808 238.836468 
L 757.793939 238.103211 
L 762.307071 237.246139 
L 766.820202 236.503629 
L 771.333333 235.669334 
L 775.846465 234.884882 
L 780.359596 234.116014 
L 784.872727 233.324034 
L 789.385859 232.652458 
L 793.89899 231.936994 
L 798.412121 231.301193 
L 802.925253 230.614408 
L 807.438384 229.93603 
L 811.951515 229.319404 
L 816.464646 228.743199 
L 820.977778 228.098927 
L 825.490909 227.550779 
L 830.00404 226.999874 
L 834.517172 226.470045 
L 839.030303 225.956197 
L 843.543434 225.471652 
L 848.056566 224.974287 
L 852.569697 224.650644 
L 857.082828 224.3512 
L 861.59596 224.048474 
L 866.109091 223.664518 
L 870.622222 223.402712 
L 875.135354 223.119435 
L 879.648485 222.89068 
L 884.161616 222.709063 
L 888.674747 222.511462 
L 893.187879 222.32129 
L 897.70101 222.203137 
L 902.214141 222.044374 
L 906.727273 221.920099 
L 911.240404 221.726089 
L 915.753535 221.627704 
L 920.266667 221.553037 
L 924.779798 221.489527 
L 929.292929 221.411359 
L 933.806061 221.333839 
L 938.319192 221.32012 
L 942.832323 221.30141 
L 947.345455 221.209941 
L 951.858586 221.074235 
L 956.371717 221.030109 
L 960.884848 220.999584 
L 965.39798 221.010649 
L 969.911111 220.990137 
L 974.424242 221.01626 
L 978.937374 220.980753 
L 983.450505 220.956478 
L 987.963636 220.924719 
L 992.476768 220.883368 
L 996.989899 220.886391 
L 1001.50303 220.984608 
L 1006.016162 221.036754 
L 1010.529293 221.062387 
L 1015.042424 221.028371 
L 1019.555556 221.055062 
L 1024.068687 221.020185 
L 1028.581818 221.120539 
L 1033.094949 221.146508 
L 1037.608081 221.154028 
L 1042.121212 221.19241 
L 1046.634343 221.257318 
L 1051.147475 221.320101 
L 1055.660606 221.279094 
L 1060.173737 221.297383 
L 1064.686869 221.33651 
L 1069.2 221.401495 
L 1069.2 167.018828 
L 1069.2 167.018828 
L 1064.686869 167.888391 
L 1060.173737 168.745549 
L 1055.660606 169.676227 
L 1051.147475 170.555618 
L 1046.634343 171.471357 
L 1042.121212 172.371994 
L 1037.608081 173.27423 
L 1033.094949 174.154102 
L 1028.581818 174.993845 
L 1024.068687 175.905912 
L 1019.555556 176.716934 
L 1015.042424 177.597077 
L 1010.529293 178.463373 
L 1006.016162 179.341038 
L 1001.50303 180.230777 
L 996.989899 181.098815 
L 992.476768 182.034252 
L 987.963636 182.878305 
L 983.450505 183.755879 
L 978.937374 184.619438 
L 974.424242 185.491742 
L 969.911111 186.337121 
L 965.39798 187.174721 
L 960.884848 187.928056 
L 956.371717 188.730364 
L 951.858586 189.538928 
L 947.345455 190.4426 
L 942.832323 191.176617 
L 938.319192 192.015674 
L 933.806061 192.810763 
L 929.292929 193.635073 
L 924.779798 194.383636 
L 920.266667 195.124045 
L 915.753535 195.930081 
L 911.240404 196.693941 
L 906.727273 197.402138 
L 902.214141 198.143639 
L 897.70101 198.891068 
L 893.187879 199.63164 
L 888.674747 200.358167 
L 884.161616 200.973693 
L 879.648485 201.675875 
L 875.135354 202.229871 
L 870.622222 202.910819 
L 866.109091 203.511474 
L 861.59596 204.008639 
L 857.082828 204.551797 
L 852.569697 205.056265 
L 848.056566 205.479934 
L 843.543434 205.914522 
L 839.030303 206.290254 
L 834.517172 206.715101 
L 830.00404 207.110803 
L 825.490909 207.379409 
L 820.977778 207.697704 
L 816.464646 207.973969 
L 811.951515 208.204658 
L 807.438384 208.378376 
L 802.925253 208.575906 
L 798.412121 208.768873 
L 793.89899 208.992821 
L 789.385859 209.140464 
L 784.872727 209.349573 
L 780.359596 209.508321 
L 775.846465 209.628535 
L 771.333333 209.661241 
L 766.820202 209.72183 
L 762.307071 209.853959 
L 757.793939 209.88365 
L 753.280808 209.90089 
L 748.767677 209.922947 
L 744.254545 210.017029 
L 739.741414 210.06717 
L 735.228283 210.137548 
L 730.715152 210.149165 
L 726.20202 210.16994 
L 721.688889 210.165252 
L 717.175758 210.161631 
L 712.662626 210.153818 
L 708.149495 210.184917 
L 703.636364 210.220846 
L 699.123232 210.204129 
L 694.610101 210.173752 
L 690.09697 210.110575 
L 685.583838 210.056049 
L 681.070707 210.051152 
L 676.557576 210.079896 
L 672.044444 210.01582 
L 667.531313 210.042424 
L 663.018182 210.04492 
L 658.505051 210.014741 
L 653.991919 209.913316 
L 649.478788 209.850691 
L 644.965657 209.845921 
L 640.452525 209.834038 
L 635.939394 209.786259 
L 631.426263 209.723409 
L 626.913131 209.664129 
L 622.4 209.609244 
z
" style="fill:#1f77b4;fill-opacity:0.15;"/>
   </g>
   <g id="matplotlib.axis_3">
    <g id="xtick_34">
     <g id="line2d_41">
      <g>
       <use style="stroke:#000000;stroke-width:0.8;" x="633.827138" xlink:href="#mbf4aeba611" y="439.2"/>
      </g>
     </g>
     <g id="text_13">
      <!-- 2.1 -->
      <g transform="translate(617.924013 461.396875)scale(0.2 -0.2)">
       <use xlink:href="#DejaVuSans-50"/>
       <use x="63.623047" xlink:href="#DejaVuSans-46"/>
       <use x="95.410156" xlink:href="#DejaVuSans-49"/>
      </g>
     </g>
    </g>
    <g id="xtick_35">
     <g id="line2d_42">
      <g>
       <use style="stroke:#000000;stroke-width:0.8;" x="699.626271" xlink:href="#mbf4aeba611" y="439.2"/>
      </g>
     </g>
     <g id="text_14">
      <!-- 2.2 -->
      <g transform="translate(683.723146 461.396875)scale(0.2 -0.2)">
       <use xlink:href="#DejaVuSans-50"/>
       <use x="63.623047" xlink:href="#DejaVuSans-46"/>
       <use x="95.410156" xlink:href="#DejaVuSans-50"/>
      </g>
     </g>
    </g>
    <g id="xtick_36">
     <g id="line2d_43">
      <g>
       <use style="stroke:#000000;stroke-width:0.8;" x="765.425405" xlink:href="#mbf4aeba611" y="439.2"/>
      </g>
     </g>
     <g id="text_15">
      <!-- 2.3 -->
      <g transform="translate(749.52228 461.396875)scale(0.2 -0.2)">
       <use xlink:href="#DejaVuSans-50"/>
       <use x="63.623047" xlink:href="#DejaVuSans-46"/>
       <use x="95.410156" xlink:href="#DejaVuSans-51"/>
      </g>
     </g>
    </g>
    <g id="xtick_37">
     <g id="line2d_44">
      <g>
       <use style="stroke:#000000;stroke-width:0.8;" x="831.224538" xlink:href="#mbf4aeba611" y="439.2"/>
      </g>
     </g>
     <g id="text_16">
      <!-- 2.4 -->
      <g transform="translate(815.321413 461.396875)scale(0.2 -0.2)">
       <use xlink:href="#DejaVuSans-50"/>
       <use x="63.623047" xlink:href="#DejaVuSans-46"/>
       <use x="95.410156" xlink:href="#DejaVuSans-52"/>
      </g>
     </g>
    </g>
    <g id="xtick_38">
     <g id="line2d_45">
      <g>
       <use style="stroke:#000000;stroke-width:0.8;" x="897.023671" xlink:href="#mbf4aeba611" y="439.2"/>
      </g>
     </g>
     <g id="text_17">
      <!-- 2.5 -->
      <g transform="translate(881.120546 461.396875)scale(0.2 -0.2)">
       <use xlink:href="#DejaVuSans-50"/>
       <use x="63.623047" xlink:href="#DejaVuSans-46"/>
       <use x="95.410156" xlink:href="#DejaVuSans-53"/>
      </g>
     </g>
    </g>
    <g id="xtick_39">
     <g id="line2d_46">
      <g>
       <use style="stroke:#000000;stroke-width:0.8;" x="962.822804" xlink:href="#mbf4aeba611" y="439.2"/>
      </g>
     </g>
     <g id="text_18">
      <!-- 2.6 -->
      <g transform="translate(946.919679 461.396875)scale(0.2 -0.2)">
       <defs>
        <path d="M 33.015625 40.375 
Q 26.375 40.375 22.484375 35.828125 
Q 18.609375 31.296875 18.609375 23.390625 
Q 18.609375 15.53125 22.484375 10.953125 
Q 26.375 6.390625 33.015625 6.390625 
Q 39.65625 6.390625 43.53125 10.953125 
Q 47.40625 15.53125 47.40625 23.390625 
Q 47.40625 31.296875 43.53125 35.828125 
Q 39.65625 40.375 33.015625 40.375 
z
M 52.59375 71.296875 
L 52.59375 62.3125 
Q 48.875 64.0625 45.09375 64.984375 
Q 41.3125 65.921875 37.59375 65.921875 
Q 27.828125 65.921875 22.671875 59.328125 
Q 17.53125 52.734375 16.796875 39.40625 
Q 19.671875 43.65625 24.015625 45.921875 
Q 28.375 48.1875 33.59375 48.1875 
Q 44.578125 48.1875 50.953125 41.515625 
Q 57.328125 34.859375 57.328125 23.390625 
Q 57.328125 12.15625 50.6875 5.359375 
Q 44.046875 -1.421875 33.015625 -1.421875 
Q 20.359375 -1.421875 13.671875 8.265625 
Q 6.984375 17.96875 6.984375 36.375 
Q 6.984375 53.65625 15.1875 63.9375 
Q 23.390625 74.21875 37.203125 74.21875 
Q 40.921875 74.21875 44.703125 73.484375 
Q 48.484375 72.75 52.59375 71.296875 
z
" id="DejaVuSans-54"/>
       </defs>
       <use xlink:href="#DejaVuSans-50"/>
       <use x="63.623047" xlink:href="#DejaVuSans-46"/>
       <use x="95.410156" xlink:href="#DejaVuSans-54"/>
      </g>
     </g>
    </g>
    <g id="xtick_40">
     <g id="line2d_47">
      <g>
       <use style="stroke:#000000;stroke-width:0.8;" x="1028.621938" xlink:href="#mbf4aeba611" y="439.2"/>
      </g>
     </g>
     <g id="text_19">
      <!-- 2.7 -->
      <g transform="translate(1012.718813 461.396875)scale(0.2 -0.2)">
       <defs>
        <path d="M 8.203125 72.90625 
L 55.078125 72.90625 
L 55.078125 68.703125 
L 28.609375 0 
L 18.3125 0 
L 43.21875 64.59375 
L 8.203125 64.59375 
z
" id="DejaVuSans-55"/>
       </defs>
       <use xlink:href="#DejaVuSans-50"/>
       <use x="63.623047" xlink:href="#DejaVuSans-46"/>
       <use x="95.410156" xlink:href="#DejaVuSans-55"/>
      </g>
     </g>
    </g>
    <g id="text_20">
     <!-- Predictions -->
     <g transform="translate(777.196484 488.552344)scale(0.25 -0.25)">
      <defs>
       <path d="M 19.671875 64.796875 
L 19.671875 37.40625 
L 32.078125 37.40625 
Q 38.96875 37.40625 42.71875 40.96875 
Q 46.484375 44.53125 46.484375 51.125 
Q 46.484375 57.671875 42.71875 61.234375 
Q 38.96875 64.796875 32.078125 64.796875 
z
M 9.8125 72.90625 
L 32.078125 72.90625 
Q 44.34375 72.90625 50.609375 67.359375 
Q 56.890625 61.8125 56.890625 51.125 
Q 56.890625 40.328125 50.609375 34.8125 
Q 44.34375 29.296875 32.078125 29.296875 
L 19.671875 29.296875 
L 19.671875 0 
L 9.8125 0 
z
" id="DejaVuSans-80"/>
       <path d="M 9.421875 54.6875 
L 18.40625 54.6875 
L 18.40625 0 
L 9.421875 0 
z
M 9.421875 75.984375 
L 18.40625 75.984375 
L 18.40625 64.59375 
L 9.421875 64.59375 
z
" id="DejaVuSans-105"/>
       <path d="M 48.78125 52.59375 
L 48.78125 44.1875 
Q 44.96875 46.296875 41.140625 47.34375 
Q 37.3125 48.390625 33.40625 48.390625 
Q 24.65625 48.390625 19.8125 42.84375 
Q 14.984375 37.3125 14.984375 27.296875 
Q 14.984375 17.28125 19.8125 11.734375 
Q 24.65625 6.203125 33.40625 6.203125 
Q 37.3125 6.203125 41.140625 7.25 
Q 44.96875 8.296875 48.78125 10.40625 
L 48.78125 2.09375 
Q 45.015625 0.34375 40.984375 -0.53125 
Q 36.96875 -1.421875 32.421875 -1.421875 
Q 20.0625 -1.421875 12.78125 6.34375 
Q 5.515625 14.109375 5.515625 27.296875 
Q 5.515625 40.671875 12.859375 48.328125 
Q 20.21875 56 33.015625 56 
Q 37.15625 56 41.109375 55.140625 
Q 45.0625 54.296875 48.78125 52.59375 
z
" id="DejaVuSans-99"/>
       <path d="M 18.3125 70.21875 
L 18.3125 54.6875 
L 36.8125 54.6875 
L 36.8125 47.703125 
L 18.3125 47.703125 
L 18.3125 18.015625 
Q 18.3125 11.328125 20.140625 9.421875 
Q 21.96875 7.515625 27.59375 7.515625 
L 36.8125 7.515625 
L 36.8125 0 
L 27.59375 0 
Q 17.1875 0 13.234375 3.875 
Q 9.28125 7.765625 9.28125 18.015625 
L 9.28125 47.703125 
L 2.6875 47.703125 
L 2.6875 54.6875 
L 9.28125 54.6875 
L 9.28125 70.21875 
z
" id="DejaVuSans-116"/>
       <path d="M 44.28125 53.078125 
L 44.28125 44.578125 
Q 40.484375 46.53125 36.375 47.5 
Q 32.28125 48.484375 27.875 48.484375 
Q 21.1875 48.484375 17.84375 46.4375 
Q 14.5 44.390625 14.5 40.28125 
Q 14.5 37.15625 16.890625 35.375 
Q 19.28125 33.59375 26.515625 31.984375 
L 29.59375 31.296875 
Q 39.15625 29.25 43.1875 25.515625 
Q 47.21875 21.78125 47.21875 15.09375 
Q 47.21875 7.46875 41.1875 3.015625 
Q 35.15625 -1.421875 24.609375 -1.421875 
Q 20.21875 -1.421875 15.453125 -0.5625 
Q 10.6875 0.296875 5.421875 2 
L 5.421875 11.28125 
Q 10.40625 8.6875 15.234375 7.390625 
Q 20.0625 6.109375 24.8125 6.109375 
Q 31.15625 6.109375 34.5625 8.28125 
Q 37.984375 10.453125 37.984375 14.40625 
Q 37.984375 18.0625 35.515625 20.015625 
Q 33.0625 21.96875 24.703125 23.78125 
L 21.578125 24.515625 
Q 13.234375 26.265625 9.515625 29.90625 
Q 5.8125 33.546875 5.8125 39.890625 
Q 5.8125 47.609375 11.28125 51.796875 
Q 16.75 56 26.8125 56 
Q 31.78125 56 36.171875 55.265625 
Q 40.578125 54.546875 44.28125 53.078125 
z
" id="DejaVuSans-115"/>
      </defs>
      <use xlink:href="#DejaVuSans-80"/>
      <use x="58.552734" xlink:href="#DejaVuSans-114"/>
      <use x="97.416016" xlink:href="#DejaVuSans-101"/>
      <use x="158.939453" xlink:href="#DejaVuSans-100"/>
      <use x="222.416016" xlink:href="#DejaVuSans-105"/>
      <use x="250.199219" xlink:href="#DejaVuSans-99"/>
      <use x="305.179688" xlink:href="#DejaVuSans-116"/>
      <use x="344.388672" xlink:href="#DejaVuSans-105"/>
      <use x="372.171875" xlink:href="#DejaVuSans-111"/>
      <use x="433.353516" xlink:href="#DejaVuSans-110"/>
      <use x="496.732422" xlink:href="#DejaVuSans-115"/>
     </g>
    </g>
   </g>
   <g id="matplotlib.axis_4">
    <g id="ytick_7">
     <g id="line2d_48">
      <g>
       <use style="stroke:#000000;stroke-width:0.8;" x="622.4" xlink:href="#m99dbd40a04" y="396.411345"/>
      </g>
     </g>
     <g id="text_21">
      <!-- 0.5 -->
      <g transform="translate(583.59375 404.009783)scale(0.2 -0.2)">
       <use xlink:href="#DejaVuSans-48"/>
       <use x="63.623047" xlink:href="#DejaVuSans-46"/>
       <use x="95.410156" xlink:href="#DejaVuSans-53"/>
      </g>
     </g>
    </g>
    <g id="ytick_8">
     <g id="line2d_49">
      <g>
       <use style="stroke:#000000;stroke-width:0.8;" x="622.4" xlink:href="#m99dbd40a04" y="348.973812"/>
      </g>
     </g>
     <g id="text_22">
      <!-- 1.0 -->
      <g transform="translate(583.59375 356.572249)scale(0.2 -0.2)">
       <use xlink:href="#DejaVuSans-49"/>
       <use x="63.623047" xlink:href="#DejaVuSans-46"/>
       <use x="95.410156" xlink:href="#DejaVuSans-48"/>
      </g>
     </g>
    </g>
    <g id="ytick_9">
     <g id="line2d_50">
      <g>
       <use style="stroke:#000000;stroke-width:0.8;" x="622.4" xlink:href="#m99dbd40a04" y="301.536279"/>
      </g>
     </g>
     <g id="text_23">
      <!-- 1.5 -->
      <g transform="translate(583.59375 309.134716)scale(0.2 -0.2)">
       <use xlink:href="#DejaVuSans-49"/>
       <use x="63.623047" xlink:href="#DejaVuSans-46"/>
       <use x="95.410156" xlink:href="#DejaVuSans-53"/>
      </g>
     </g>
    </g>
    <g id="ytick_10">
     <g id="line2d_51">
      <g>
       <use style="stroke:#000000;stroke-width:0.8;" x="622.4" xlink:href="#m99dbd40a04" y="254.098745"/>
      </g>
     </g>
     <g id="text_24">
      <!-- 2.0 -->
      <g transform="translate(583.59375 261.697183)scale(0.2 -0.2)">
       <use xlink:href="#DejaVuSans-50"/>
       <use x="63.623047" xlink:href="#DejaVuSans-46"/>
       <use x="95.410156" xlink:href="#DejaVuSans-48"/>
      </g>
     </g>
    </g>
    <g id="ytick_11">
     <g id="line2d_52">
      <g>
       <use style="stroke:#000000;stroke-width:0.8;" x="622.4" xlink:href="#m99dbd40a04" y="206.661212"/>
      </g>
     </g>
     <g id="text_25">
      <!-- 2.5 -->
      <g transform="translate(583.59375 214.25965)scale(0.2 -0.2)">
       <use xlink:href="#DejaVuSans-50"/>
       <use x="63.623047" xlink:href="#DejaVuSans-46"/>
       <use x="95.410156" xlink:href="#DejaVuSans-53"/>
      </g>
     </g>
    </g>
    <g id="ytick_12">
     <g id="line2d_53">
      <g>
       <use style="stroke:#000000;stroke-width:0.8;" x="622.4" xlink:href="#m99dbd40a04" y="159.223679"/>
      </g>
     </g>
     <g id="text_26">
      <!-- 3.0 -->
      <g transform="translate(583.59375 166.822116)scale(0.2 -0.2)">
       <use xlink:href="#DejaVuSans-51"/>
       <use x="63.623047" xlink:href="#DejaVuSans-46"/>
       <use x="95.410156" xlink:href="#DejaVuSans-48"/>
      </g>
     </g>
    </g>
    <g id="ytick_13">
     <g id="line2d_54">
      <g>
       <use style="stroke:#000000;stroke-width:0.8;" x="622.4" xlink:href="#m99dbd40a04" y="111.786146"/>
      </g>
     </g>
     <g id="text_27">
      <!-- 3.5 -->
      <g transform="translate(583.59375 119.384583)scale(0.2 -0.2)">
       <use xlink:href="#DejaVuSans-51"/>
       <use x="63.623047" xlink:href="#DejaVuSans-46"/>
       <use x="95.410156" xlink:href="#DejaVuSans-53"/>
      </g>
     </g>
    </g>
    <g id="text_28">
     <!-- Observations -->
     <g transform="translate(574.394531 343.370859)rotate(-90)scale(0.25 -0.25)">
      <defs>
       <path d="M 39.40625 66.21875 
Q 28.65625 66.21875 22.328125 58.203125 
Q 16.015625 50.203125 16.015625 36.375 
Q 16.015625 22.609375 22.328125 14.59375 
Q 28.65625 6.59375 39.40625 6.59375 
Q 50.140625 6.59375 56.421875 14.59375 
Q 62.703125 22.609375 62.703125 36.375 
Q 62.703125 50.203125 56.421875 58.203125 
Q 50.140625 66.21875 39.40625 66.21875 
z
M 39.40625 74.21875 
Q 54.734375 74.21875 63.90625 63.9375 
Q 73.09375 53.65625 73.09375 36.375 
Q 73.09375 19.140625 63.90625 8.859375 
Q 54.734375 -1.421875 39.40625 -1.421875 
Q 24.03125 -1.421875 14.8125 8.828125 
Q 5.609375 19.09375 5.609375 36.375 
Q 5.609375 53.65625 14.8125 63.9375 
Q 24.03125 74.21875 39.40625 74.21875 
z
" id="DejaVuSans-79"/>
       <path d="M 48.6875 27.296875 
Q 48.6875 37.203125 44.609375 42.84375 
Q 40.53125 48.484375 33.40625 48.484375 
Q 26.265625 48.484375 22.1875 42.84375 
Q 18.109375 37.203125 18.109375 27.296875 
Q 18.109375 17.390625 22.1875 11.75 
Q 26.265625 6.109375 33.40625 6.109375 
Q 40.53125 6.109375 44.609375 11.75 
Q 48.6875 17.390625 48.6875 27.296875 
z
M 18.109375 46.390625 
Q 20.953125 51.265625 25.265625 53.625 
Q 29.59375 56 35.59375 56 
Q 45.5625 56 51.78125 48.09375 
Q 58.015625 40.1875 58.015625 27.296875 
Q 58.015625 14.40625 51.78125 6.484375 
Q 45.5625 -1.421875 35.59375 -1.421875 
Q 29.59375 -1.421875 25.265625 0.953125 
Q 20.953125 3.328125 18.109375 8.203125 
L 18.109375 0 
L 9.078125 0 
L 9.078125 75.984375 
L 18.109375 75.984375 
z
" id="DejaVuSans-98"/>
       <path d="M 2.984375 54.6875 
L 12.5 54.6875 
L 29.59375 8.796875 
L 46.6875 54.6875 
L 56.203125 54.6875 
L 35.6875 0 
L 23.484375 0 
z
" id="DejaVuSans-118"/>
      </defs>
      <use xlink:href="#DejaVuSans-79"/>
      <use x="78.710938" xlink:href="#DejaVuSans-98"/>
      <use x="142.1875" xlink:href="#DejaVuSans-115"/>
      <use x="194.287109" xlink:href="#DejaVuSans-101"/>
      <use x="255.810547" xlink:href="#DejaVuSans-114"/>
      <use x="296.923828" xlink:href="#DejaVuSans-118"/>
      <use x="356.103516" xlink:href="#DejaVuSans-97"/>
      <use x="417.382812" xlink:href="#DejaVuSans-116"/>
      <use x="456.591797" xlink:href="#DejaVuSans-105"/>
      <use x="484.375" xlink:href="#DejaVuSans-111"/>
      <use x="545.556641" xlink:href="#DejaVuSans-110"/>
      <use x="608.935547" xlink:href="#DejaVuSans-115"/>
     </g>
    </g>
   </g>
   <g id="line2d_55">
    <path clip-path="url(#pf069fbeb17)" d="M 622.4 236.974686 
L 626.913131 236.538736 
L 631.426263 236.102785 
L 635.939394 235.666835 
L 640.452525 235.230885 
L 644.965657 234.794935 
L 649.478788 234.358984 
L 653.991919 233.923034 
L 658.505051 233.487084 
L 663.018182 233.051134 
L 667.531313 232.615183 
L 672.044444 232.179233 
L 676.557576 231.743283 
L 681.070707 231.307332 
L 685.583838 230.871382 
L 690.09697 230.435432 
L 694.610101 229.999482 
L 699.123232 229.563531 
L 703.636364 229.127581 
L 708.149495 228.691631 
L 712.662626 228.25568 
L 717.175758 227.81973 
L 721.688889 227.38378 
L 726.20202 226.94783 
L 730.715152 226.511879 
L 735.228283 226.075929 
L 739.741414 225.639979 
L 744.254545 225.204029 
L 748.767677 224.768078 
L 753.280808 224.332128 
L 757.793939 223.896178 
L 762.307071 223.460227 
L 766.820202 223.024277 
L 771.333333 222.588327 
L 775.846465 222.152377 
L 780.359596 221.716426 
L 784.872727 221.280476 
L 789.385859 220.844526 
L 793.89899 220.408576 
L 798.412121 219.972625 
L 802.925253 219.536675 
L 807.438384 219.100725 
L 811.951515 218.664774 
L 816.464646 218.228824 
L 820.977778 217.792874 
L 825.490909 217.356924 
L 830.00404 216.920973 
L 834.517172 216.485023 
L 839.030303 216.049073 
L 843.543434 215.613123 
L 848.056566 215.177172 
L 852.569697 214.741222 
L 857.082828 214.305272 
L 861.59596 213.869321 
L 866.109091 213.433371 
L 870.622222 212.997421 
L 875.135354 212.561471 
L 879.648485 212.12552 
L 884.161616 211.68957 
L 888.674747 211.25362 
L 893.187879 210.81767 
L 897.70101 210.381719 
L 902.214141 209.945769 
L 906.727273 209.509819 
L 911.240404 209.073868 
L 915.753535 208.637918 
L 920.266667 208.201968 
L 924.779798 207.766018 
L 929.292929 207.330067 
L 933.806061 206.894117 
L 938.319192 206.458167 
L 942.832323 206.022217 
L 947.345455 205.586266 
L 951.858586 205.150316 
L 956.371717 204.714366 
L 960.884848 204.278415 
L 965.39798 203.842465 
L 969.911111 203.406515 
L 974.424242 202.970565 
L 978.937374 202.534614 
L 983.450505 202.098664 
L 987.963636 201.662714 
L 992.476768 201.226764 
L 996.989899 200.790813 
L 1001.50303 200.354863 
L 1006.016162 199.918913 
L 1010.529293 199.482962 
L 1015.042424 199.047012 
L 1019.555556 198.611062 
L 1024.068687 198.175112 
L 1028.581818 197.739161 
L 1033.094949 197.303211 
L 1037.608081 196.867261 
L 1042.121212 196.431311 
L 1046.634343 195.99536 
L 1051.147475 195.55941 
L 1055.660606 195.12346 
L 1060.173737 194.687509 
L 1064.686869 194.251559 
L 1069.2 193.815609 
" style="fill:none;stroke:#1f77b4;stroke-linecap:square;stroke-width:2.25;"/>
   </g>
   <g id="patch_8">
    <path d="M 622.4 439.2 
L 622.4 82.28 
" style="fill:none;stroke:#000000;stroke-linecap:square;stroke-linejoin:miter;stroke-width:0.8;"/>
   </g>
   <g id="patch_9">
    <path d="M 1069.2 439.2 
L 1069.2 82.28 
" style="fill:none;stroke:#000000;stroke-linecap:square;stroke-linejoin:miter;stroke-width:0.8;"/>
   </g>
   <g id="patch_10">
    <path d="M 622.4 439.2 
L 1069.2 439.2 
" style="fill:none;stroke:#000000;stroke-linecap:square;stroke-linejoin:miter;stroke-width:0.8;"/>
   </g>
   <g id="patch_11">
    <path d="M 622.4 82.28 
L 1069.2 82.28 
" style="fill:none;stroke:#000000;stroke-linecap:square;stroke-linejoin:miter;stroke-width:0.8;"/>
   </g>
   <g id="text_29">
    <!-- MSE = 0.414,  -->
    <g transform="translate(739.276562 40.20875)scale(0.3 -0.3)">
     <defs>
      <path d="M 10.59375 45.40625 
L 73.1875 45.40625 
L 73.1875 37.203125 
L 10.59375 37.203125 
z
M 10.59375 25.484375 
L 73.1875 25.484375 
L 73.1875 17.1875 
L 10.59375 17.1875 
z
" id="DejaVuSans-61"/>
      <path d="M 11.71875 12.40625 
L 22.015625 12.40625 
L 22.015625 4 
L 14.015625 -11.625 
L 7.71875 -11.625 
L 11.71875 4 
z
" id="DejaVuSans-44"/>
     </defs>
     <use xlink:href="#DejaVuSans-77"/>
     <use x="86.279297" xlink:href="#DejaVuSans-83"/>
     <use x="149.755859" xlink:href="#DejaVuSans-69"/>
     <use x="212.939453" xlink:href="#DejaVuSans-32"/>
     <use x="244.726562" xlink:href="#DejaVuSans-61"/>
     <use x="328.515625" xlink:href="#DejaVuSans-32"/>
     <use x="360.302734" xlink:href="#DejaVuSans-48"/>
     <use x="423.925781" xlink:href="#DejaVuSans-46"/>
     <use x="455.712891" xlink:href="#DejaVuSans-52"/>
     <use x="519.335938" xlink:href="#DejaVuSans-49"/>
     <use x="582.958984" xlink:href="#DejaVuSans-52"/>
     <use x="646.582031" xlink:href="#DejaVuSans-44"/>
     <use x="678.369141" xlink:href="#DejaVuSans-32"/>
    </g>
    <!--  $R^2$ = 0.015, r = 0.143 -->
    <g transform="translate(676.6 76.040937)scale(0.3 -0.3)">
     <defs>
      <path d="M 25.203125 64.796875 
L 20.21875 38.921875 
L 32.90625 38.921875 
Q 40.375 38.921875 44.984375 43.046875 
Q 49.609375 47.171875 49.609375 53.8125 
Q 49.609375 59.125 46.5 61.953125 
Q 43.40625 64.796875 37.59375 64.796875 
z
M 43.3125 35.015625 
Q 46.4375 34.28125 48.515625 31.390625 
Q 50.59375 28.515625 53.328125 19.921875 
L 59.515625 0 
L 49.125 0 
L 43.40625 18.703125 
Q 41.21875 25.921875 38.328125 28.359375 
Q 35.453125 30.8125 29.5 30.8125 
L 18.609375 30.8125 
L 12.59375 0 
L 2.6875 0 
L 16.890625 72.90625 
L 39.109375 72.90625 
Q 49.21875 72.90625 54.609375 68.328125 
Q 60.015625 63.765625 60.015625 55.171875 
Q 60.015625 47.5625 55.421875 41.984375 
Q 50.828125 36.421875 43.3125 35.015625 
z
" id="DejaVuSans-Oblique-82"/>
     </defs>
     <use transform="translate(0 0.765625)" xlink:href="#DejaVuSans-32"/>
     <use transform="translate(31.787109 0.765625)" xlink:href="#DejaVuSans-Oblique-82"/>
     <use transform="translate(108.286302 39.046875)scale(0.7)" xlink:href="#DejaVuSans-50"/>
     <use transform="translate(155.55681 0.765625)" xlink:href="#DejaVuSans-32"/>
     <use transform="translate(187.343919 0.765625)" xlink:href="#DejaVuSans-61"/>
     <use transform="translate(271.132982 0.765625)" xlink:href="#DejaVuSans-32"/>
     <use transform="translate(302.920091 0.765625)" xlink:href="#DejaVuSans-48"/>
     <use transform="translate(366.543138 0.765625)" xlink:href="#DejaVuSans-46"/>
     <use transform="translate(398.330247 0.765625)" xlink:href="#DejaVuSans-48"/>
     <use transform="translate(461.953294 0.765625)" xlink:href="#DejaVuSans-49"/>
     <use transform="translate(525.576341 0.765625)" xlink:href="#DejaVuSans-53"/>
     <use transform="translate(589.199388 0.765625)" xlink:href="#DejaVuSans-44"/>
     <use transform="translate(620.986497 0.765625)" xlink:href="#DejaVuSans-32"/>
     <use transform="translate(652.773607 0.765625)" xlink:href="#DejaVuSans-114"/>
     <use transform="translate(693.886888 0.765625)" xlink:href="#DejaVuSans-32"/>
     <use transform="translate(725.673997 0.765625)" xlink:href="#DejaVuSans-61"/>
     <use transform="translate(809.46306 0.765625)" xlink:href="#DejaVuSans-32"/>
     <use transform="translate(841.250169 0.765625)" xlink:href="#DejaVuSans-48"/>
     <use transform="translate(904.873216 0.765625)" xlink:href="#DejaVuSans-46"/>
     <use transform="translate(936.660326 0.765625)" xlink:href="#DejaVuSans-49"/>
     <use transform="translate(1000.283372 0.765625)" xlink:href="#DejaVuSans-52"/>
     <use transform="translate(1063.906419 0.765625)" xlink:href="#DejaVuSans-51"/>
    </g>
   </g>
  </g>
  <g id="axes_3">
   <g id="matplotlib.axis_5">
    <g id="xtick_41">
     <g id="line2d_56">
      <defs>
       <path d="M 0 0 
L 0 -3.5 
" id="m76b068397d" style="stroke:#ff0000;stroke-width:0.8;"/>
      </defs>
      <g>
       <use style="fill:#ff0000;stroke:#ff0000;stroke-width:0.8;" x="133.656238" xlink:href="#m76b068397d" y="82.28"/>
      </g>
     </g>
     <g id="text_30">
      <!-- 142 -->
      <g style="fill:#ff0000;" transform="translate(114.568738 71.120625)scale(0.2 -0.2)">
       <use xlink:href="#DejaVuSans-49"/>
       <use x="63.623047" xlink:href="#DejaVuSans-52"/>
       <use x="127.246094" xlink:href="#DejaVuSans-50"/>
      </g>
     </g>
    </g>
    <g id="xtick_42">
     <g id="line2d_57">
      <g>
       <use style="fill:#ff0000;stroke:#ff0000;stroke-width:0.8;" x="267.554158" xlink:href="#m76b068397d" y="82.28"/>
      </g>
     </g>
     <g id="text_31">
      <!-- 126 -->
      <g style="fill:#ff0000;" transform="translate(248.466658 71.120625)scale(0.2 -0.2)">
       <use xlink:href="#DejaVuSans-49"/>
       <use x="63.623047" xlink:href="#DejaVuSans-50"/>
       <use x="127.246094" xlink:href="#DejaVuSans-54"/>
      </g>
     </g>
    </g>
    <g id="xtick_43">
     <g id="line2d_58">
      <g>
       <use style="fill:#ff0000;stroke:#ff0000;stroke-width:0.8;" x="401.452079" xlink:href="#m76b068397d" y="82.28"/>
      </g>
     </g>
     <g id="text_32">
      <!-- 24 -->
      <g style="fill:#ff0000;" transform="translate(388.727079 71.120625)scale(0.2 -0.2)">
       <use xlink:href="#DejaVuSans-50"/>
       <use x="63.623047" xlink:href="#DejaVuSans-52"/>
      </g>
     </g>
    </g>
    <g id="xtick_44">
     <g id="line2d_59">
      <g>
       <use style="fill:#ff0000;stroke:#ff0000;stroke-width:0.8;" x="535.35" xlink:href="#m76b068397d" y="82.28"/>
      </g>
     </g>
     <g id="text_33">
      <!-- 0 -->
      <g style="fill:#ff0000;" transform="translate(528.9875 71.120625)scale(0.2 -0.2)">
       <use xlink:href="#DejaVuSans-48"/>
      </g>
     </g>
    </g>
    <g id="xtick_45">
     <g id="line2d_60">
      <defs>
       <path d="M 0 0 
L 0 -2 
" id="m0573e96626" style="stroke:#ff0000;stroke-width:0.6;"/>
      </defs>
      <g>
       <use style="fill:#ff0000;stroke:#ff0000;stroke-width:0.6;" x="93.348947" xlink:href="#m0573e96626" y="82.28"/>
      </g>
     </g>
    </g>
    <g id="xtick_46">
     <g id="line2d_61">
      <g>
       <use style="fill:#ff0000;stroke:#ff0000;stroke-width:0.6;" x="103.951151" xlink:href="#m0573e96626" y="82.28"/>
      </g>
     </g>
    </g>
    <g id="xtick_47">
     <g id="line2d_62">
      <g>
       <use style="fill:#ff0000;stroke:#ff0000;stroke-width:0.6;" x="112.915187" xlink:href="#m0573e96626" y="82.28"/>
      </g>
     </g>
    </g>
    <g id="xtick_48">
     <g id="line2d_63">
      <g>
       <use style="fill:#ff0000;stroke:#ff0000;stroke-width:0.6;" x="120.680188" xlink:href="#m0573e96626" y="82.28"/>
      </g>
     </g>
    </g>
    <g id="xtick_49">
     <g id="line2d_64">
      <g>
       <use style="fill:#ff0000;stroke:#ff0000;stroke-width:0.6;" x="127.529405" xlink:href="#m0573e96626" y="82.28"/>
      </g>
     </g>
    </g>
    <g id="xtick_50">
     <g id="line2d_65">
      <g>
       <use style="fill:#ff0000;stroke:#ff0000;stroke-width:0.6;" x="173.963528" xlink:href="#m0573e96626" y="82.28"/>
      </g>
     </g>
    </g>
    <g id="xtick_51">
     <g id="line2d_66">
      <g>
       <use style="fill:#ff0000;stroke:#ff0000;stroke-width:0.6;" x="197.541782" xlink:href="#m0573e96626" y="82.28"/>
      </g>
     </g>
    </g>
    <g id="xtick_52">
     <g id="line2d_67">
      <g>
       <use style="fill:#ff0000;stroke:#ff0000;stroke-width:0.6;" x="214.270819" xlink:href="#m0573e96626" y="82.28"/>
      </g>
     </g>
    </g>
    <g id="xtick_53">
     <g id="line2d_68">
      <g>
       <use style="fill:#ff0000;stroke:#ff0000;stroke-width:0.6;" x="227.246868" xlink:href="#m0573e96626" y="82.28"/>
      </g>
     </g>
    </g>
    <g id="xtick_54">
     <g id="line2d_69">
      <g>
       <use style="fill:#ff0000;stroke:#ff0000;stroke-width:0.6;" x="237.849072" xlink:href="#m0573e96626" y="82.28"/>
      </g>
     </g>
    </g>
    <g id="xtick_55">
     <g id="line2d_70">
      <g>
       <use style="fill:#ff0000;stroke:#ff0000;stroke-width:0.6;" x="246.813108" xlink:href="#m0573e96626" y="82.28"/>
      </g>
     </g>
    </g>
    <g id="xtick_56">
     <g id="line2d_71">
      <g>
       <use style="fill:#ff0000;stroke:#ff0000;stroke-width:0.6;" x="254.578109" xlink:href="#m0573e96626" y="82.28"/>
      </g>
     </g>
    </g>
    <g id="xtick_57">
     <g id="line2d_72">
      <g>
       <use style="fill:#ff0000;stroke:#ff0000;stroke-width:0.6;" x="261.427326" xlink:href="#m0573e96626" y="82.28"/>
      </g>
     </g>
    </g>
    <g id="xtick_58">
     <g id="line2d_73">
      <g>
       <use style="fill:#ff0000;stroke:#ff0000;stroke-width:0.6;" x="307.861449" xlink:href="#m0573e96626" y="82.28"/>
      </g>
     </g>
    </g>
    <g id="xtick_59">
     <g id="line2d_74">
      <g>
       <use style="fill:#ff0000;stroke:#ff0000;stroke-width:0.6;" x="331.439702" xlink:href="#m0573e96626" y="82.28"/>
      </g>
     </g>
    </g>
    <g id="xtick_60">
     <g id="line2d_75">
      <g>
       <use style="fill:#ff0000;stroke:#ff0000;stroke-width:0.6;" x="348.168739" xlink:href="#m0573e96626" y="82.28"/>
      </g>
     </g>
    </g>
    <g id="xtick_61">
     <g id="line2d_76">
      <g>
       <use style="fill:#ff0000;stroke:#ff0000;stroke-width:0.6;" x="361.144789" xlink:href="#m0573e96626" y="82.28"/>
      </g>
     </g>
    </g>
    <g id="xtick_62">
     <g id="line2d_77">
      <g>
       <use style="fill:#ff0000;stroke:#ff0000;stroke-width:0.6;" x="371.746993" xlink:href="#m0573e96626" y="82.28"/>
      </g>
     </g>
    </g>
    <g id="xtick_63">
     <g id="line2d_78">
      <g>
       <use style="fill:#ff0000;stroke:#ff0000;stroke-width:0.6;" x="380.711029" xlink:href="#m0573e96626" y="82.28"/>
      </g>
     </g>
    </g>
    <g id="xtick_64">
     <g id="line2d_79">
      <g>
       <use style="fill:#ff0000;stroke:#ff0000;stroke-width:0.6;" x="388.47603" xlink:href="#m0573e96626" y="82.28"/>
      </g>
     </g>
    </g>
    <g id="xtick_65">
     <g id="line2d_80">
      <g>
       <use style="fill:#ff0000;stroke:#ff0000;stroke-width:0.6;" x="395.325246" xlink:href="#m0573e96626" y="82.28"/>
      </g>
     </g>
    </g>
    <g id="xtick_66">
     <g id="line2d_81">
      <g>
       <use style="fill:#ff0000;stroke:#ff0000;stroke-width:0.6;" x="441.75937" xlink:href="#m0573e96626" y="82.28"/>
      </g>
     </g>
    </g>
    <g id="xtick_67">
     <g id="line2d_82">
      <g>
       <use style="fill:#ff0000;stroke:#ff0000;stroke-width:0.6;" x="465.337623" xlink:href="#m0573e96626" y="82.28"/>
      </g>
     </g>
    </g>
    <g id="xtick_68">
     <g id="line2d_83">
      <g>
       <use style="fill:#ff0000;stroke:#ff0000;stroke-width:0.6;" x="482.06666" xlink:href="#m0573e96626" y="82.28"/>
      </g>
     </g>
    </g>
    <g id="xtick_69">
     <g id="line2d_84">
      <g>
       <use style="fill:#ff0000;stroke:#ff0000;stroke-width:0.6;" x="495.042709" xlink:href="#m0573e96626" y="82.28"/>
      </g>
     </g>
    </g>
    <g id="xtick_70">
     <g id="line2d_85">
      <g>
       <use style="fill:#ff0000;stroke:#ff0000;stroke-width:0.6;" x="505.644914" xlink:href="#m0573e96626" y="82.28"/>
      </g>
     </g>
    </g>
    <g id="xtick_71">
     <g id="line2d_86">
      <g>
       <use style="fill:#ff0000;stroke:#ff0000;stroke-width:0.6;" x="514.60895" xlink:href="#m0573e96626" y="82.28"/>
      </g>
     </g>
    </g>
    <g id="xtick_72">
     <g id="line2d_87">
      <g>
       <use style="fill:#ff0000;stroke:#ff0000;stroke-width:0.6;" x="522.373951" xlink:href="#m0573e96626" y="82.28"/>
      </g>
     </g>
    </g>
    <g id="xtick_73">
     <g id="line2d_88">
      <g>
       <use style="fill:#ff0000;stroke:#ff0000;stroke-width:0.6;" x="529.223167" xlink:href="#m0573e96626" y="82.28"/>
      </g>
     </g>
    </g>
    <g id="text_34">
     <!-- Principal Components -->
     <g style="fill:#ff0000;" transform="translate(175.627734 51.92375)scale(0.25 -0.25)">
      <defs>
       <path d="M 18.109375 8.203125 
L 18.109375 -20.796875 
L 9.078125 -20.796875 
L 9.078125 54.6875 
L 18.109375 54.6875 
L 18.109375 46.390625 
Q 20.953125 51.265625 25.265625 53.625 
Q 29.59375 56 35.59375 56 
Q 45.5625 56 51.78125 48.09375 
Q 58.015625 40.1875 58.015625 27.296875 
Q 58.015625 14.40625 51.78125 6.484375 
Q 45.5625 -1.421875 35.59375 -1.421875 
Q 29.59375 -1.421875 25.265625 0.953125 
Q 20.953125 3.328125 18.109375 8.203125 
z
M 48.6875 27.296875 
Q 48.6875 37.203125 44.609375 42.84375 
Q 40.53125 48.484375 33.40625 48.484375 
Q 26.265625 48.484375 22.1875 42.84375 
Q 18.109375 37.203125 18.109375 27.296875 
Q 18.109375 17.390625 22.1875 11.75 
Q 26.265625 6.109375 33.40625 6.109375 
Q 40.53125 6.109375 44.609375 11.75 
Q 48.6875 17.390625 48.6875 27.296875 
z
" id="DejaVuSans-112"/>
       <path d="M 9.421875 75.984375 
L 18.40625 75.984375 
L 18.40625 0 
L 9.421875 0 
z
" id="DejaVuSans-108"/>
       <path d="M 64.40625 67.28125 
L 64.40625 56.890625 
Q 59.421875 61.53125 53.78125 63.8125 
Q 48.140625 66.109375 41.796875 66.109375 
Q 29.296875 66.109375 22.65625 58.46875 
Q 16.015625 50.828125 16.015625 36.375 
Q 16.015625 21.96875 22.65625 14.328125 
Q 29.296875 6.6875 41.796875 6.6875 
Q 48.140625 6.6875 53.78125 8.984375 
Q 59.421875 11.28125 64.40625 15.921875 
L 64.40625 5.609375 
Q 59.234375 2.09375 53.4375 0.328125 
Q 47.65625 -1.421875 41.21875 -1.421875 
Q 24.65625 -1.421875 15.125 8.703125 
Q 5.609375 18.84375 5.609375 36.375 
Q 5.609375 53.953125 15.125 64.078125 
Q 24.65625 74.21875 41.21875 74.21875 
Q 47.75 74.21875 53.53125 72.484375 
Q 59.328125 70.75 64.40625 67.28125 
z
" id="DejaVuSans-67"/>
       <path d="M 52 44.1875 
Q 55.375 50.25 60.0625 53.125 
Q 64.75 56 71.09375 56 
Q 79.640625 56 84.28125 50.015625 
Q 88.921875 44.046875 88.921875 33.015625 
L 88.921875 0 
L 79.890625 0 
L 79.890625 32.71875 
Q 79.890625 40.578125 77.09375 44.375 
Q 74.3125 48.1875 68.609375 48.1875 
Q 61.625 48.1875 57.5625 43.546875 
Q 53.515625 38.921875 53.515625 30.90625 
L 53.515625 0 
L 44.484375 0 
L 44.484375 32.71875 
Q 44.484375 40.625 41.703125 44.40625 
Q 38.921875 48.1875 33.109375 48.1875 
Q 26.21875 48.1875 22.15625 43.53125 
Q 18.109375 38.875 18.109375 30.90625 
L 18.109375 0 
L 9.078125 0 
L 9.078125 54.6875 
L 18.109375 54.6875 
L 18.109375 46.1875 
Q 21.1875 51.21875 25.484375 53.609375 
Q 29.78125 56 35.6875 56 
Q 41.65625 56 45.828125 52.96875 
Q 50 49.953125 52 44.1875 
z
" id="DejaVuSans-109"/>
      </defs>
      <use xlink:href="#DejaVuSans-80"/>
      <use x="58.552734" xlink:href="#DejaVuSans-114"/>
      <use x="99.666016" xlink:href="#DejaVuSans-105"/>
      <use x="127.449219" xlink:href="#DejaVuSans-110"/>
      <use x="190.828125" xlink:href="#DejaVuSans-99"/>
      <use x="245.808594" xlink:href="#DejaVuSans-105"/>
      <use x="273.591797" xlink:href="#DejaVuSans-112"/>
      <use x="337.068359" xlink:href="#DejaVuSans-97"/>
      <use x="398.347656" xlink:href="#DejaVuSans-108"/>
      <use x="426.130859" xlink:href="#DejaVuSans-32"/>
      <use x="457.917969" xlink:href="#DejaVuSans-67"/>
      <use x="527.742188" xlink:href="#DejaVuSans-111"/>
      <use x="588.923828" xlink:href="#DejaVuSans-109"/>
      <use x="686.335938" xlink:href="#DejaVuSans-112"/>
      <use x="749.8125" xlink:href="#DejaVuSans-111"/>
      <use x="810.994141" xlink:href="#DejaVuSans-110"/>
      <use x="874.373047" xlink:href="#DejaVuSans-101"/>
      <use x="935.896484" xlink:href="#DejaVuSans-110"/>
      <use x="999.275391" xlink:href="#DejaVuSans-116"/>
      <use x="1038.484375" xlink:href="#DejaVuSans-115"/>
     </g>
    </g>
   </g>
   <g id="line2d_89">
    <path clip-path="url(#p490430460f)" d="M 510.328451 98.503636 
L 508.317971 101.394332 
L 505.905396 103.065587 
L 505.5033 103.312977 
L 505.101204 103.812783 
L 502.688629 108.915017 
L 500.276054 113.553591 
L 497.863479 117.76761 
L 495.450904 121.593039 
L 492.636233 125.609303 
L 491.429945 127.403329 
L 491.027849 128.70759 
L 487.408987 146.82934 
L 484.594316 159.724756 
L 481.779645 171.633854 
L 478.964974 182.637944 
L 476.150303 192.811008 
L 474.139823 199.953232 
L 472.53144 208.72905 
L 469.716769 225.112382 
L 468.510481 232.189436 
L 465.69581 249.937905 
L 462.881139 266.273794 
L 458.458085 291.080984 
L 456.447605 303.05488 
L 453.230839 321.204354 
L 449.20988 344.738992 
L 447.199401 354.189503 
L 444.786826 364.241938 
L 443.982634 367.646031 
L 441.570059 378.333227 
L 437.951196 392.576087 
L 435.940717 399.692962 
L 434.332333 404.644221 
L 432.321854 408.630345 
L 430.311375 412.267455 
L 429.105087 414.501611 
L 427.8988 416.373251 
L 425.88832 419.550004 
L 424.682033 420.943799 
L 423.475745 421.610858 
L 420.258978 422.960435 
L 418.650595 422.622678 
L 417.444307 422.330812 
L 416.640116 422.273493 
L 415.835924 421.739917 
L 414.629636 420.813995 
L 413.825445 420.497484 
L 411.814965 419.37219 
L 410.206582 418.847014 
L 409.804486 418.586335 
L 409.40239 418.181768 
L 407.794007 417.109812 
L 406.185623 415.597142 
L 404.979336 414.315292 
L 404.175144 413.471877 
L 400.958377 409.336472 
L 399.752089 408.6506 
L 398.545802 407.565945 
L 397.74161 406.989806 
L 396.937418 406.569091 
L 396.535323 406.230679 
L 395.731131 406.138873 
L 393.720652 406.158054 
L 392.112268 406.677598 
L 390.905981 407.553601 
L 390.101789 407.817814 
L 389.297597 407.261382 
L 388.895501 406.968772 
L 388.493405 406.976235 
L 386.885022 406.498293 
L 386.08083 405.782251 
L 384.874543 404.109229 
L 383.668255 402.140553 
L 381.657776 398.610058 
L 380.853584 397.47406 
L 378.843105 393.851499 
L 376.832626 390.097024 
L 375.626338 388.026031 
L 374.42005 385.464391 
L 371.605379 378.67365 
L 369.192804 373.451336 
L 366.378133 366.481926 
L 364.76975 362.575649 
L 361.552983 354.595185 
L 360.346695 351.98253 
L 358.738312 348.606411 
L 355.923641 342.433612 
L 354.717353 340.228518 
L 350.696395 333.313666 
L 349.490107 330.354538 
L 347.479628 324.739767 
L 344.664957 315.927985 
L 342.252382 308.402416 
L 335.014656 288.13846 
L 331.395794 279.74615 
L 322.951781 260.712095 
L 314.105672 242.89448 
L 311.291001 237.741879 
L 308.47633 232.903481 
L 301.238604 221.55365 
L 294.000879 211.550727 
L 290.784112 207.304526 
L 288.371537 204.021158 
L 283.546386 197.616877 
L 278.721236 191.545795 
L 273.896086 185.863365 
L 271.081415 182.619661 
L 267.060456 177.888757 
L 262.637402 173.151057 
L 256.605964 167.124036 
L 251.780814 162.635092 
L 246.955663 158.406414 
L 241.728417 154.150744 
L 237.707459 151.127625 
L 233.6865 148.320904 
L 228.86135 145.193816 
L 224.036199 142.368488 
L 220.015241 140.301139 
L 213.983803 137.426644 
L 206.746078 134.155993 
L 202.725119 132.4839 
L 195.889489 129.904638 
L 189.455956 127.714368 
L 182.620326 125.626387 
L 175.382601 123.654424 
L 167.742779 121.811057 
L 159.700862 120.105563 
L 151.256849 118.543404 
L 142.41074 117.126486 
L 132.76044 115.802225 
L 122.305947 114.590461 
L 110.645167 113.468401 
L 108.634688 113.29652 
L 108.634688 113.29652 
" style="fill:none;stroke:#1f77b4;stroke-linecap:square;stroke-opacity:0;stroke-width:1.5;"/>
   </g>
   <g id="patch_12">
    <path d="M 88.55 439.2 
L 88.55 82.28 
" style="fill:none;stroke:#000000;stroke-linecap:square;stroke-linejoin:miter;stroke-width:0.8;"/>
   </g>
   <g id="patch_13">
    <path d="M 535.35 439.2 
L 535.35 82.28 
" style="fill:none;stroke:#000000;stroke-linecap:square;stroke-linejoin:miter;stroke-width:0.8;"/>
   </g>
   <g id="patch_14">
    <path d="M 88.55 439.2 
L 535.35 439.2 
" style="fill:none;stroke:#000000;stroke-linecap:square;stroke-linejoin:miter;stroke-width:0.8;"/>
   </g>
   <g id="patch_15">
    <path d="M 88.55 82.28 
L 535.35 82.28 
" style="fill:none;stroke:#000000;stroke-linecap:square;stroke-linejoin:miter;stroke-width:0.8;"/>
   </g>
  </g>
 </g>
 <defs>
  <clipPath id="p490430460f">
   <rect height="356.92" width="446.8" x="88.55" y="82.28"/>
  </clipPath>
  <clipPath id="pf069fbeb17">
   <rect height="356.92" width="446.8" x="622.4" y="82.28"/>
  </clipPath>
 </defs>
</svg>
