<?xml version="1.0" encoding="utf-8" standalone="no"?>
<!DOCTYPE svg PUBLIC "-//W3C//DTD SVG 1.1//EN"
  "http://www.w3.org/Graphics/SVG/1.1/DTD/svg11.dtd">
<!-- Created with matplotlib (https://matplotlib.org/) -->
<svg height="504pt" version="1.1" viewBox="0 0 1080 504" width="1080pt" xmlns="http://www.w3.org/2000/svg" xmlns:xlink="http://www.w3.org/1999/xlink">
 <metadata>
  <rdf:RDF xmlns:cc="http://creativecommons.org/ns#" xmlns:dc="http://purl.org/dc/elements/1.1/" xmlns:rdf="http://www.w3.org/1999/02/22-rdf-syntax-ns#">
   <cc:Work>
    <dc:type rdf:resource="http://purl.org/dc/dcmitype/StillImage"/>
    <dc:date>2021-03-23T16:29:55.613736</dc:date>
    <dc:format>image/svg+xml</dc:format>
    <dc:creator>
     <cc:Agent>
      <dc:title>Matplotlib v3.3.2, https://matplotlib.org/</dc:title>
     </cc:Agent>
    </dc:creator>
   </cc:Work>
  </rdf:RDF>
 </metadata>
 <defs>
  <style type="text/css">*{stroke-linecap:butt;stroke-linejoin:round;}</style>
 </defs>
 <g id="figure_1">
  <g id="patch_1">
   <path d="M 0 504 
L 1080 504 
L 1080 0 
L 0 0 
z
" style="fill:none;"/>
  </g>
  <g id="axes_1">
   <g id="patch_2">
    <path d="M 79.05 439.2 
L 522.225 439.2 
L 522.225 82.28 
L 79.05 82.28 
z
" style="fill:#ffffff;"/>
   </g>
   <g id="matplotlib.axis_1">
    <g id="xtick_1">
     <g id="line2d_1">
      <defs>
       <path d="M 0 0 
L 0 3.5 
" id="m44bf1709d6" style="stroke:#000000;stroke-width:0.8;"/>
      </defs>
      <g>
       <use style="stroke:#000000;stroke-width:0.8;" x="164.222778" xlink:href="#m44bf1709d6" y="439.2"/>
      </g>
     </g>
     <g id="text_1">
      <!-- 0.01 -->
      <g transform="translate(147.523559 457.597656)scale(0.15 -0.15)">
       <defs>
        <path d="M 31.78125 66.40625 
Q 24.171875 66.40625 20.328125 58.90625 
Q 16.5 51.421875 16.5 36.375 
Q 16.5 21.390625 20.328125 13.890625 
Q 24.171875 6.390625 31.78125 6.390625 
Q 39.453125 6.390625 43.28125 13.890625 
Q 47.125 21.390625 47.125 36.375 
Q 47.125 51.421875 43.28125 58.90625 
Q 39.453125 66.40625 31.78125 66.40625 
z
M 31.78125 74.21875 
Q 44.046875 74.21875 50.515625 64.515625 
Q 56.984375 54.828125 56.984375 36.375 
Q 56.984375 17.96875 50.515625 8.265625 
Q 44.046875 -1.421875 31.78125 -1.421875 
Q 19.53125 -1.421875 13.0625 8.265625 
Q 6.59375 17.96875 6.59375 36.375 
Q 6.59375 54.828125 13.0625 64.515625 
Q 19.53125 74.21875 31.78125 74.21875 
z
" id="DejaVuSans-48"/>
        <path d="M 10.6875 12.40625 
L 21 12.40625 
L 21 0 
L 10.6875 0 
z
" id="DejaVuSans-46"/>
        <path d="M 12.40625 8.296875 
L 28.515625 8.296875 
L 28.515625 63.921875 
L 10.984375 60.40625 
L 10.984375 69.390625 
L 28.421875 72.90625 
L 38.28125 72.90625 
L 38.28125 8.296875 
L 54.390625 8.296875 
L 54.390625 0 
L 12.40625 0 
z
" id="DejaVuSans-49"/>
       </defs>
       <use xlink:href="#DejaVuSans-48"/>
       <use x="63.623047" xlink:href="#DejaVuSans-46"/>
       <use x="95.410156" xlink:href="#DejaVuSans-48"/>
       <use x="159.033203" xlink:href="#DejaVuSans-49"/>
      </g>
     </g>
    </g>
    <g id="xtick_2">
     <g id="line2d_2">
      <g>
       <use style="stroke:#000000;stroke-width:0.8;" x="283.556852" xlink:href="#m44bf1709d6" y="439.2"/>
      </g>
     </g>
     <g id="text_2">
      <!-- 0.1 -->
      <g transform="translate(271.629508 457.597656)scale(0.15 -0.15)">
       <use xlink:href="#DejaVuSans-48"/>
       <use x="63.623047" xlink:href="#DejaVuSans-46"/>
       <use x="95.410156" xlink:href="#DejaVuSans-49"/>
      </g>
     </g>
    </g>
    <g id="xtick_3">
     <g id="line2d_3">
      <g>
       <use style="stroke:#000000;stroke-width:0.8;" x="402.890926" xlink:href="#m44bf1709d6" y="439.2"/>
      </g>
     </g>
     <g id="text_3">
      <!-- 1 -->
      <g transform="translate(398.119051 457.597656)scale(0.15 -0.15)">
       <use xlink:href="#DejaVuSans-49"/>
      </g>
     </g>
    </g>
    <g id="xtick_4">
     <g id="line2d_4">
      <g>
       <use style="stroke:#000000;stroke-width:0.8;" x="522.225" xlink:href="#m44bf1709d6" y="439.2"/>
      </g>
     </g>
     <g id="text_4">
      <!-- 10 -->
      <g transform="translate(512.68125 457.597656)scale(0.15 -0.15)">
       <use xlink:href="#DejaVuSans-49"/>
       <use x="63.623047" xlink:href="#DejaVuSans-48"/>
      </g>
     </g>
    </g>
    <g id="xtick_5">
     <g id="line2d_5">
      <defs>
       <path d="M 0 0 
L 0 2 
" id="md57d9e15e5" style="stroke:#000000;stroke-width:0.6;"/>
      </defs>
      <g>
       <use style="stroke:#000000;stroke-width:0.6;" x="80.81184" xlink:href="#md57d9e15e5" y="439.2"/>
      </g>
     </g>
    </g>
    <g id="xtick_6">
     <g id="line2d_6">
      <g>
       <use style="stroke:#000000;stroke-width:0.6;" x="101.825527" xlink:href="#md57d9e15e5" y="439.2"/>
      </g>
     </g>
    </g>
    <g id="xtick_7">
     <g id="line2d_7">
      <g>
       <use style="stroke:#000000;stroke-width:0.6;" x="116.734976" xlink:href="#md57d9e15e5" y="439.2"/>
      </g>
     </g>
    </g>
    <g id="xtick_8">
     <g id="line2d_8">
      <g>
       <use style="stroke:#000000;stroke-width:0.6;" x="128.299642" xlink:href="#md57d9e15e5" y="439.2"/>
      </g>
     </g>
    </g>
    <g id="xtick_9">
     <g id="line2d_9">
      <g>
       <use style="stroke:#000000;stroke-width:0.6;" x="137.748663" xlink:href="#md57d9e15e5" y="439.2"/>
      </g>
     </g>
    </g>
    <g id="xtick_10">
     <g id="line2d_10">
      <g>
       <use style="stroke:#000000;stroke-width:0.6;" x="145.737696" xlink:href="#md57d9e15e5" y="439.2"/>
      </g>
     </g>
    </g>
    <g id="xtick_11">
     <g id="line2d_11">
      <g>
       <use style="stroke:#000000;stroke-width:0.6;" x="152.658111" xlink:href="#md57d9e15e5" y="439.2"/>
      </g>
     </g>
    </g>
    <g id="xtick_12">
     <g id="line2d_12">
      <g>
       <use style="stroke:#000000;stroke-width:0.6;" x="158.76235" xlink:href="#md57d9e15e5" y="439.2"/>
      </g>
     </g>
    </g>
    <g id="xtick_13">
     <g id="line2d_13">
      <g>
       <use style="stroke:#000000;stroke-width:0.6;" x="200.145914" xlink:href="#md57d9e15e5" y="439.2"/>
      </g>
     </g>
    </g>
    <g id="xtick_14">
     <g id="line2d_14">
      <g>
       <use style="stroke:#000000;stroke-width:0.6;" x="221.159601" xlink:href="#md57d9e15e5" y="439.2"/>
      </g>
     </g>
    </g>
    <g id="xtick_15">
     <g id="line2d_15">
      <g>
       <use style="stroke:#000000;stroke-width:0.6;" x="236.06905" xlink:href="#md57d9e15e5" y="439.2"/>
      </g>
     </g>
    </g>
    <g id="xtick_16">
     <g id="line2d_16">
      <g>
       <use style="stroke:#000000;stroke-width:0.6;" x="247.633716" xlink:href="#md57d9e15e5" y="439.2"/>
      </g>
     </g>
    </g>
    <g id="xtick_17">
     <g id="line2d_17">
      <g>
       <use style="stroke:#000000;stroke-width:0.6;" x="257.082737" xlink:href="#md57d9e15e5" y="439.2"/>
      </g>
     </g>
    </g>
    <g id="xtick_18">
     <g id="line2d_18">
      <g>
       <use style="stroke:#000000;stroke-width:0.6;" x="265.07177" xlink:href="#md57d9e15e5" y="439.2"/>
      </g>
     </g>
    </g>
    <g id="xtick_19">
     <g id="line2d_19">
      <g>
       <use style="stroke:#000000;stroke-width:0.6;" x="271.992185" xlink:href="#md57d9e15e5" y="439.2"/>
      </g>
     </g>
    </g>
    <g id="xtick_20">
     <g id="line2d_20">
      <g>
       <use style="stroke:#000000;stroke-width:0.6;" x="278.096424" xlink:href="#md57d9e15e5" y="439.2"/>
      </g>
     </g>
    </g>
    <g id="xtick_21">
     <g id="line2d_21">
      <g>
       <use style="stroke:#000000;stroke-width:0.6;" x="319.479988" xlink:href="#md57d9e15e5" y="439.2"/>
      </g>
     </g>
    </g>
    <g id="xtick_22">
     <g id="line2d_22">
      <g>
       <use style="stroke:#000000;stroke-width:0.6;" x="340.493675" xlink:href="#md57d9e15e5" y="439.2"/>
      </g>
     </g>
    </g>
    <g id="xtick_23">
     <g id="line2d_23">
      <g>
       <use style="stroke:#000000;stroke-width:0.6;" x="355.403124" xlink:href="#md57d9e15e5" y="439.2"/>
      </g>
     </g>
    </g>
    <g id="xtick_24">
     <g id="line2d_24">
      <g>
       <use style="stroke:#000000;stroke-width:0.6;" x="366.96779" xlink:href="#md57d9e15e5" y="439.2"/>
      </g>
     </g>
    </g>
    <g id="xtick_25">
     <g id="line2d_25">
      <g>
       <use style="stroke:#000000;stroke-width:0.6;" x="376.416811" xlink:href="#md57d9e15e5" y="439.2"/>
      </g>
     </g>
    </g>
    <g id="xtick_26">
     <g id="line2d_26">
      <g>
       <use style="stroke:#000000;stroke-width:0.6;" x="384.405844" xlink:href="#md57d9e15e5" y="439.2"/>
      </g>
     </g>
    </g>
    <g id="xtick_27">
     <g id="line2d_27">
      <g>
       <use style="stroke:#000000;stroke-width:0.6;" x="391.326259" xlink:href="#md57d9e15e5" y="439.2"/>
      </g>
     </g>
    </g>
    <g id="xtick_28">
     <g id="line2d_28">
      <g>
       <use style="stroke:#000000;stroke-width:0.6;" x="397.430498" xlink:href="#md57d9e15e5" y="439.2"/>
      </g>
     </g>
    </g>
    <g id="xtick_29">
     <g id="line2d_29">
      <g>
       <use style="stroke:#000000;stroke-width:0.6;" x="438.814062" xlink:href="#md57d9e15e5" y="439.2"/>
      </g>
     </g>
    </g>
    <g id="xtick_30">
     <g id="line2d_30">
      <g>
       <use style="stroke:#000000;stroke-width:0.6;" x="459.827749" xlink:href="#md57d9e15e5" y="439.2"/>
      </g>
     </g>
    </g>
    <g id="xtick_31">
     <g id="line2d_31">
      <g>
       <use style="stroke:#000000;stroke-width:0.6;" x="474.737198" xlink:href="#md57d9e15e5" y="439.2"/>
      </g>
     </g>
    </g>
    <g id="xtick_32">
     <g id="line2d_32">
      <g>
       <use style="stroke:#000000;stroke-width:0.6;" x="486.301864" xlink:href="#md57d9e15e5" y="439.2"/>
      </g>
     </g>
    </g>
    <g id="xtick_33">
     <g id="line2d_33">
      <g>
       <use style="stroke:#000000;stroke-width:0.6;" x="495.750885" xlink:href="#md57d9e15e5" y="439.2"/>
      </g>
     </g>
    </g>
    <g id="xtick_34">
     <g id="line2d_34">
      <g>
       <use style="stroke:#000000;stroke-width:0.6;" x="503.739918" xlink:href="#md57d9e15e5" y="439.2"/>
      </g>
     </g>
    </g>
    <g id="xtick_35">
     <g id="line2d_35">
      <g>
       <use style="stroke:#000000;stroke-width:0.6;" x="510.660333" xlink:href="#md57d9e15e5" y="439.2"/>
      </g>
     </g>
    </g>
    <g id="xtick_36">
     <g id="line2d_36">
      <g>
       <use style="stroke:#000000;stroke-width:0.6;" x="516.764572" xlink:href="#md57d9e15e5" y="439.2"/>
      </g>
     </g>
    </g>
    <g id="text_5">
     <!-- $\lambda$ -->
     <g transform="translate(293.1375 483.713281)scale(0.25 -0.25)">
      <defs>
       <path d="M 36.71875 67.4375 
L 48.828125 0 
L 39.3125 0 
L 31.84375 40.4375 
L 5.125 0 
L -4.390625 0 
L 29.734375 52.4375 
L 28.03125 62.109375 
Q 26.953125 68.265625 21.734375 68.265625 
L 17.046875 68.265625 
L 18.5 75.984375 
L 24.21875 75.875 
Q 35.203125 75.734375 36.71875 67.4375 
z
" id="DejaVuSans-Oblique-955"/>
      </defs>
      <use transform="translate(0 0.015625)" xlink:href="#DejaVuSans-Oblique-955"/>
     </g>
    </g>
   </g>
   <g id="matplotlib.axis_2">
    <g id="ytick_1">
     <g id="line2d_37">
      <defs>
       <path d="M 0 0 
L -3.5 0 
" id="m749aa99981" style="stroke:#000000;stroke-width:0.8;"/>
      </defs>
      <g>
       <use style="stroke:#000000;stroke-width:0.8;" x="79.05" xlink:href="#m749aa99981" y="404.263946"/>
      </g>
     </g>
     <g id="text_6">
      <!-- 0.27 -->
      <g transform="translate(38.651563 409.962775)scale(0.15 -0.15)">
       <defs>
        <path d="M 19.1875 8.296875 
L 53.609375 8.296875 
L 53.609375 0 
L 7.328125 0 
L 7.328125 8.296875 
Q 12.9375 14.109375 22.625 23.890625 
Q 32.328125 33.6875 34.8125 36.53125 
Q 39.546875 41.84375 41.421875 45.53125 
Q 43.3125 49.21875 43.3125 52.78125 
Q 43.3125 58.59375 39.234375 62.25 
Q 35.15625 65.921875 28.609375 65.921875 
Q 23.96875 65.921875 18.8125 64.3125 
Q 13.671875 62.703125 7.8125 59.421875 
L 7.8125 69.390625 
Q 13.765625 71.78125 18.9375 73 
Q 24.125 74.21875 28.421875 74.21875 
Q 39.75 74.21875 46.484375 68.546875 
Q 53.21875 62.890625 53.21875 53.421875 
Q 53.21875 48.921875 51.53125 44.890625 
Q 49.859375 40.875 45.40625 35.40625 
Q 44.1875 33.984375 37.640625 27.21875 
Q 31.109375 20.453125 19.1875 8.296875 
z
" id="DejaVuSans-50"/>
        <path d="M 8.203125 72.90625 
L 55.078125 72.90625 
L 55.078125 68.703125 
L 28.609375 0 
L 18.3125 0 
L 43.21875 64.59375 
L 8.203125 64.59375 
z
" id="DejaVuSans-55"/>
       </defs>
       <use xlink:href="#DejaVuSans-48"/>
       <use x="63.623047" xlink:href="#DejaVuSans-46"/>
       <use x="95.410156" xlink:href="#DejaVuSans-50"/>
       <use x="159.033203" xlink:href="#DejaVuSans-55"/>
      </g>
     </g>
    </g>
    <g id="ytick_2">
     <g id="line2d_38">
      <g>
       <use style="stroke:#000000;stroke-width:0.8;" x="79.05" xlink:href="#m749aa99981" y="359.254864"/>
      </g>
     </g>
     <g id="text_7">
      <!-- 0.28 -->
      <g transform="translate(38.651563 364.953692)scale(0.15 -0.15)">
       <defs>
        <path d="M 31.78125 34.625 
Q 24.75 34.625 20.71875 30.859375 
Q 16.703125 27.09375 16.703125 20.515625 
Q 16.703125 13.921875 20.71875 10.15625 
Q 24.75 6.390625 31.78125 6.390625 
Q 38.8125 6.390625 42.859375 10.171875 
Q 46.921875 13.96875 46.921875 20.515625 
Q 46.921875 27.09375 42.890625 30.859375 
Q 38.875 34.625 31.78125 34.625 
z
M 21.921875 38.8125 
Q 15.578125 40.375 12.03125 44.71875 
Q 8.5 49.078125 8.5 55.328125 
Q 8.5 64.0625 14.71875 69.140625 
Q 20.953125 74.21875 31.78125 74.21875 
Q 42.671875 74.21875 48.875 69.140625 
Q 55.078125 64.0625 55.078125 55.328125 
Q 55.078125 49.078125 51.53125 44.71875 
Q 48 40.375 41.703125 38.8125 
Q 48.828125 37.15625 52.796875 32.3125 
Q 56.78125 27.484375 56.78125 20.515625 
Q 56.78125 9.90625 50.3125 4.234375 
Q 43.84375 -1.421875 31.78125 -1.421875 
Q 19.734375 -1.421875 13.25 4.234375 
Q 6.78125 9.90625 6.78125 20.515625 
Q 6.78125 27.484375 10.78125 32.3125 
Q 14.796875 37.15625 21.921875 38.8125 
z
M 18.3125 54.390625 
Q 18.3125 48.734375 21.84375 45.5625 
Q 25.390625 42.390625 31.78125 42.390625 
Q 38.140625 42.390625 41.71875 45.5625 
Q 45.3125 48.734375 45.3125 54.390625 
Q 45.3125 60.0625 41.71875 63.234375 
Q 38.140625 66.40625 31.78125 66.40625 
Q 25.390625 66.40625 21.84375 63.234375 
Q 18.3125 60.0625 18.3125 54.390625 
z
" id="DejaVuSans-56"/>
       </defs>
       <use xlink:href="#DejaVuSans-48"/>
       <use x="63.623047" xlink:href="#DejaVuSans-46"/>
       <use x="95.410156" xlink:href="#DejaVuSans-50"/>
       <use x="159.033203" xlink:href="#DejaVuSans-56"/>
      </g>
     </g>
    </g>
    <g id="ytick_3">
     <g id="line2d_39">
      <g>
       <use style="stroke:#000000;stroke-width:0.8;" x="79.05" xlink:href="#m749aa99981" y="314.245782"/>
      </g>
     </g>
     <g id="text_8">
      <!-- 0.29 -->
      <g transform="translate(38.651563 319.94461)scale(0.15 -0.15)">
       <defs>
        <path d="M 10.984375 1.515625 
L 10.984375 10.5 
Q 14.703125 8.734375 18.5 7.8125 
Q 22.3125 6.890625 25.984375 6.890625 
Q 35.75 6.890625 40.890625 13.453125 
Q 46.046875 20.015625 46.78125 33.40625 
Q 43.953125 29.203125 39.59375 26.953125 
Q 35.25 24.703125 29.984375 24.703125 
Q 19.046875 24.703125 12.671875 31.3125 
Q 6.296875 37.9375 6.296875 49.421875 
Q 6.296875 60.640625 12.9375 67.421875 
Q 19.578125 74.21875 30.609375 74.21875 
Q 43.265625 74.21875 49.921875 64.515625 
Q 56.59375 54.828125 56.59375 36.375 
Q 56.59375 19.140625 48.40625 8.859375 
Q 40.234375 -1.421875 26.421875 -1.421875 
Q 22.703125 -1.421875 18.890625 -0.6875 
Q 15.09375 0.046875 10.984375 1.515625 
z
M 30.609375 32.421875 
Q 37.25 32.421875 41.125 36.953125 
Q 45.015625 41.5 45.015625 49.421875 
Q 45.015625 57.28125 41.125 61.84375 
Q 37.25 66.40625 30.609375 66.40625 
Q 23.96875 66.40625 20.09375 61.84375 
Q 16.21875 57.28125 16.21875 49.421875 
Q 16.21875 41.5 20.09375 36.953125 
Q 23.96875 32.421875 30.609375 32.421875 
z
" id="DejaVuSans-57"/>
       </defs>
       <use xlink:href="#DejaVuSans-48"/>
       <use x="63.623047" xlink:href="#DejaVuSans-46"/>
       <use x="95.410156" xlink:href="#DejaVuSans-50"/>
       <use x="159.033203" xlink:href="#DejaVuSans-57"/>
      </g>
     </g>
    </g>
    <g id="ytick_4">
     <g id="line2d_40">
      <g>
       <use style="stroke:#000000;stroke-width:0.8;" x="79.05" xlink:href="#m749aa99981" y="269.236699"/>
      </g>
     </g>
     <g id="text_9">
      <!-- 0.30 -->
      <g transform="translate(38.651563 274.935527)scale(0.15 -0.15)">
       <defs>
        <path d="M 40.578125 39.3125 
Q 47.65625 37.796875 51.625 33 
Q 55.609375 28.21875 55.609375 21.1875 
Q 55.609375 10.40625 48.1875 4.484375 
Q 40.765625 -1.421875 27.09375 -1.421875 
Q 22.515625 -1.421875 17.65625 -0.515625 
Q 12.796875 0.390625 7.625 2.203125 
L 7.625 11.71875 
Q 11.71875 9.328125 16.59375 8.109375 
Q 21.484375 6.890625 26.8125 6.890625 
Q 36.078125 6.890625 40.9375 10.546875 
Q 45.796875 14.203125 45.796875 21.1875 
Q 45.796875 27.640625 41.28125 31.265625 
Q 36.765625 34.90625 28.71875 34.90625 
L 20.21875 34.90625 
L 20.21875 43.015625 
L 29.109375 43.015625 
Q 36.375 43.015625 40.234375 45.921875 
Q 44.09375 48.828125 44.09375 54.296875 
Q 44.09375 59.90625 40.109375 62.90625 
Q 36.140625 65.921875 28.71875 65.921875 
Q 24.65625 65.921875 20.015625 65.03125 
Q 15.375 64.15625 9.8125 62.3125 
L 9.8125 71.09375 
Q 15.4375 72.65625 20.34375 73.4375 
Q 25.25 74.21875 29.59375 74.21875 
Q 40.828125 74.21875 47.359375 69.109375 
Q 53.90625 64.015625 53.90625 55.328125 
Q 53.90625 49.265625 50.4375 45.09375 
Q 46.96875 40.921875 40.578125 39.3125 
z
" id="DejaVuSans-51"/>
       </defs>
       <use xlink:href="#DejaVuSans-48"/>
       <use x="63.623047" xlink:href="#DejaVuSans-46"/>
       <use x="95.410156" xlink:href="#DejaVuSans-51"/>
       <use x="159.033203" xlink:href="#DejaVuSans-48"/>
      </g>
     </g>
    </g>
    <g id="ytick_5">
     <g id="line2d_41">
      <g>
       <use style="stroke:#000000;stroke-width:0.8;" x="79.05" xlink:href="#m749aa99981" y="224.227617"/>
      </g>
     </g>
     <g id="text_10">
      <!-- 0.31 -->
      <g transform="translate(38.651563 229.926445)scale(0.15 -0.15)">
       <use xlink:href="#DejaVuSans-48"/>
       <use x="63.623047" xlink:href="#DejaVuSans-46"/>
       <use x="95.410156" xlink:href="#DejaVuSans-51"/>
       <use x="159.033203" xlink:href="#DejaVuSans-49"/>
      </g>
     </g>
    </g>
    <g id="ytick_6">
     <g id="line2d_42">
      <g>
       <use style="stroke:#000000;stroke-width:0.8;" x="79.05" xlink:href="#m749aa99981" y="179.218535"/>
      </g>
     </g>
     <g id="text_11">
      <!-- 0.32 -->
      <g transform="translate(38.651563 184.917363)scale(0.15 -0.15)">
       <use xlink:href="#DejaVuSans-48"/>
       <use x="63.623047" xlink:href="#DejaVuSans-46"/>
       <use x="95.410156" xlink:href="#DejaVuSans-51"/>
       <use x="159.033203" xlink:href="#DejaVuSans-50"/>
      </g>
     </g>
    </g>
    <g id="ytick_7">
     <g id="line2d_43">
      <g>
       <use style="stroke:#000000;stroke-width:0.8;" x="79.05" xlink:href="#m749aa99981" y="134.209452"/>
      </g>
     </g>
     <g id="text_12">
      <!-- 0.33 -->
      <g transform="translate(38.651563 139.90828)scale(0.15 -0.15)">
       <use xlink:href="#DejaVuSans-48"/>
       <use x="63.623047" xlink:href="#DejaVuSans-46"/>
       <use x="95.410156" xlink:href="#DejaVuSans-51"/>
       <use x="159.033203" xlink:href="#DejaVuSans-51"/>
      </g>
     </g>
    </g>
    <g id="ytick_8">
     <g id="line2d_44">
      <g>
       <use style="stroke:#000000;stroke-width:0.8;" x="79.05" xlink:href="#m749aa99981" y="89.20037"/>
      </g>
     </g>
     <g id="text_13">
      <!-- 0.34 -->
      <g transform="translate(38.651563 94.899198)scale(0.15 -0.15)">
       <defs>
        <path d="M 37.796875 64.3125 
L 12.890625 25.390625 
L 37.796875 25.390625 
z
M 35.203125 72.90625 
L 47.609375 72.90625 
L 47.609375 25.390625 
L 58.015625 25.390625 
L 58.015625 17.1875 
L 47.609375 17.1875 
L 47.609375 0 
L 37.796875 0 
L 37.796875 17.1875 
L 4.890625 17.1875 
L 4.890625 26.703125 
z
" id="DejaVuSans-52"/>
       </defs>
       <use xlink:href="#DejaVuSans-48"/>
       <use x="63.623047" xlink:href="#DejaVuSans-46"/>
       <use x="95.410156" xlink:href="#DejaVuSans-51"/>
       <use x="159.033203" xlink:href="#DejaVuSans-52"/>
      </g>
     </g>
    </g>
    <g id="text_14">
     <!-- Mean Squared Error -->
     <g transform="translate(29.452344 385.144297)rotate(-90)scale(0.25 -0.25)">
      <defs>
       <path d="M 9.8125 72.90625 
L 24.515625 72.90625 
L 43.109375 23.296875 
L 61.8125 72.90625 
L 76.515625 72.90625 
L 76.515625 0 
L 66.890625 0 
L 66.890625 64.015625 
L 48.09375 14.015625 
L 38.1875 14.015625 
L 19.390625 64.015625 
L 19.390625 0 
L 9.8125 0 
z
" id="DejaVuSans-77"/>
       <path d="M 56.203125 29.59375 
L 56.203125 25.203125 
L 14.890625 25.203125 
Q 15.484375 15.921875 20.484375 11.0625 
Q 25.484375 6.203125 34.421875 6.203125 
Q 39.59375 6.203125 44.453125 7.46875 
Q 49.3125 8.734375 54.109375 11.28125 
L 54.109375 2.78125 
Q 49.265625 0.734375 44.1875 -0.34375 
Q 39.109375 -1.421875 33.890625 -1.421875 
Q 20.796875 -1.421875 13.15625 6.1875 
Q 5.515625 13.8125 5.515625 26.8125 
Q 5.515625 40.234375 12.765625 48.109375 
Q 20.015625 56 32.328125 56 
Q 43.359375 56 49.78125 48.890625 
Q 56.203125 41.796875 56.203125 29.59375 
z
M 47.21875 32.234375 
Q 47.125 39.59375 43.09375 43.984375 
Q 39.0625 48.390625 32.421875 48.390625 
Q 24.90625 48.390625 20.390625 44.140625 
Q 15.875 39.890625 15.1875 32.171875 
z
" id="DejaVuSans-101"/>
       <path d="M 34.28125 27.484375 
Q 23.390625 27.484375 19.1875 25 
Q 14.984375 22.515625 14.984375 16.5 
Q 14.984375 11.71875 18.140625 8.90625 
Q 21.296875 6.109375 26.703125 6.109375 
Q 34.1875 6.109375 38.703125 11.40625 
Q 43.21875 16.703125 43.21875 25.484375 
L 43.21875 27.484375 
z
M 52.203125 31.203125 
L 52.203125 0 
L 43.21875 0 
L 43.21875 8.296875 
Q 40.140625 3.328125 35.546875 0.953125 
Q 30.953125 -1.421875 24.3125 -1.421875 
Q 15.921875 -1.421875 10.953125 3.296875 
Q 6 8.015625 6 15.921875 
Q 6 25.140625 12.171875 29.828125 
Q 18.359375 34.515625 30.609375 34.515625 
L 43.21875 34.515625 
L 43.21875 35.40625 
Q 43.21875 41.609375 39.140625 45 
Q 35.0625 48.390625 27.6875 48.390625 
Q 23 48.390625 18.546875 47.265625 
Q 14.109375 46.140625 10.015625 43.890625 
L 10.015625 52.203125 
Q 14.9375 54.109375 19.578125 55.046875 
Q 24.21875 56 28.609375 56 
Q 40.484375 56 46.34375 49.84375 
Q 52.203125 43.703125 52.203125 31.203125 
z
" id="DejaVuSans-97"/>
       <path d="M 54.890625 33.015625 
L 54.890625 0 
L 45.90625 0 
L 45.90625 32.71875 
Q 45.90625 40.484375 42.875 44.328125 
Q 39.84375 48.1875 33.796875 48.1875 
Q 26.515625 48.1875 22.3125 43.546875 
Q 18.109375 38.921875 18.109375 30.90625 
L 18.109375 0 
L 9.078125 0 
L 9.078125 54.6875 
L 18.109375 54.6875 
L 18.109375 46.1875 
Q 21.34375 51.125 25.703125 53.5625 
Q 30.078125 56 35.796875 56 
Q 45.21875 56 50.046875 50.171875 
Q 54.890625 44.34375 54.890625 33.015625 
z
" id="DejaVuSans-110"/>
       <path id="DejaVuSans-32"/>
       <path d="M 53.515625 70.515625 
L 53.515625 60.890625 
Q 47.90625 63.578125 42.921875 64.890625 
Q 37.9375 66.21875 33.296875 66.21875 
Q 25.25 66.21875 20.875 63.09375 
Q 16.5 59.96875 16.5 54.203125 
Q 16.5 49.359375 19.40625 46.890625 
Q 22.3125 44.4375 30.421875 42.921875 
L 36.375 41.703125 
Q 47.40625 39.59375 52.65625 34.296875 
Q 57.90625 29 57.90625 20.125 
Q 57.90625 9.515625 50.796875 4.046875 
Q 43.703125 -1.421875 29.984375 -1.421875 
Q 24.8125 -1.421875 18.96875 -0.25 
Q 13.140625 0.921875 6.890625 3.21875 
L 6.890625 13.375 
Q 12.890625 10.015625 18.65625 8.296875 
Q 24.421875 6.59375 29.984375 6.59375 
Q 38.421875 6.59375 43.015625 9.90625 
Q 47.609375 13.234375 47.609375 19.390625 
Q 47.609375 24.75 44.3125 27.78125 
Q 41.015625 30.8125 33.5 32.328125 
L 27.484375 33.5 
Q 16.453125 35.6875 11.515625 40.375 
Q 6.59375 45.0625 6.59375 53.421875 
Q 6.59375 63.09375 13.40625 68.65625 
Q 20.21875 74.21875 32.171875 74.21875 
Q 37.3125 74.21875 42.625 73.28125 
Q 47.953125 72.359375 53.515625 70.515625 
z
" id="DejaVuSans-83"/>
       <path d="M 14.796875 27.296875 
Q 14.796875 17.390625 18.875 11.75 
Q 22.953125 6.109375 30.078125 6.109375 
Q 37.203125 6.109375 41.296875 11.75 
Q 45.40625 17.390625 45.40625 27.296875 
Q 45.40625 37.203125 41.296875 42.84375 
Q 37.203125 48.484375 30.078125 48.484375 
Q 22.953125 48.484375 18.875 42.84375 
Q 14.796875 37.203125 14.796875 27.296875 
z
M 45.40625 8.203125 
Q 42.578125 3.328125 38.25 0.953125 
Q 33.9375 -1.421875 27.875 -1.421875 
Q 17.96875 -1.421875 11.734375 6.484375 
Q 5.515625 14.40625 5.515625 27.296875 
Q 5.515625 40.1875 11.734375 48.09375 
Q 17.96875 56 27.875 56 
Q 33.9375 56 38.25 53.625 
Q 42.578125 51.265625 45.40625 46.390625 
L 45.40625 54.6875 
L 54.390625 54.6875 
L 54.390625 -20.796875 
L 45.40625 -20.796875 
z
" id="DejaVuSans-113"/>
       <path d="M 8.5 21.578125 
L 8.5 54.6875 
L 17.484375 54.6875 
L 17.484375 21.921875 
Q 17.484375 14.15625 20.5 10.265625 
Q 23.53125 6.390625 29.59375 6.390625 
Q 36.859375 6.390625 41.078125 11.03125 
Q 45.3125 15.671875 45.3125 23.6875 
L 45.3125 54.6875 
L 54.296875 54.6875 
L 54.296875 0 
L 45.3125 0 
L 45.3125 8.40625 
Q 42.046875 3.421875 37.71875 1 
Q 33.40625 -1.421875 27.6875 -1.421875 
Q 18.265625 -1.421875 13.375 4.4375 
Q 8.5 10.296875 8.5 21.578125 
z
M 31.109375 56 
z
" id="DejaVuSans-117"/>
       <path d="M 41.109375 46.296875 
Q 39.59375 47.171875 37.8125 47.578125 
Q 36.03125 48 33.890625 48 
Q 26.265625 48 22.1875 43.046875 
Q 18.109375 38.09375 18.109375 28.8125 
L 18.109375 0 
L 9.078125 0 
L 9.078125 54.6875 
L 18.109375 54.6875 
L 18.109375 46.1875 
Q 20.953125 51.171875 25.484375 53.578125 
Q 30.03125 56 36.53125 56 
Q 37.453125 56 38.578125 55.875 
Q 39.703125 55.765625 41.0625 55.515625 
z
" id="DejaVuSans-114"/>
       <path d="M 45.40625 46.390625 
L 45.40625 75.984375 
L 54.390625 75.984375 
L 54.390625 0 
L 45.40625 0 
L 45.40625 8.203125 
Q 42.578125 3.328125 38.25 0.953125 
Q 33.9375 -1.421875 27.875 -1.421875 
Q 17.96875 -1.421875 11.734375 6.484375 
Q 5.515625 14.40625 5.515625 27.296875 
Q 5.515625 40.1875 11.734375 48.09375 
Q 17.96875 56 27.875 56 
Q 33.9375 56 38.25 53.625 
Q 42.578125 51.265625 45.40625 46.390625 
z
M 14.796875 27.296875 
Q 14.796875 17.390625 18.875 11.75 
Q 22.953125 6.109375 30.078125 6.109375 
Q 37.203125 6.109375 41.296875 11.75 
Q 45.40625 17.390625 45.40625 27.296875 
Q 45.40625 37.203125 41.296875 42.84375 
Q 37.203125 48.484375 30.078125 48.484375 
Q 22.953125 48.484375 18.875 42.84375 
Q 14.796875 37.203125 14.796875 27.296875 
z
" id="DejaVuSans-100"/>
       <path d="M 9.8125 72.90625 
L 55.90625 72.90625 
L 55.90625 64.59375 
L 19.671875 64.59375 
L 19.671875 43.015625 
L 54.390625 43.015625 
L 54.390625 34.71875 
L 19.671875 34.71875 
L 19.671875 8.296875 
L 56.78125 8.296875 
L 56.78125 0 
L 9.8125 0 
z
" id="DejaVuSans-69"/>
       <path d="M 30.609375 48.390625 
Q 23.390625 48.390625 19.1875 42.75 
Q 14.984375 37.109375 14.984375 27.296875 
Q 14.984375 17.484375 19.15625 11.84375 
Q 23.34375 6.203125 30.609375 6.203125 
Q 37.796875 6.203125 41.984375 11.859375 
Q 46.1875 17.53125 46.1875 27.296875 
Q 46.1875 37.015625 41.984375 42.703125 
Q 37.796875 48.390625 30.609375 48.390625 
z
M 30.609375 56 
Q 42.328125 56 49.015625 48.375 
Q 55.71875 40.765625 55.71875 27.296875 
Q 55.71875 13.875 49.015625 6.21875 
Q 42.328125 -1.421875 30.609375 -1.421875 
Q 18.84375 -1.421875 12.171875 6.21875 
Q 5.515625 13.875 5.515625 27.296875 
Q 5.515625 40.765625 12.171875 48.375 
Q 18.84375 56 30.609375 56 
z
" id="DejaVuSans-111"/>
      </defs>
      <use xlink:href="#DejaVuSans-77"/>
      <use x="86.279297" xlink:href="#DejaVuSans-101"/>
      <use x="147.802734" xlink:href="#DejaVuSans-97"/>
      <use x="209.082031" xlink:href="#DejaVuSans-110"/>
      <use x="272.460938" xlink:href="#DejaVuSans-32"/>
      <use x="304.248047" xlink:href="#DejaVuSans-83"/>
      <use x="367.724609" xlink:href="#DejaVuSans-113"/>
      <use x="431.201172" xlink:href="#DejaVuSans-117"/>
      <use x="494.580078" xlink:href="#DejaVuSans-97"/>
      <use x="555.859375" xlink:href="#DejaVuSans-114"/>
      <use x="594.722656" xlink:href="#DejaVuSans-101"/>
      <use x="656.246094" xlink:href="#DejaVuSans-100"/>
      <use x="719.722656" xlink:href="#DejaVuSans-32"/>
      <use x="751.509766" xlink:href="#DejaVuSans-69"/>
      <use x="814.693359" xlink:href="#DejaVuSans-114"/>
      <use x="854.056641" xlink:href="#DejaVuSans-114"/>
      <use x="892.919922" xlink:href="#DejaVuSans-111"/>
      <use x="954.101562" xlink:href="#DejaVuSans-114"/>
     </g>
    </g>
   </g>
   <g id="line2d_45">
    <path clip-path="url(#p3a4ee95a00)" d="M 454.952333 98.503636 
L 452.443809 104.713788 
L 450.293645 109.072505 
L 448.143482 112.815575 
L 445.634958 118.507709 
L 443.126434 124.093081 
L 440.259549 131.057925 
L 438.109386 136.245512 
L 435.600862 142.724918 
L 434.167419 146.492764 
L 432.017256 150.851674 
L 429.867092 155.089211 
L 426.641847 161.838051 
L 424.491683 165.927484 
L 423.058241 168.727025 
L 420.191356 174.310944 
L 417.682832 180.74074 
L 414.815948 188.634765 
L 413.024145 194.445108 
L 410.515621 202.240053 
L 409.082178 207.030562 
L 404.423491 223.678067 
L 400.481524 238.147992 
L 395.106116 256.203489 
L 393.314313 261.38319 
L 387.580543 277.519685 
L 383.638577 289.354769 
L 379.696611 302.160238 
L 377.904808 307.156595 
L 374.679562 315.283066 
L 373.24612 318.515667 
L 370.020875 325.339846 
L 368.945793 327.953368 
L 365.720548 335.843074 
L 360.7035 347.801146 
L 358.194976 353.061062 
L 347.802519 373.260124 
L 345.652355 376.990372 
L 342.785471 381.660268 
L 340.276947 385.176057 
L 335.97662 390.803761 
L 333.109735 394.060183 
L 329.88449 397.152663 
L 326.659244 399.985972 
L 322.717278 403.058512 
L 319.133672 405.554041 
L 315.908427 407.520522 
L 310.174658 410.625176 
L 303.724167 413.471929 
L 299.782201 414.990804 
L 295.123513 416.417033 
L 290.823186 417.454841 
L 285.447777 418.488236 
L 278.638926 419.579861 
L 273.621878 420.164711 
L 265.021224 420.968516 
L 257.854013 421.638842 
L 248.894998 422.158857 
L 234.918935 422.756386 
L 220.942873 422.961202 
L 204.458286 422.975357 
L 96.950111 422.937031 
L 96.950111 422.937031 
" style="fill:none;stroke:#1f77b4;stroke-linecap:square;stroke-width:1.5;"/>
   </g>
   <g id="patch_3">
    <path d="M 79.05 439.2 
L 79.05 82.28 
" style="fill:none;stroke:#000000;stroke-linecap:square;stroke-linejoin:miter;stroke-width:0.8;"/>
   </g>
   <g id="patch_4">
    <path d="M 522.225 439.2 
L 522.225 82.28 
" style="fill:none;stroke:#000000;stroke-linecap:square;stroke-linejoin:miter;stroke-width:0.8;"/>
   </g>
   <g id="patch_5">
    <path d="M 79.05 439.2 
L 522.225 439.2 
" style="fill:none;stroke:#000000;stroke-linecap:square;stroke-linejoin:miter;stroke-width:0.8;"/>
   </g>
   <g id="patch_6">
    <path d="M 79.05 82.28 
L 522.225 82.28 
" style="fill:none;stroke:#000000;stroke-linecap:square;stroke-linejoin:miter;stroke-width:0.8;"/>
   </g>
  </g>
  <g id="axes_2">
   <g id="patch_7">
    <path d="M 626.025 439.2 
L 1069.2 439.2 
L 1069.2 82.28 
L 626.025 82.28 
z
" style="fill:#ffffff;"/>
   </g>
   <g id="PathCollection_1">
    <defs>
     <path d="M 0 3 
C 0.795609 3 1.55874 2.683901 2.12132 2.12132 
C 2.683901 1.55874 3 0.795609 3 0 
C 3 -0.795609 2.683901 -1.55874 2.12132 -2.12132 
C 1.55874 -2.683901 0.795609 -3 0 -3 
C -0.795609 -3 -1.55874 -2.683901 -2.12132 -2.12132 
C -2.683901 -1.55874 -3 -0.795609 -3 0 
C -3 0.795609 -2.683901 1.55874 -2.12132 2.12132 
C -1.55874 2.683901 -0.795609 3 0 3 
z
" id="m9fb3b02557" style="stroke:#1f77b4;stroke-opacity:0.8;"/>
    </defs>
    <g clip-path="url(#p803ec8a03e)">
     <use style="fill:#1f77b4;fill-opacity:0.8;stroke:#1f77b4;stroke-opacity:0.8;" x="815.694841" xlink:href="#m9fb3b02557" y="302.295279"/>
     <use style="fill:#1f77b4;fill-opacity:0.8;stroke:#1f77b4;stroke-opacity:0.8;" x="844.745333" xlink:href="#m9fb3b02557" y="236.262233"/>
     <use style="fill:#1f77b4;fill-opacity:0.8;stroke:#1f77b4;stroke-opacity:0.8;" x="847.591716" xlink:href="#m9fb3b02557" y="354.666316"/>
     <use style="fill:#1f77b4;fill-opacity:0.8;stroke:#1f77b4;stroke-opacity:0.8;" x="774.655717" xlink:href="#m9fb3b02557" y="256.755247"/>
     <use style="fill:#1f77b4;fill-opacity:0.8;stroke:#1f77b4;stroke-opacity:0.8;" x="931.879457" xlink:href="#m9fb3b02557" y="223.738724"/>
     <use style="fill:#1f77b4;fill-opacity:0.8;stroke:#1f77b4;stroke-opacity:0.8;" x="880.13994" xlink:href="#m9fb3b02557" y="276.109761"/>
     <use style="fill:#1f77b4;fill-opacity:0.8;stroke:#1f77b4;stroke-opacity:0.8;" x="1042.079789" xlink:href="#m9fb3b02557" y="163.398182"/>
     <use style="fill:#1f77b4;fill-opacity:0.8;stroke:#1f77b4;stroke-opacity:0.8;" x="1029.328338" xlink:href="#m9fb3b02557" y="121.273652"/>
     <use style="fill:#1f77b4;fill-opacity:0.8;stroke:#1f77b4;stroke-opacity:0.8;" x="878.175024" xlink:href="#m9fb3b02557" y="239.677735"/>
     <use style="fill:#1f77b4;fill-opacity:0.8;stroke:#1f77b4;stroke-opacity:0.8;" x="931.512309" xlink:href="#m9fb3b02557" y="265.863254"/>
     <use style="fill:#1f77b4;fill-opacity:0.8;stroke:#1f77b4;stroke-opacity:0.8;" x="833.616845" xlink:href="#m9fb3b02557" y="228.292727"/>
     <use style="fill:#1f77b4;fill-opacity:0.8;stroke:#1f77b4;stroke-opacity:0.8;" x="979.105309" xlink:href="#m9fb3b02557" y="206.661212"/>
     <use style="fill:#1f77b4;fill-opacity:0.8;stroke:#1f77b4;stroke-opacity:0.8;" x="789.851713" xlink:href="#m9fb3b02557" y="178.198692"/>
     <use style="fill:#1f77b4;fill-opacity:0.8;stroke:#1f77b4;stroke-opacity:0.8;" x="923.875003" xlink:href="#m9fb3b02557" y="243.093238"/>
     <use style="fill:#1f77b4;fill-opacity:0.8;stroke:#1f77b4;stroke-opacity:0.8;" x="838.19237" xlink:href="#m9fb3b02557" y="268.140255"/>
     <use style="fill:#1f77b4;fill-opacity:0.8;stroke:#1f77b4;stroke-opacity:0.8;" x="850.070721" xlink:href="#m9fb3b02557" y="208.938214"/>
     <use style="fill:#1f77b4;fill-opacity:0.8;stroke:#1f77b4;stroke-opacity:0.8;" x="800.542865" xlink:href="#m9fb3b02557" y="326.203796"/>
     <use style="fill:#1f77b4;fill-opacity:0.8;stroke:#1f77b4;stroke-opacity:0.8;" x="747.377677" xlink:href="#m9fb3b02557" y="293.187273"/>
     <use style="fill:#1f77b4;fill-opacity:0.8;stroke:#1f77b4;stroke-opacity:0.8;" x="755.436592" xlink:href="#m9fb3b02557" y="302.295279"/>
     <use style="fill:#1f77b4;fill-opacity:0.8;stroke:#1f77b4;stroke-opacity:0.8;" x="878.91771" xlink:href="#m9fb3b02557" y="239.677735"/>
     <use style="fill:#1f77b4;fill-opacity:0.8;stroke:#1f77b4;stroke-opacity:0.8;" x="859.96504" xlink:href="#m9fb3b02557" y="295.464274"/>
     <use style="fill:#1f77b4;fill-opacity:0.8;stroke:#1f77b4;stroke-opacity:0.8;" x="806.363929" xlink:href="#m9fb3b02557" y="312.541786"/>
     <use style="fill:#1f77b4;fill-opacity:0.8;stroke:#1f77b4;stroke-opacity:0.8;" x="781.364902" xlink:href="#m9fb3b02557" y="321.649793"/>
     <use style="fill:#1f77b4;fill-opacity:0.8;stroke:#1f77b4;stroke-opacity:0.8;" x="648.775312" xlink:href="#m9fb3b02557" y="165.675183"/>
     <use style="fill:#1f77b4;fill-opacity:0.8;stroke:#1f77b4;stroke-opacity:0.8;" x="854.9626" xlink:href="#m9fb3b02557" y="302.295279"/>
     <use style="fill:#1f77b4;fill-opacity:0.8;stroke:#1f77b4;stroke-opacity:0.8;" x="929.795014" xlink:href="#m9fb3b02557" y="158.844179"/>
     <use style="fill:#1f77b4;fill-opacity:0.8;stroke:#1f77b4;stroke-opacity:0.8;" x="799.596504" xlink:href="#m9fb3b02557" y="285.217767"/>
     <use style="fill:#1f77b4;fill-opacity:0.8;stroke:#1f77b4;stroke-opacity:0.8;" x="1045.103861" xlink:href="#m9fb3b02557" y="111.027145"/>
     <use style="fill:#1f77b4;fill-opacity:0.8;stroke:#1f77b4;stroke-opacity:0.8;" x="799.936991" xlink:href="#m9fb3b02557" y="345.558309"/>
     <use style="fill:#1f77b4;fill-opacity:0.8;stroke:#1f77b4;stroke-opacity:0.8;" x="807.29716" xlink:href="#m9fb3b02557" y="216.907719"/>
     <use style="fill:#1f77b4;fill-opacity:0.8;stroke:#1f77b4;stroke-opacity:0.8;" x="841.382187" xlink:href="#m9fb3b02557" y="235.123732"/>
     <use style="fill:#1f77b4;fill-opacity:0.8;stroke:#1f77b4;stroke-opacity:0.8;" x="854.814351" xlink:href="#m9fb3b02557" y="262.447751"/>
     <use style="fill:#1f77b4;fill-opacity:0.8;stroke:#1f77b4;stroke-opacity:0.8;" x="887.949014" xlink:href="#m9fb3b02557" y="133.797161"/>
     <use style="fill:#1f77b4;fill-opacity:0.8;stroke:#1f77b4;stroke-opacity:0.8;" x="947.441228" xlink:href="#m9fb3b02557" y="117.85815"/>
     <use style="fill:#1f77b4;fill-opacity:0.8;stroke:#1f77b4;stroke-opacity:0.8;" x="813.015861" xlink:href="#m9fb3b02557" y="190.722201"/>
     <use style="fill:#1f77b4;fill-opacity:0.8;stroke:#1f77b4;stroke-opacity:0.8;" x="845.534211" xlink:href="#m9fb3b02557" y="140.628166"/>
     <use style="fill:#1f77b4;fill-opacity:0.8;stroke:#1f77b4;stroke-opacity:0.8;" x="864.046271" xlink:href="#m9fb3b02557" y="123.550654"/>
     <use style="fill:#1f77b4;fill-opacity:0.8;stroke:#1f77b4;stroke-opacity:0.8;" x="713.261198" xlink:href="#m9fb3b02557" y="241.954737"/>
     <use style="fill:#1f77b4;fill-opacity:0.8;stroke:#1f77b4;stroke-opacity:0.8;" x="700.096715" xlink:href="#m9fb3b02557" y="194.137703"/>
     <use style="fill:#1f77b4;fill-opacity:0.8;stroke:#1f77b4;stroke-opacity:0.8;" x="893.12881" xlink:href="#m9fb3b02557" y="198.691707"/>
     <use style="fill:#1f77b4;fill-opacity:0.8;stroke:#1f77b4;stroke-opacity:0.8;" x="838.499621" xlink:href="#m9fb3b02557" y="145.182169"/>
     <use style="fill:#1f77b4;fill-opacity:0.8;stroke:#1f77b4;stroke-opacity:0.8;" x="819.644799" xlink:href="#m9fb3b02557" y="118.996651"/>
     <use style="fill:#1f77b4;fill-opacity:0.8;stroke:#1f77b4;stroke-opacity:0.8;" x="900.213233" xlink:href="#m9fb3b02557" y="166.813684"/>
     <use style="fill:#1f77b4;fill-opacity:0.8;stroke:#1f77b4;stroke-opacity:0.8;" x="876.214058" xlink:href="#m9fb3b02557" y="174.78319"/>
     <use style="fill:#1f77b4;fill-opacity:0.8;stroke:#1f77b4;stroke-opacity:0.8;" x="827.374351" xlink:href="#m9fb3b02557" y="261.30925"/>
     <use style="fill:#1f77b4;fill-opacity:0.8;stroke:#1f77b4;stroke-opacity:0.8;" x="886.323591" xlink:href="#m9fb3b02557" y="182.752695"/>
     <use style="fill:#1f77b4;fill-opacity:0.8;stroke:#1f77b4;stroke-opacity:0.8;" x="889.777066" xlink:href="#m9fb3b02557" y="183.891196"/>
     <use style="fill:#1f77b4;fill-opacity:0.8;stroke:#1f77b4;stroke-opacity:0.8;" x="874.808388" xlink:href="#m9fb3b02557" y="260.17075"/>
     <use style="fill:#1f77b4;fill-opacity:0.8;stroke:#1f77b4;stroke-opacity:0.8;" x="930.938238" xlink:href="#m9fb3b02557" y="155.428676"/>
     <use style="fill:#1f77b4;fill-opacity:0.8;stroke:#1f77b4;stroke-opacity:0.8;" x="872.542334" xlink:href="#m9fb3b02557" y="204.384211"/>
     <use style="fill:#1f77b4;fill-opacity:0.8;stroke:#1f77b4;stroke-opacity:0.8;" x="902.233623" xlink:href="#m9fb3b02557" y="422.976364"/>
     <use style="fill:#1f77b4;fill-opacity:0.8;stroke:#1f77b4;stroke-opacity:0.8;" x="794.165067" xlink:href="#m9fb3b02557" y="371.743828"/>
     <use style="fill:#1f77b4;fill-opacity:0.8;stroke:#1f77b4;stroke-opacity:0.8;" x="840.267759" xlink:href="#m9fb3b02557" y="348.973812"/>
     <use style="fill:#1f77b4;fill-opacity:0.8;stroke:#1f77b4;stroke-opacity:0.8;" x="857.24395" xlink:href="#m9fb3b02557" y="166.813684"/>
     <use style="fill:#1f77b4;fill-opacity:0.8;stroke:#1f77b4;stroke-opacity:0.8;" x="834.714297" xlink:href="#m9fb3b02557" y="223.738724"/>
     <use style="fill:#1f77b4;fill-opacity:0.8;stroke:#1f77b4;stroke-opacity:0.8;" x="809.534909" xlink:href="#m9fb3b02557" y="166.813684"/>
     <use style="fill:#1f77b4;fill-opacity:0.8;stroke:#1f77b4;stroke-opacity:0.8;" x="804.998042" xlink:href="#m9fb3b02557" y="249.924242"/>
     <use style="fill:#1f77b4;fill-opacity:0.8;stroke:#1f77b4;stroke-opacity:0.8;" x="879.442404" xlink:href="#m9fb3b02557" y="144.043668"/>
     <use style="fill:#1f77b4;fill-opacity:0.8;stroke:#1f77b4;stroke-opacity:0.8;" x="867.551377" xlink:href="#m9fb3b02557" y="235.123732"/>
     <use style="fill:#1f77b4;fill-opacity:0.8;stroke:#1f77b4;stroke-opacity:0.8;" x="873.059526" xlink:href="#m9fb3b02557" y="188.445199"/>
     <use style="fill:#1f77b4;fill-opacity:0.8;stroke:#1f77b4;stroke-opacity:0.8;" x="857.247859" xlink:href="#m9fb3b02557" y="197.553206"/>
     <use style="fill:#1f77b4;fill-opacity:0.8;stroke:#1f77b4;stroke-opacity:0.8;" x="921.143471" xlink:href="#m9fb3b02557" y="113.304147"/>
     <use style="fill:#1f77b4;fill-opacity:0.8;stroke:#1f77b4;stroke-opacity:0.8;" x="849.761856" xlink:href="#m9fb3b02557" y="189.5837"/>
     <use style="fill:#1f77b4;fill-opacity:0.8;stroke:#1f77b4;stroke-opacity:0.8;" x="817.369771" xlink:href="#m9fb3b02557" y="292.048772"/>
     <use style="fill:#1f77b4;fill-opacity:0.8;stroke:#1f77b4;stroke-opacity:0.8;" x="894.698563" xlink:href="#m9fb3b02557" y="237.400734"/>
     <use style="fill:#1f77b4;fill-opacity:0.8;stroke:#1f77b4;stroke-opacity:0.8;" x="773.228596" xlink:href="#m9fb3b02557" y="325.065295"/>
     <use style="fill:#1f77b4;fill-opacity:0.8;stroke:#1f77b4;stroke-opacity:0.8;" x="908.206337" xlink:href="#m9fb3b02557" y="279.525263"/>
     <use style="fill:#1f77b4;fill-opacity:0.8;stroke:#1f77b4;stroke-opacity:0.8;" x="944.228956" xlink:href="#m9fb3b02557" y="109.888644"/>
     <use style="fill:#1f77b4;fill-opacity:0.8;stroke:#1f77b4;stroke-opacity:0.8;" x="794.028823" xlink:href="#m9fb3b02557" y="272.694258"/>
     <use style="fill:#1f77b4;fill-opacity:0.8;stroke:#1f77b4;stroke-opacity:0.8;" x="816.080843" xlink:href="#m9fb3b02557" y="150.874673"/>
     <use style="fill:#1f77b4;fill-opacity:0.8;stroke:#1f77b4;stroke-opacity:0.8;" x="860.604242" xlink:href="#m9fb3b02557" y="294.325774"/>
     <use style="fill:#1f77b4;fill-opacity:0.8;stroke:#1f77b4;stroke-opacity:0.8;" x="874.822844" xlink:href="#m9fb3b02557" y="158.844179"/>
     <use style="fill:#1f77b4;fill-opacity:0.8;stroke:#1f77b4;stroke-opacity:0.8;" x="926.219851" xlink:href="#m9fb3b02557" y="303.43378"/>
     <use style="fill:#1f77b4;fill-opacity:0.8;stroke:#1f77b4;stroke-opacity:0.8;" x="626.025" xlink:href="#m9fb3b02557" y="364.912823"/>
     <use style="fill:#1f77b4;fill-opacity:0.8;stroke:#1f77b4;stroke-opacity:0.8;" x="766.322887" xlink:href="#m9fb3b02557" y="212.353716"/>
     <use style="fill:#1f77b4;fill-opacity:0.8;stroke:#1f77b4;stroke-opacity:0.8;" x="803.073539" xlink:href="#m9fb3b02557" y="155.428676"/>
     <use style="fill:#1f77b4;fill-opacity:0.8;stroke:#1f77b4;stroke-opacity:0.8;" x="864.880935" xlink:href="#m9fb3b02557" y="221.461722"/>
     <use style="fill:#1f77b4;fill-opacity:0.8;stroke:#1f77b4;stroke-opacity:0.8;" x="796.2224" xlink:href="#m9fb3b02557" y="121.273652"/>
     <use style="fill:#1f77b4;fill-opacity:0.8;stroke:#1f77b4;stroke-opacity:0.8;" x="941.793189" xlink:href="#m9fb3b02557" y="204.384211"/>
     <use style="fill:#1f77b4;fill-opacity:0.8;stroke:#1f77b4;stroke-opacity:0.8;" x="836.920536" xlink:href="#m9fb3b02557" y="251.062743"/>
     <use style="fill:#1f77b4;fill-opacity:0.8;stroke:#1f77b4;stroke-opacity:0.8;" x="838.256263" xlink:href="#m9fb3b02557" y="181.614195"/>
     <use style="fill:#1f77b4;fill-opacity:0.8;stroke:#1f77b4;stroke-opacity:0.8;" x="890.316317" xlink:href="#m9fb3b02557" y="238.539234"/>
     <use style="fill:#1f77b4;fill-opacity:0.8;stroke:#1f77b4;stroke-opacity:0.8;" x="873.736721" xlink:href="#m9fb3b02557" y="219.184721"/>
     <use style="fill:#1f77b4;fill-opacity:0.8;stroke:#1f77b4;stroke-opacity:0.8;" x="817.593239" xlink:href="#m9fb3b02557" y="227.154226"/>
     <use style="fill:#1f77b4;fill-opacity:0.8;stroke:#1f77b4;stroke-opacity:0.8;" x="919.302651" xlink:href="#m9fb3b02557" y="235.123732"/>
     <use style="fill:#1f77b4;fill-opacity:0.8;stroke:#1f77b4;stroke-opacity:0.8;" x="851.864097" xlink:href="#m9fb3b02557" y="219.184721"/>
     <use style="fill:#1f77b4;fill-opacity:0.8;stroke:#1f77b4;stroke-opacity:0.8;" x="820.788891" xlink:href="#m9fb3b02557" y="239.677735"/>
     <use style="fill:#1f77b4;fill-opacity:0.8;stroke:#1f77b4;stroke-opacity:0.8;" x="844.785541" xlink:href="#m9fb3b02557" y="249.924242"/>
     <use style="fill:#1f77b4;fill-opacity:0.8;stroke:#1f77b4;stroke-opacity:0.8;" x="803.998697" xlink:href="#m9fb3b02557" y="333.034801"/>
     <use style="fill:#1f77b4;fill-opacity:0.8;stroke:#1f77b4;stroke-opacity:0.8;" x="834.777334" xlink:href="#m9fb3b02557" y="319.372791"/>
     <use style="fill:#1f77b4;fill-opacity:0.8;stroke:#1f77b4;stroke-opacity:0.8;" x="903.311396" xlink:href="#m9fb3b02557" y="189.5837"/>
     <use style="fill:#1f77b4;fill-opacity:0.8;stroke:#1f77b4;stroke-opacity:0.8;" x="958.956592" xlink:href="#m9fb3b02557" y="150.874673"/>
     <use style="fill:#1f77b4;fill-opacity:0.8;stroke:#1f77b4;stroke-opacity:0.8;" x="814.936957" xlink:href="#m9fb3b02557" y="361.497321"/>
     <use style="fill:#1f77b4;fill-opacity:0.8;stroke:#1f77b4;stroke-opacity:0.8;" x="846.84298" xlink:href="#m9fb3b02557" y="235.123732"/>
     <use style="fill:#1f77b4;fill-opacity:0.8;stroke:#1f77b4;stroke-opacity:0.8;" x="1064.462411" xlink:href="#m9fb3b02557" y="171.367687"/>
     <use style="fill:#1f77b4;fill-opacity:0.8;stroke:#1f77b4;stroke-opacity:0.8;" x="864.123034" xlink:href="#m9fb3b02557" y="186.168198"/>
     <use style="fill:#1f77b4;fill-opacity:0.8;stroke:#1f77b4;stroke-opacity:0.8;" x="781.263972" xlink:href="#m9fb3b02557" y="235.123732"/>
     <use style="fill:#1f77b4;fill-opacity:0.8;stroke:#1f77b4;stroke-opacity:0.8;" x="907.558101" xlink:href="#m9fb3b02557" y="212.353716"/>
     <use style="fill:#1f77b4;fill-opacity:0.8;stroke:#1f77b4;stroke-opacity:0.8;" x="832.248144" xlink:href="#m9fb3b02557" y="271.555758"/>
     <use style="fill:#1f77b4;fill-opacity:0.8;stroke:#1f77b4;stroke-opacity:0.8;" x="912.710456" xlink:href="#m9fb3b02557" y="144.043668"/>
     <use style="fill:#1f77b4;fill-opacity:0.8;stroke:#1f77b4;stroke-opacity:0.8;" x="887.631045" xlink:href="#m9fb3b02557" y="181.614195"/>
     <use style="fill:#1f77b4;fill-opacity:0.8;stroke:#1f77b4;stroke-opacity:0.8;" x="896.940775" xlink:href="#m9fb3b02557" y="166.813684"/>
     <use style="fill:#1f77b4;fill-opacity:0.8;stroke:#1f77b4;stroke-opacity:0.8;" x="865.980522" xlink:href="#m9fb3b02557" y="280.663764"/>
     <use style="fill:#1f77b4;fill-opacity:0.8;stroke:#1f77b4;stroke-opacity:0.8;" x="811.831959" xlink:href="#m9fb3b02557" y="197.553206"/>
     <use style="fill:#1f77b4;fill-opacity:0.8;stroke:#1f77b4;stroke-opacity:0.8;" x="996.330133" xlink:href="#m9fb3b02557" y="243.093238"/>
     <use style="fill:#1f77b4;fill-opacity:0.8;stroke:#1f77b4;stroke-opacity:0.8;" x="871.109312" xlink:href="#m9fb3b02557" y="166.813684"/>
     <use style="fill:#1f77b4;fill-opacity:0.8;stroke:#1f77b4;stroke-opacity:0.8;" x="958.045134" xlink:href="#m9fb3b02557" y="204.384211"/>
     <use style="fill:#1f77b4;fill-opacity:0.8;stroke:#1f77b4;stroke-opacity:0.8;" x="948.803654" xlink:href="#m9fb3b02557" y="182.752695"/>
     <use style="fill:#1f77b4;fill-opacity:0.8;stroke:#1f77b4;stroke-opacity:0.8;" x="931.914842" xlink:href="#m9fb3b02557" y="113.304147"/>
     <use style="fill:#1f77b4;fill-opacity:0.8;stroke:#1f77b4;stroke-opacity:0.8;" x="796.525978" xlink:href="#m9fb3b02557" y="221.461722"/>
     <use style="fill:#1f77b4;fill-opacity:0.8;stroke:#1f77b4;stroke-opacity:0.8;" x="840.051642" xlink:href="#m9fb3b02557" y="264.724753"/>
     <use style="fill:#1f77b4;fill-opacity:0.8;stroke:#1f77b4;stroke-opacity:0.8;" x="829.962985" xlink:href="#m9fb3b02557" y="265.863254"/>
     <use style="fill:#1f77b4;fill-opacity:0.8;stroke:#1f77b4;stroke-opacity:0.8;" x="733.874754" xlink:href="#m9fb3b02557" y="267.001754"/>
     <use style="fill:#1f77b4;fill-opacity:0.8;stroke:#1f77b4;stroke-opacity:0.8;" x="929.491576" xlink:href="#m9fb3b02557" y="280.663764"/>
     <use style="fill:#1f77b4;fill-opacity:0.8;stroke:#1f77b4;stroke-opacity:0.8;" x="1069.2" xlink:href="#m9fb3b02557" y="146.32067"/>
     <use style="fill:#1f77b4;fill-opacity:0.8;stroke:#1f77b4;stroke-opacity:0.8;" x="858.932186" xlink:href="#m9fb3b02557" y="269.278756"/>
     <use style="fill:#1f77b4;fill-opacity:0.8;stroke:#1f77b4;stroke-opacity:0.8;" x="807.741519" xlink:href="#m9fb3b02557" y="196.414705"/>
     <use style="fill:#1f77b4;fill-opacity:0.8;stroke:#1f77b4;stroke-opacity:0.8;" x="883.773114" xlink:href="#m9fb3b02557" y="188.445199"/>
     <use style="fill:#1f77b4;fill-opacity:0.8;stroke:#1f77b4;stroke-opacity:0.8;" x="780.677362" xlink:href="#m9fb3b02557" y="371.743828"/>
     <use style="fill:#1f77b4;fill-opacity:0.8;stroke:#1f77b4;stroke-opacity:0.8;" x="753.851951" xlink:href="#m9fb3b02557" y="243.093238"/>
     <use style="fill:#1f77b4;fill-opacity:0.8;stroke:#1f77b4;stroke-opacity:0.8;" x="808.714852" xlink:href="#m9fb3b02557" y="265.863254"/>
     <use style="fill:#1f77b4;fill-opacity:0.8;stroke:#1f77b4;stroke-opacity:0.8;" x="921.665291" xlink:href="#m9fb3b02557" y="113.304147"/>
     <use style="fill:#1f77b4;fill-opacity:0.8;stroke:#1f77b4;stroke-opacity:0.8;" x="853.200583" xlink:href="#m9fb3b02557" y="175.921691"/>
     <use style="fill:#1f77b4;fill-opacity:0.8;stroke:#1f77b4;stroke-opacity:0.8;" x="775.925639" xlink:href="#m9fb3b02557" y="287.494769"/>
     <use style="fill:#1f77b4;fill-opacity:0.8;stroke:#1f77b4;stroke-opacity:0.8;" x="876.297463" xlink:href="#m9fb3b02557" y="251.062743"/>
     <use style="fill:#1f77b4;fill-opacity:0.8;stroke:#1f77b4;stroke-opacity:0.8;" x="934.292892" xlink:href="#m9fb3b02557" y="171.367687"/>
     <use style="fill:#1f77b4;fill-opacity:0.8;stroke:#1f77b4;stroke-opacity:0.8;" x="979.275748" xlink:href="#m9fb3b02557" y="125.827656"/>
     <use style="fill:#1f77b4;fill-opacity:0.8;stroke:#1f77b4;stroke-opacity:0.8;" x="724.741924" xlink:href="#m9fb3b02557" y="284.079266"/>
     <use style="fill:#1f77b4;fill-opacity:0.8;stroke:#1f77b4;stroke-opacity:0.8;" x="793.302779" xlink:href="#m9fb3b02557" y="287.494769"/>
     <use style="fill:#1f77b4;fill-opacity:0.8;stroke:#1f77b4;stroke-opacity:0.8;" x="893.489637" xlink:href="#m9fb3b02557" y="182.752695"/>
     <use style="fill:#1f77b4;fill-opacity:0.8;stroke:#1f77b4;stroke-opacity:0.8;" x="919.391413" xlink:href="#m9fb3b02557" y="257.893748"/>
     <use style="fill:#1f77b4;fill-opacity:0.8;stroke:#1f77b4;stroke-opacity:0.8;" x="773.843676" xlink:href="#m9fb3b02557" y="379.713333"/>
     <use style="fill:#1f77b4;fill-opacity:0.8;stroke:#1f77b4;stroke-opacity:0.8;" x="938.158813" xlink:href="#m9fb3b02557" y="98.503636"/>
     <use style="fill:#1f77b4;fill-opacity:0.8;stroke:#1f77b4;stroke-opacity:0.8;" x="926.216741" xlink:href="#m9fb3b02557" y="182.752695"/>
     <use style="fill:#1f77b4;fill-opacity:0.8;stroke:#1f77b4;stroke-opacity:0.8;" x="920.928667" xlink:href="#m9fb3b02557" y="166.813684"/>
     <use style="fill:#1f77b4;fill-opacity:0.8;stroke:#1f77b4;stroke-opacity:0.8;" x="917.782299" xlink:href="#m9fb3b02557" y="181.614195"/>
     <use style="fill:#1f77b4;fill-opacity:0.8;stroke:#1f77b4;stroke-opacity:0.8;" x="787.157843" xlink:href="#m9fb3b02557" y="295.464274"/>
     <use style="fill:#1f77b4;fill-opacity:0.8;stroke:#1f77b4;stroke-opacity:0.8;" x="828.961969" xlink:href="#m9fb3b02557" y="264.724753"/>
     <use style="fill:#1f77b4;fill-opacity:0.8;stroke:#1f77b4;stroke-opacity:0.8;" x="858.98665" xlink:href="#m9fb3b02557" y="212.353716"/>
     <use style="fill:#1f77b4;fill-opacity:0.8;stroke:#1f77b4;stroke-opacity:0.8;" x="843.99266" xlink:href="#m9fb3b02557" y="142.905167"/>
     <use style="fill:#1f77b4;fill-opacity:0.8;stroke:#1f77b4;stroke-opacity:0.8;" x="811.989439" xlink:href="#m9fb3b02557" y="220.323222"/>
     <use style="fill:#1f77b4;fill-opacity:0.8;stroke:#1f77b4;stroke-opacity:0.8;" x="829.012912" xlink:href="#m9fb3b02557" y="235.123732"/>
     <use style="fill:#1f77b4;fill-opacity:0.8;stroke:#1f77b4;stroke-opacity:0.8;" x="841.936277" xlink:href="#m9fb3b02557" y="202.107209"/>
     <use style="fill:#1f77b4;fill-opacity:0.8;stroke:#1f77b4;stroke-opacity:0.8;" x="983.662215" xlink:href="#m9fb3b02557" y="166.813684"/>
     <use style="fill:#1f77b4;fill-opacity:0.8;stroke:#1f77b4;stroke-opacity:0.8;" x="883.710117" xlink:href="#m9fb3b02557" y="241.954737"/>
    </g>
   </g>
   <g id="PolyCollection_1">
    <path clip-path="url(#p803ec8a03e)" d="M 626.025 286.971164 
L 626.025 359.0676 
L 630.501515 356.574892 
L 634.97803 354.074282 
L 639.454545 351.624861 
L 643.931061 349.164111 
L 648.407576 346.685844 
L 652.884091 344.198658 
L 657.360606 341.729909 
L 661.837121 339.264054 
L 666.313636 336.790776 
L 670.790152 334.332291 
L 675.266667 331.892038 
L 679.743182 329.398599 
L 684.219697 326.897784 
L 688.696212 324.381014 
L 693.172727 321.945382 
L 697.649242 319.538058 
L 702.125758 317.070961 
L 706.602273 314.590356 
L 711.078788 312.13951 
L 715.555303 309.66006 
L 720.031818 307.176991 
L 724.508333 304.742588 
L 728.984848 302.303371 
L 733.461364 299.880339 
L 737.937879 297.425236 
L 742.414394 294.933514 
L 746.890909 292.477027 
L 751.367424 290.030667 
L 755.843939 287.586925 
L 760.320455 285.122616 
L 764.79697 282.717512 
L 769.273485 280.358033 
L 773.75 277.920174 
L 778.226515 275.528752 
L 782.70303 273.060596 
L 787.179545 270.635673 
L 791.656061 268.237778 
L 796.132576 265.813492 
L 800.609091 263.493738 
L 805.085606 261.182216 
L 809.562121 258.809952 
L 814.038636 256.477754 
L 818.515152 254.154497 
L 822.991667 251.83071 
L 827.468182 249.548489 
L 831.944697 247.33062 
L 836.421212 245.156973 
L 840.897727 242.925614 
L 845.374242 240.754598 
L 849.850758 238.604356 
L 854.327273 236.517004 
L 858.803788 234.503095 
L 863.280303 232.566949 
L 867.756818 230.608801 
L 872.233333 228.627247 
L 876.709848 226.762754 
L 881.186364 224.871497 
L 885.662879 223.101271 
L 890.139394 221.382631 
L 894.615909 219.703112 
L 899.092424 218.058656 
L 903.568939 216.482517 
L 908.045455 214.863551 
L 912.52197 213.278313 
L 916.998485 211.769601 
L 921.475 210.224674 
L 925.951515 208.706104 
L 930.42803 207.28881 
L 934.904545 205.823224 
L 939.381061 204.330739 
L 943.857576 202.896713 
L 948.334091 201.495239 
L 952.810606 200.104572 
L 957.287121 198.737925 
L 961.763636 197.326285 
L 966.240152 195.923787 
L 970.716667 194.576173 
L 975.193182 193.191204 
L 979.669697 191.758485 
L 984.146212 190.411935 
L 988.622727 189.066073 
L 993.099242 187.709471 
L 997.575758 186.344112 
L 1002.052273 184.938474 
L 1006.528788 183.589923 
L 1011.005303 182.291417 
L 1015.481818 180.995333 
L 1019.958333 179.763179 
L 1024.434848 178.408558 
L 1028.911364 177.066929 
L 1033.387879 175.748447 
L 1037.864394 174.473509 
L 1042.340909 173.153695 
L 1046.817424 171.786529 
L 1051.293939 170.404063 
L 1055.770455 169.147938 
L 1060.24697 167.851401 
L 1064.723485 166.50106 
L 1069.2 165.336646 
L 1069.2 107.078266 
L 1069.2 107.078266 
L 1064.723485 109.5657 
L 1060.24697 112.046997 
L 1055.770455 114.538877 
L 1051.293939 117.036704 
L 1046.817424 119.512237 
L 1042.340909 121.92112 
L 1037.864394 124.346547 
L 1033.387879 126.771813 
L 1028.911364 129.239594 
L 1024.434848 131.73359 
L 1019.958333 134.26847 
L 1015.481818 136.642474 
L 1011.005303 139.152957 
L 1006.528788 141.618146 
L 1002.052273 144.074806 
L 997.575758 146.512357 
L 993.099242 148.90365 
L 988.622727 151.305423 
L 984.146212 153.731012 
L 979.669697 156.164115 
L 975.193182 158.62175 
L 970.716667 161.028043 
L 966.240152 163.424661 
L 961.763636 165.788732 
L 957.287121 168.120966 
L 952.810606 170.500278 
L 948.334091 172.878467 
L 943.857576 175.224301 
L 939.381061 177.467556 
L 934.904545 179.819518 
L 930.42803 182.219115 
L 925.951515 184.517658 
L 921.475 186.764699 
L 916.998485 188.973774 
L 912.52197 191.148995 
L 908.045455 193.252913 
L 903.568939 195.454719 
L 899.092424 197.605732 
L 894.615909 199.670299 
L 890.139394 201.712708 
L 885.662879 203.731047 
L 881.186364 205.714033 
L 876.709848 207.678528 
L 872.233333 209.622805 
L 867.756818 211.437758 
L 863.280303 213.343407 
L 858.803788 215.060147 
L 854.327273 216.874466 
L 849.850758 218.463062 
L 845.374242 220.118496 
L 840.897727 221.702086 
L 836.421212 223.39215 
L 831.944697 225.014456 
L 827.468182 226.654207 
L 822.991667 228.162272 
L 818.515152 229.610566 
L 814.038636 231.077762 
L 809.562121 232.645277 
L 805.085606 234.076596 
L 800.609091 235.469741 
L 796.132576 236.870342 
L 791.656061 238.268349 
L 787.179545 239.587109 
L 782.70303 240.91554 
L 778.226515 242.262197 
L 773.75 243.672814 
L 769.273485 245.037567 
L 764.79697 246.430918 
L 760.320455 247.779093 
L 755.843939 249.124489 
L 751.367424 250.451283 
L 746.890909 251.794994 
L 742.414394 253.116365 
L 737.937879 254.509875 
L 733.461364 255.843495 
L 728.984848 257.158337 
L 724.508333 258.552572 
L 720.031818 259.848726 
L 715.555303 261.069053 
L 711.078788 262.394135 
L 706.602273 263.687424 
L 702.125758 265.047167 
L 697.649242 266.279583 
L 693.172727 267.581132 
L 688.696212 268.910567 
L 684.219697 270.294052 
L 679.743182 271.618918 
L 675.266667 272.868024 
L 670.790152 274.144373 
L 666.313636 275.408043 
L 661.837121 276.640676 
L 657.360606 277.934482 
L 652.884091 279.27304 
L 648.407576 280.561529 
L 643.931061 281.878147 
L 639.454545 283.088532 
L 634.97803 284.390384 
L 630.501515 285.659298 
L 626.025 286.971164 
z
" style="fill:#1f77b4;fill-opacity:0.15;"/>
   </g>
   <g id="matplotlib.axis_3">
    <g id="xtick_37">
     <g id="line2d_46">
      <g>
       <use style="stroke:#000000;stroke-width:0.8;" x="647.527562" xlink:href="#m44bf1709d6" y="439.2"/>
      </g>
     </g>
     <g id="text_15">
      <!-- 1.25 -->
      <g transform="translate(616.88225 461.396875)scale(0.2 -0.2)">
       <defs>
        <path d="M 10.59375 35.5 
L 73.1875 35.5 
L 73.1875 27.203125 
L 10.59375 27.203125 
z
" id="DejaVuSans-8722"/>
        <path d="M 10.796875 72.90625 
L 49.515625 72.90625 
L 49.515625 64.59375 
L 19.828125 64.59375 
L 19.828125 46.734375 
Q 21.96875 47.46875 24.109375 47.828125 
Q 26.265625 48.1875 28.421875 48.1875 
Q 40.625 48.1875 47.75 41.5 
Q 54.890625 34.8125 54.890625 23.390625 
Q 54.890625 11.625 47.5625 5.09375 
Q 40.234375 -1.421875 26.90625 -1.421875 
Q 22.3125 -1.421875 17.546875 -0.640625 
Q 12.796875 0.140625 7.71875 1.703125 
L 7.71875 11.625 
Q 12.109375 9.234375 16.796875 8.0625 
Q 21.484375 6.890625 26.703125 6.890625 
Q 35.15625 6.890625 40.078125 11.328125 
Q 45.015625 15.765625 45.015625 23.390625 
Q 45.015625 31 40.078125 35.4375 
Q 35.15625 39.890625 26.703125 39.890625 
Q 22.75 39.890625 18.8125 39.015625 
Q 14.890625 38.140625 10.796875 36.28125 
z
" id="DejaVuSans-53"/>
       </defs>
       <use xlink:href="#DejaVuSans-8722"/>
       <use x="83.789062" xlink:href="#DejaVuSans-49"/>
       <use x="147.412109" xlink:href="#DejaVuSans-46"/>
       <use x="179.199219" xlink:href="#DejaVuSans-50"/>
       <use x="242.822266" xlink:href="#DejaVuSans-53"/>
      </g>
     </g>
    </g>
    <g id="xtick_38">
     <g id="line2d_47">
      <g>
       <use style="stroke:#000000;stroke-width:0.8;" x="718.868325" xlink:href="#m44bf1709d6" y="439.2"/>
      </g>
     </g>
     <g id="text_16">
      <!-- 1.00 -->
      <g transform="translate(688.223012 461.396875)scale(0.2 -0.2)">
       <use xlink:href="#DejaVuSans-8722"/>
       <use x="83.789062" xlink:href="#DejaVuSans-49"/>
       <use x="147.412109" xlink:href="#DejaVuSans-46"/>
       <use x="179.199219" xlink:href="#DejaVuSans-48"/>
       <use x="242.822266" xlink:href="#DejaVuSans-48"/>
      </g>
     </g>
    </g>
    <g id="xtick_39">
     <g id="line2d_48">
      <g>
       <use style="stroke:#000000;stroke-width:0.8;" x="790.209087" xlink:href="#m44bf1709d6" y="439.2"/>
      </g>
     </g>
     <g id="text_17">
      <!-- 0.75 -->
      <g transform="translate(759.563775 461.396875)scale(0.2 -0.2)">
       <use xlink:href="#DejaVuSans-8722"/>
       <use x="83.789062" xlink:href="#DejaVuSans-48"/>
       <use x="147.412109" xlink:href="#DejaVuSans-46"/>
       <use x="179.199219" xlink:href="#DejaVuSans-55"/>
       <use x="242.822266" xlink:href="#DejaVuSans-53"/>
      </g>
     </g>
    </g>
    <g id="xtick_40">
     <g id="line2d_49">
      <g>
       <use style="stroke:#000000;stroke-width:0.8;" x="861.54985" xlink:href="#m44bf1709d6" y="439.2"/>
      </g>
     </g>
     <g id="text_18">
      <!-- 0.50 -->
      <g transform="translate(830.904537 461.396875)scale(0.2 -0.2)">
       <use xlink:href="#DejaVuSans-8722"/>
       <use x="83.789062" xlink:href="#DejaVuSans-48"/>
       <use x="147.412109" xlink:href="#DejaVuSans-46"/>
       <use x="179.199219" xlink:href="#DejaVuSans-53"/>
       <use x="242.822266" xlink:href="#DejaVuSans-48"/>
      </g>
     </g>
    </g>
    <g id="xtick_41">
     <g id="line2d_50">
      <g>
       <use style="stroke:#000000;stroke-width:0.8;" x="932.890612" xlink:href="#m44bf1709d6" y="439.2"/>
      </g>
     </g>
     <g id="text_19">
      <!-- 0.25 -->
      <g transform="translate(902.2453 461.396875)scale(0.2 -0.2)">
       <use xlink:href="#DejaVuSans-8722"/>
       <use x="83.789062" xlink:href="#DejaVuSans-48"/>
       <use x="147.412109" xlink:href="#DejaVuSans-46"/>
       <use x="179.199219" xlink:href="#DejaVuSans-50"/>
       <use x="242.822266" xlink:href="#DejaVuSans-53"/>
      </g>
     </g>
    </g>
    <g id="xtick_42">
     <g id="line2d_51">
      <g>
       <use style="stroke:#000000;stroke-width:0.8;" x="1004.231374" xlink:href="#m44bf1709d6" y="439.2"/>
      </g>
     </g>
     <g id="text_20">
      <!-- 0.00 -->
      <g transform="translate(981.965749 461.396875)scale(0.2 -0.2)">
       <use xlink:href="#DejaVuSans-48"/>
       <use x="63.623047" xlink:href="#DejaVuSans-46"/>
       <use x="95.410156" xlink:href="#DejaVuSans-48"/>
       <use x="159.033203" xlink:href="#DejaVuSans-48"/>
      </g>
     </g>
    </g>
    <g id="text_21">
     <!-- Predictions -->
     <g transform="translate(779.008984 488.552344)scale(0.25 -0.25)">
      <defs>
       <path d="M 19.671875 64.796875 
L 19.671875 37.40625 
L 32.078125 37.40625 
Q 38.96875 37.40625 42.71875 40.96875 
Q 46.484375 44.53125 46.484375 51.125 
Q 46.484375 57.671875 42.71875 61.234375 
Q 38.96875 64.796875 32.078125 64.796875 
z
M 9.8125 72.90625 
L 32.078125 72.90625 
Q 44.34375 72.90625 50.609375 67.359375 
Q 56.890625 61.8125 56.890625 51.125 
Q 56.890625 40.328125 50.609375 34.8125 
Q 44.34375 29.296875 32.078125 29.296875 
L 19.671875 29.296875 
L 19.671875 0 
L 9.8125 0 
z
" id="DejaVuSans-80"/>
       <path d="M 9.421875 54.6875 
L 18.40625 54.6875 
L 18.40625 0 
L 9.421875 0 
z
M 9.421875 75.984375 
L 18.40625 75.984375 
L 18.40625 64.59375 
L 9.421875 64.59375 
z
" id="DejaVuSans-105"/>
       <path d="M 48.78125 52.59375 
L 48.78125 44.1875 
Q 44.96875 46.296875 41.140625 47.34375 
Q 37.3125 48.390625 33.40625 48.390625 
Q 24.65625 48.390625 19.8125 42.84375 
Q 14.984375 37.3125 14.984375 27.296875 
Q 14.984375 17.28125 19.8125 11.734375 
Q 24.65625 6.203125 33.40625 6.203125 
Q 37.3125 6.203125 41.140625 7.25 
Q 44.96875 8.296875 48.78125 10.40625 
L 48.78125 2.09375 
Q 45.015625 0.34375 40.984375 -0.53125 
Q 36.96875 -1.421875 32.421875 -1.421875 
Q 20.0625 -1.421875 12.78125 6.34375 
Q 5.515625 14.109375 5.515625 27.296875 
Q 5.515625 40.671875 12.859375 48.328125 
Q 20.21875 56 33.015625 56 
Q 37.15625 56 41.109375 55.140625 
Q 45.0625 54.296875 48.78125 52.59375 
z
" id="DejaVuSans-99"/>
       <path d="M 18.3125 70.21875 
L 18.3125 54.6875 
L 36.8125 54.6875 
L 36.8125 47.703125 
L 18.3125 47.703125 
L 18.3125 18.015625 
Q 18.3125 11.328125 20.140625 9.421875 
Q 21.96875 7.515625 27.59375 7.515625 
L 36.8125 7.515625 
L 36.8125 0 
L 27.59375 0 
Q 17.1875 0 13.234375 3.875 
Q 9.28125 7.765625 9.28125 18.015625 
L 9.28125 47.703125 
L 2.6875 47.703125 
L 2.6875 54.6875 
L 9.28125 54.6875 
L 9.28125 70.21875 
z
" id="DejaVuSans-116"/>
       <path d="M 44.28125 53.078125 
L 44.28125 44.578125 
Q 40.484375 46.53125 36.375 47.5 
Q 32.28125 48.484375 27.875 48.484375 
Q 21.1875 48.484375 17.84375 46.4375 
Q 14.5 44.390625 14.5 40.28125 
Q 14.5 37.15625 16.890625 35.375 
Q 19.28125 33.59375 26.515625 31.984375 
L 29.59375 31.296875 
Q 39.15625 29.25 43.1875 25.515625 
Q 47.21875 21.78125 47.21875 15.09375 
Q 47.21875 7.46875 41.1875 3.015625 
Q 35.15625 -1.421875 24.609375 -1.421875 
Q 20.21875 -1.421875 15.453125 -0.5625 
Q 10.6875 0.296875 5.421875 2 
L 5.421875 11.28125 
Q 10.40625 8.6875 15.234375 7.390625 
Q 20.0625 6.109375 24.8125 6.109375 
Q 31.15625 6.109375 34.5625 8.28125 
Q 37.984375 10.453125 37.984375 14.40625 
Q 37.984375 18.0625 35.515625 20.015625 
Q 33.0625 21.96875 24.703125 23.78125 
L 21.578125 24.515625 
Q 13.234375 26.265625 9.515625 29.90625 
Q 5.8125 33.546875 5.8125 39.890625 
Q 5.8125 47.609375 11.28125 51.796875 
Q 16.75 56 26.8125 56 
Q 31.78125 56 36.171875 55.265625 
Q 40.578125 54.546875 44.28125 53.078125 
z
" id="DejaVuSans-115"/>
      </defs>
      <use xlink:href="#DejaVuSans-80"/>
      <use x="58.552734" xlink:href="#DejaVuSans-114"/>
      <use x="97.416016" xlink:href="#DejaVuSans-101"/>
      <use x="158.939453" xlink:href="#DejaVuSans-100"/>
      <use x="222.416016" xlink:href="#DejaVuSans-105"/>
      <use x="250.199219" xlink:href="#DejaVuSans-99"/>
      <use x="305.179688" xlink:href="#DejaVuSans-116"/>
      <use x="344.388672" xlink:href="#DejaVuSans-105"/>
      <use x="372.171875" xlink:href="#DejaVuSans-111"/>
      <use x="433.353516" xlink:href="#DejaVuSans-110"/>
      <use x="496.732422" xlink:href="#DejaVuSans-115"/>
     </g>
    </g>
   </g>
   <g id="matplotlib.axis_4">
    <g id="ytick_9">
     <g id="line2d_52">
      <g>
       <use style="stroke:#000000;stroke-width:0.8;" x="626.025" xlink:href="#m749aa99981" y="394.513844"/>
      </g>
     </g>
     <g id="text_22">
      <!-- 2.0 -->
      <g transform="translate(570.459375 402.112281)scale(0.2 -0.2)">
       <use xlink:href="#DejaVuSans-8722"/>
       <use x="83.789062" xlink:href="#DejaVuSans-50"/>
       <use x="147.412109" xlink:href="#DejaVuSans-46"/>
       <use x="179.199219" xlink:href="#DejaVuSans-48"/>
      </g>
     </g>
    </g>
    <g id="ytick_10">
     <g id="line2d_53">
      <g>
       <use style="stroke:#000000;stroke-width:0.8;" x="626.025" xlink:href="#m749aa99981" y="337.588804"/>
      </g>
     </g>
     <g id="text_23">
      <!-- 1.5 -->
      <g transform="translate(570.459375 345.187241)scale(0.2 -0.2)">
       <use xlink:href="#DejaVuSans-8722"/>
       <use x="83.789062" xlink:href="#DejaVuSans-49"/>
       <use x="147.412109" xlink:href="#DejaVuSans-46"/>
       <use x="179.199219" xlink:href="#DejaVuSans-53"/>
      </g>
     </g>
    </g>
    <g id="ytick_11">
     <g id="line2d_54">
      <g>
       <use style="stroke:#000000;stroke-width:0.8;" x="626.025" xlink:href="#m749aa99981" y="280.663764"/>
      </g>
     </g>
     <g id="text_24">
      <!-- 1.0 -->
      <g transform="translate(570.459375 288.262201)scale(0.2 -0.2)">
       <use xlink:href="#DejaVuSans-8722"/>
       <use x="83.789062" xlink:href="#DejaVuSans-49"/>
       <use x="147.412109" xlink:href="#DejaVuSans-46"/>
       <use x="179.199219" xlink:href="#DejaVuSans-48"/>
      </g>
     </g>
    </g>
    <g id="ytick_12">
     <g id="line2d_55">
      <g>
       <use style="stroke:#000000;stroke-width:0.8;" x="626.025" xlink:href="#m749aa99981" y="223.738724"/>
      </g>
     </g>
     <g id="text_25">
      <!-- 0.5 -->
      <g transform="translate(570.459375 231.337162)scale(0.2 -0.2)">
       <use xlink:href="#DejaVuSans-8722"/>
       <use x="83.789062" xlink:href="#DejaVuSans-48"/>
       <use x="147.412109" xlink:href="#DejaVuSans-46"/>
       <use x="179.199219" xlink:href="#DejaVuSans-53"/>
      </g>
     </g>
    </g>
    <g id="ytick_13">
     <g id="line2d_56">
      <g>
       <use style="stroke:#000000;stroke-width:0.8;" x="626.025" xlink:href="#m749aa99981" y="166.813684"/>
      </g>
     </g>
     <g id="text_26">
      <!-- 0.0 -->
      <g transform="translate(587.21875 174.412122)scale(0.2 -0.2)">
       <use xlink:href="#DejaVuSans-48"/>
       <use x="63.623047" xlink:href="#DejaVuSans-46"/>
       <use x="95.410156" xlink:href="#DejaVuSans-48"/>
      </g>
     </g>
    </g>
    <g id="ytick_14">
     <g id="line2d_57">
      <g>
       <use style="stroke:#000000;stroke-width:0.8;" x="626.025" xlink:href="#m749aa99981" y="109.888644"/>
      </g>
     </g>
     <g id="text_27">
      <!-- 0.5 -->
      <g transform="translate(587.21875 117.487082)scale(0.2 -0.2)">
       <use xlink:href="#DejaVuSans-48"/>
       <use x="63.623047" xlink:href="#DejaVuSans-46"/>
       <use x="95.410156" xlink:href="#DejaVuSans-53"/>
      </g>
     </g>
    </g>
    <g id="text_28">
     <!-- Observations -->
     <g transform="translate(561.260156 343.370859)rotate(-90)scale(0.25 -0.25)">
      <defs>
       <path d="M 39.40625 66.21875 
Q 28.65625 66.21875 22.328125 58.203125 
Q 16.015625 50.203125 16.015625 36.375 
Q 16.015625 22.609375 22.328125 14.59375 
Q 28.65625 6.59375 39.40625 6.59375 
Q 50.140625 6.59375 56.421875 14.59375 
Q 62.703125 22.609375 62.703125 36.375 
Q 62.703125 50.203125 56.421875 58.203125 
Q 50.140625 66.21875 39.40625 66.21875 
z
M 39.40625 74.21875 
Q 54.734375 74.21875 63.90625 63.9375 
Q 73.09375 53.65625 73.09375 36.375 
Q 73.09375 19.140625 63.90625 8.859375 
Q 54.734375 -1.421875 39.40625 -1.421875 
Q 24.03125 -1.421875 14.8125 8.828125 
Q 5.609375 19.09375 5.609375 36.375 
Q 5.609375 53.65625 14.8125 63.9375 
Q 24.03125 74.21875 39.40625 74.21875 
z
" id="DejaVuSans-79"/>
       <path d="M 48.6875 27.296875 
Q 48.6875 37.203125 44.609375 42.84375 
Q 40.53125 48.484375 33.40625 48.484375 
Q 26.265625 48.484375 22.1875 42.84375 
Q 18.109375 37.203125 18.109375 27.296875 
Q 18.109375 17.390625 22.1875 11.75 
Q 26.265625 6.109375 33.40625 6.109375 
Q 40.53125 6.109375 44.609375 11.75 
Q 48.6875 17.390625 48.6875 27.296875 
z
M 18.109375 46.390625 
Q 20.953125 51.265625 25.265625 53.625 
Q 29.59375 56 35.59375 56 
Q 45.5625 56 51.78125 48.09375 
Q 58.015625 40.1875 58.015625 27.296875 
Q 58.015625 14.40625 51.78125 6.484375 
Q 45.5625 -1.421875 35.59375 -1.421875 
Q 29.59375 -1.421875 25.265625 0.953125 
Q 20.953125 3.328125 18.109375 8.203125 
L 18.109375 0 
L 9.078125 0 
L 9.078125 75.984375 
L 18.109375 75.984375 
z
" id="DejaVuSans-98"/>
       <path d="M 2.984375 54.6875 
L 12.5 54.6875 
L 29.59375 8.796875 
L 46.6875 54.6875 
L 56.203125 54.6875 
L 35.6875 0 
L 23.484375 0 
z
" id="DejaVuSans-118"/>
      </defs>
      <use xlink:href="#DejaVuSans-79"/>
      <use x="78.710938" xlink:href="#DejaVuSans-98"/>
      <use x="142.1875" xlink:href="#DejaVuSans-115"/>
      <use x="194.287109" xlink:href="#DejaVuSans-101"/>
      <use x="255.810547" xlink:href="#DejaVuSans-114"/>
      <use x="296.923828" xlink:href="#DejaVuSans-118"/>
      <use x="356.103516" xlink:href="#DejaVuSans-97"/>
      <use x="417.382812" xlink:href="#DejaVuSans-116"/>
      <use x="456.591797" xlink:href="#DejaVuSans-105"/>
      <use x="484.375" xlink:href="#DejaVuSans-111"/>
      <use x="545.556641" xlink:href="#DejaVuSans-110"/>
      <use x="608.935547" xlink:href="#DejaVuSans-115"/>
     </g>
    </g>
   </g>
   <g id="line2d_58">
    <path clip-path="url(#p803ec8a03e)" d="M 626.025 322.980079 
L 630.501515 321.093313 
L 634.97803 319.206547 
L 639.454545 317.319782 
L 643.931061 315.433016 
L 648.407576 313.54625 
L 652.884091 311.659484 
L 657.360606 309.772719 
L 661.837121 307.885953 
L 666.313636 305.999187 
L 670.790152 304.112421 
L 675.266667 302.225656 
L 679.743182 300.33889 
L 684.219697 298.452124 
L 688.696212 296.565358 
L 693.172727 294.678593 
L 697.649242 292.791827 
L 702.125758 290.905061 
L 706.602273 289.018296 
L 711.078788 287.13153 
L 715.555303 285.244764 
L 720.031818 283.357998 
L 724.508333 281.471233 
L 728.984848 279.584467 
L 733.461364 277.697701 
L 737.937879 275.810935 
L 742.414394 273.92417 
L 746.890909 272.037404 
L 751.367424 270.150638 
L 755.843939 268.263872 
L 760.320455 266.377107 
L 764.79697 264.490341 
L 769.273485 262.603575 
L 773.75 260.716809 
L 778.226515 258.830044 
L 782.70303 256.943278 
L 787.179545 255.056512 
L 791.656061 253.169747 
L 796.132576 251.282981 
L 800.609091 249.396215 
L 805.085606 247.509449 
L 809.562121 245.622684 
L 814.038636 243.735918 
L 818.515152 241.849152 
L 822.991667 239.962386 
L 827.468182 238.075621 
L 831.944697 236.188855 
L 836.421212 234.302089 
L 840.897727 232.415323 
L 845.374242 230.528558 
L 849.850758 228.641792 
L 854.327273 226.755026 
L 858.803788 224.86826 
L 863.280303 222.981495 
L 867.756818 221.094729 
L 872.233333 219.207963 
L 876.709848 217.321198 
L 881.186364 215.434432 
L 885.662879 213.547666 
L 890.139394 211.6609 
L 894.615909 209.774135 
L 899.092424 207.887369 
L 903.568939 206.000603 
L 908.045455 204.113837 
L 912.52197 202.227072 
L 916.998485 200.340306 
L 921.475 198.45354 
L 925.951515 196.566774 
L 930.42803 194.680009 
L 934.904545 192.793243 
L 939.381061 190.906477 
L 943.857576 189.019712 
L 948.334091 187.132946 
L 952.810606 185.24618 
L 957.287121 183.359414 
L 961.763636 181.472649 
L 966.240152 179.585883 
L 970.716667 177.699117 
L 975.193182 175.812351 
L 979.669697 173.925586 
L 984.146212 172.03882 
L 988.622727 170.152054 
L 993.099242 168.265288 
L 997.575758 166.378523 
L 1002.052273 164.491757 
L 1006.528788 162.604991 
L 1011.005303 160.718225 
L 1015.481818 158.83146 
L 1019.958333 156.944694 
L 1024.434848 155.057928 
L 1028.911364 153.171163 
L 1033.387879 151.284397 
L 1037.864394 149.397631 
L 1042.340909 147.510865 
L 1046.817424 145.6241 
L 1051.293939 143.737334 
L 1055.770455 141.850568 
L 1060.24697 139.963802 
L 1064.723485 138.077037 
L 1069.2 136.190271 
" style="fill:none;stroke:#1f77b4;stroke-linecap:square;stroke-width:2.25;"/>
   </g>
   <g id="patch_8">
    <path d="M 626.025 439.2 
L 626.025 82.28 
" style="fill:none;stroke:#000000;stroke-linecap:square;stroke-linejoin:miter;stroke-width:0.8;"/>
   </g>
   <g id="patch_9">
    <path d="M 1069.2 439.2 
L 1069.2 82.28 
" style="fill:none;stroke:#000000;stroke-linecap:square;stroke-linejoin:miter;stroke-width:0.8;"/>
   </g>
   <g id="patch_10">
    <path d="M 626.025 439.2 
L 1069.2 439.2 
" style="fill:none;stroke:#000000;stroke-linecap:square;stroke-linejoin:miter;stroke-width:0.8;"/>
   </g>
   <g id="patch_11">
    <path d="M 626.025 82.28 
L 1069.2 82.28 
" style="fill:none;stroke:#000000;stroke-linecap:square;stroke-linejoin:miter;stroke-width:0.8;"/>
   </g>
   <g id="text_29">
    <!-- MSE = 0.273,  -->
    <g transform="translate(741.089062 40.20875)scale(0.3 -0.3)">
     <defs>
      <path d="M 10.59375 45.40625 
L 73.1875 45.40625 
L 73.1875 37.203125 
L 10.59375 37.203125 
z
M 10.59375 25.484375 
L 73.1875 25.484375 
L 73.1875 17.1875 
L 10.59375 17.1875 
z
" id="DejaVuSans-61"/>
      <path d="M 11.71875 12.40625 
L 22.015625 12.40625 
L 22.015625 4 
L 14.015625 -11.625 
L 7.71875 -11.625 
L 11.71875 4 
z
" id="DejaVuSans-44"/>
     </defs>
     <use xlink:href="#DejaVuSans-77"/>
     <use x="86.279297" xlink:href="#DejaVuSans-83"/>
     <use x="149.755859" xlink:href="#DejaVuSans-69"/>
     <use x="212.939453" xlink:href="#DejaVuSans-32"/>
     <use x="244.726562" xlink:href="#DejaVuSans-61"/>
     <use x="328.515625" xlink:href="#DejaVuSans-32"/>
     <use x="360.302734" xlink:href="#DejaVuSans-48"/>
     <use x="423.925781" xlink:href="#DejaVuSans-46"/>
     <use x="455.712891" xlink:href="#DejaVuSans-50"/>
     <use x="519.335938" xlink:href="#DejaVuSans-55"/>
     <use x="582.958984" xlink:href="#DejaVuSans-51"/>
     <use x="646.582031" xlink:href="#DejaVuSans-44"/>
     <use x="678.369141" xlink:href="#DejaVuSans-32"/>
    </g>
    <!--  $R^2$ = 0.209, r = 0.457 -->
    <g transform="translate(680.3625 76.040937)scale(0.3 -0.3)">
     <defs>
      <path d="M 25.203125 64.796875 
L 20.21875 38.921875 
L 32.90625 38.921875 
Q 40.375 38.921875 44.984375 43.046875 
Q 49.609375 47.171875 49.609375 53.8125 
Q 49.609375 59.125 46.5 61.953125 
Q 43.40625 64.796875 37.59375 64.796875 
z
M 43.3125 35.015625 
Q 46.4375 34.28125 48.515625 31.390625 
Q 50.59375 28.515625 53.328125 19.921875 
L 59.515625 0 
L 49.125 0 
L 43.40625 18.703125 
Q 41.21875 25.921875 38.328125 28.359375 
Q 35.453125 30.8125 29.5 30.8125 
L 18.609375 30.8125 
L 12.59375 0 
L 2.6875 0 
L 16.890625 72.90625 
L 39.109375 72.90625 
Q 49.21875 72.90625 54.609375 68.328125 
Q 60.015625 63.765625 60.015625 55.171875 
Q 60.015625 47.5625 55.421875 41.984375 
Q 50.828125 36.421875 43.3125 35.015625 
z
" id="DejaVuSans-Oblique-82"/>
     </defs>
     <use transform="translate(0 0.765625)" xlink:href="#DejaVuSans-32"/>
     <use transform="translate(31.787109 0.765625)" xlink:href="#DejaVuSans-Oblique-82"/>
     <use transform="translate(108.286302 39.046875)scale(0.7)" xlink:href="#DejaVuSans-50"/>
     <use transform="translate(155.55681 0.765625)" xlink:href="#DejaVuSans-32"/>
     <use transform="translate(187.343919 0.765625)" xlink:href="#DejaVuSans-61"/>
     <use transform="translate(271.132982 0.765625)" xlink:href="#DejaVuSans-32"/>
     <use transform="translate(302.920091 0.765625)" xlink:href="#DejaVuSans-48"/>
     <use transform="translate(366.543138 0.765625)" xlink:href="#DejaVuSans-46"/>
     <use transform="translate(392.830247 0.765625)" xlink:href="#DejaVuSans-50"/>
     <use transform="translate(456.453294 0.765625)" xlink:href="#DejaVuSans-48"/>
     <use transform="translate(520.076341 0.765625)" xlink:href="#DejaVuSans-57"/>
     <use transform="translate(583.699388 0.765625)" xlink:href="#DejaVuSans-44"/>
     <use transform="translate(615.486497 0.765625)" xlink:href="#DejaVuSans-32"/>
     <use transform="translate(647.273607 0.765625)" xlink:href="#DejaVuSans-114"/>
     <use transform="translate(688.386888 0.765625)" xlink:href="#DejaVuSans-32"/>
     <use transform="translate(720.173997 0.765625)" xlink:href="#DejaVuSans-61"/>
     <use transform="translate(803.96306 0.765625)" xlink:href="#DejaVuSans-32"/>
     <use transform="translate(835.750169 0.765625)" xlink:href="#DejaVuSans-48"/>
     <use transform="translate(899.373216 0.765625)" xlink:href="#DejaVuSans-46"/>
     <use transform="translate(931.160326 0.765625)" xlink:href="#DejaVuSans-52"/>
     <use transform="translate(994.783372 0.765625)" xlink:href="#DejaVuSans-53"/>
     <use transform="translate(1051.156419 0.765625)" xlink:href="#DejaVuSans-55"/>
    </g>
   </g>
  </g>
  <g id="axes_3">
   <g id="matplotlib.axis_5">
    <g id="xtick_43">
     <g id="line2d_59">
      <defs>
       <path d="M 0 0 
L 0 -3.5 
" id="m51f3f2af43" style="stroke:#ff0000;stroke-width:0.8;"/>
      </defs>
      <g>
       <use style="fill:#ff0000;stroke:#ff0000;stroke-width:0.8;" x="164.222778" xlink:href="#m51f3f2af43" y="82.28"/>
      </g>
     </g>
     <g id="text_30">
      <!-- 140 -->
      <g style="fill:#ff0000;" transform="translate(145.135278 71.120625)scale(0.2 -0.2)">
       <use xlink:href="#DejaVuSans-49"/>
       <use x="63.623047" xlink:href="#DejaVuSans-52"/>
       <use x="127.246094" xlink:href="#DejaVuSans-48"/>
      </g>
     </g>
    </g>
    <g id="xtick_44">
     <g id="line2d_60">
      <g>
       <use style="fill:#ff0000;stroke:#ff0000;stroke-width:0.8;" x="283.556852" xlink:href="#m51f3f2af43" y="82.28"/>
      </g>
     </g>
     <g id="text_31">
      <!-- 121 -->
      <g style="fill:#ff0000;" transform="translate(264.469352 71.120625)scale(0.2 -0.2)">
       <use xlink:href="#DejaVuSans-49"/>
       <use x="63.623047" xlink:href="#DejaVuSans-50"/>
       <use x="127.246094" xlink:href="#DejaVuSans-49"/>
      </g>
     </g>
    </g>
    <g id="xtick_45">
     <g id="line2d_61">
      <g>
       <use style="fill:#ff0000;stroke:#ff0000;stroke-width:0.8;" x="402.890926" xlink:href="#m51f3f2af43" y="82.28"/>
      </g>
     </g>
     <g id="text_32">
      <!-- 20 -->
      <g style="fill:#ff0000;" transform="translate(390.165926 71.120625)scale(0.2 -0.2)">
       <use xlink:href="#DejaVuSans-50"/>
       <use x="63.623047" xlink:href="#DejaVuSans-48"/>
      </g>
     </g>
    </g>
    <g id="xtick_46">
     <g id="line2d_62">
      <g>
       <use style="fill:#ff0000;stroke:#ff0000;stroke-width:0.8;" x="522.225" xlink:href="#m51f3f2af43" y="82.28"/>
      </g>
     </g>
     <g id="text_33">
      <!-- 0 -->
      <g style="fill:#ff0000;" transform="translate(515.8625 71.120625)scale(0.2 -0.2)">
       <use xlink:href="#DejaVuSans-48"/>
      </g>
     </g>
    </g>
    <g id="xtick_47">
     <g id="line2d_63">
      <defs>
       <path d="M 0 0 
L 0 -2 
" id="m20239287d5" style="stroke:#ff0000;stroke-width:0.6;"/>
      </defs>
      <g>
       <use style="fill:#ff0000;stroke:#ff0000;stroke-width:0.6;" x="80.81184" xlink:href="#m20239287d5" y="82.28"/>
      </g>
     </g>
    </g>
    <g id="xtick_48">
     <g id="line2d_64">
      <g>
       <use style="fill:#ff0000;stroke:#ff0000;stroke-width:0.6;" x="101.825527" xlink:href="#m20239287d5" y="82.28"/>
      </g>
     </g>
    </g>
    <g id="xtick_49">
     <g id="line2d_65">
      <g>
       <use style="fill:#ff0000;stroke:#ff0000;stroke-width:0.6;" x="116.734976" xlink:href="#m20239287d5" y="82.28"/>
      </g>
     </g>
    </g>
    <g id="xtick_50">
     <g id="line2d_66">
      <g>
       <use style="fill:#ff0000;stroke:#ff0000;stroke-width:0.6;" x="128.299642" xlink:href="#m20239287d5" y="82.28"/>
      </g>
     </g>
    </g>
    <g id="xtick_51">
     <g id="line2d_67">
      <g>
       <use style="fill:#ff0000;stroke:#ff0000;stroke-width:0.6;" x="137.748663" xlink:href="#m20239287d5" y="82.28"/>
      </g>
     </g>
    </g>
    <g id="xtick_52">
     <g id="line2d_68">
      <g>
       <use style="fill:#ff0000;stroke:#ff0000;stroke-width:0.6;" x="145.737696" xlink:href="#m20239287d5" y="82.28"/>
      </g>
     </g>
    </g>
    <g id="xtick_53">
     <g id="line2d_69">
      <g>
       <use style="fill:#ff0000;stroke:#ff0000;stroke-width:0.6;" x="152.658111" xlink:href="#m20239287d5" y="82.28"/>
      </g>
     </g>
    </g>
    <g id="xtick_54">
     <g id="line2d_70">
      <g>
       <use style="fill:#ff0000;stroke:#ff0000;stroke-width:0.6;" x="158.76235" xlink:href="#m20239287d5" y="82.28"/>
      </g>
     </g>
    </g>
    <g id="xtick_55">
     <g id="line2d_71">
      <g>
       <use style="fill:#ff0000;stroke:#ff0000;stroke-width:0.6;" x="200.145914" xlink:href="#m20239287d5" y="82.28"/>
      </g>
     </g>
    </g>
    <g id="xtick_56">
     <g id="line2d_72">
      <g>
       <use style="fill:#ff0000;stroke:#ff0000;stroke-width:0.6;" x="221.159601" xlink:href="#m20239287d5" y="82.28"/>
      </g>
     </g>
    </g>
    <g id="xtick_57">
     <g id="line2d_73">
      <g>
       <use style="fill:#ff0000;stroke:#ff0000;stroke-width:0.6;" x="236.06905" xlink:href="#m20239287d5" y="82.28"/>
      </g>
     </g>
    </g>
    <g id="xtick_58">
     <g id="line2d_74">
      <g>
       <use style="fill:#ff0000;stroke:#ff0000;stroke-width:0.6;" x="247.633716" xlink:href="#m20239287d5" y="82.28"/>
      </g>
     </g>
    </g>
    <g id="xtick_59">
     <g id="line2d_75">
      <g>
       <use style="fill:#ff0000;stroke:#ff0000;stroke-width:0.6;" x="257.082737" xlink:href="#m20239287d5" y="82.28"/>
      </g>
     </g>
    </g>
    <g id="xtick_60">
     <g id="line2d_76">
      <g>
       <use style="fill:#ff0000;stroke:#ff0000;stroke-width:0.6;" x="265.07177" xlink:href="#m20239287d5" y="82.28"/>
      </g>
     </g>
    </g>
    <g id="xtick_61">
     <g id="line2d_77">
      <g>
       <use style="fill:#ff0000;stroke:#ff0000;stroke-width:0.6;" x="271.992185" xlink:href="#m20239287d5" y="82.28"/>
      </g>
     </g>
    </g>
    <g id="xtick_62">
     <g id="line2d_78">
      <g>
       <use style="fill:#ff0000;stroke:#ff0000;stroke-width:0.6;" x="278.096424" xlink:href="#m20239287d5" y="82.28"/>
      </g>
     </g>
    </g>
    <g id="xtick_63">
     <g id="line2d_79">
      <g>
       <use style="fill:#ff0000;stroke:#ff0000;stroke-width:0.6;" x="319.479988" xlink:href="#m20239287d5" y="82.28"/>
      </g>
     </g>
    </g>
    <g id="xtick_64">
     <g id="line2d_80">
      <g>
       <use style="fill:#ff0000;stroke:#ff0000;stroke-width:0.6;" x="340.493675" xlink:href="#m20239287d5" y="82.28"/>
      </g>
     </g>
    </g>
    <g id="xtick_65">
     <g id="line2d_81">
      <g>
       <use style="fill:#ff0000;stroke:#ff0000;stroke-width:0.6;" x="355.403124" xlink:href="#m20239287d5" y="82.28"/>
      </g>
     </g>
    </g>
    <g id="xtick_66">
     <g id="line2d_82">
      <g>
       <use style="fill:#ff0000;stroke:#ff0000;stroke-width:0.6;" x="366.96779" xlink:href="#m20239287d5" y="82.28"/>
      </g>
     </g>
    </g>
    <g id="xtick_67">
     <g id="line2d_83">
      <g>
       <use style="fill:#ff0000;stroke:#ff0000;stroke-width:0.6;" x="376.416811" xlink:href="#m20239287d5" y="82.28"/>
      </g>
     </g>
    </g>
    <g id="xtick_68">
     <g id="line2d_84">
      <g>
       <use style="fill:#ff0000;stroke:#ff0000;stroke-width:0.6;" x="384.405844" xlink:href="#m20239287d5" y="82.28"/>
      </g>
     </g>
    </g>
    <g id="xtick_69">
     <g id="line2d_85">
      <g>
       <use style="fill:#ff0000;stroke:#ff0000;stroke-width:0.6;" x="391.326259" xlink:href="#m20239287d5" y="82.28"/>
      </g>
     </g>
    </g>
    <g id="xtick_70">
     <g id="line2d_86">
      <g>
       <use style="fill:#ff0000;stroke:#ff0000;stroke-width:0.6;" x="397.430498" xlink:href="#m20239287d5" y="82.28"/>
      </g>
     </g>
    </g>
    <g id="xtick_71">
     <g id="line2d_87">
      <g>
       <use style="fill:#ff0000;stroke:#ff0000;stroke-width:0.6;" x="438.814062" xlink:href="#m20239287d5" y="82.28"/>
      </g>
     </g>
    </g>
    <g id="xtick_72">
     <g id="line2d_88">
      <g>
       <use style="fill:#ff0000;stroke:#ff0000;stroke-width:0.6;" x="459.827749" xlink:href="#m20239287d5" y="82.28"/>
      </g>
     </g>
    </g>
    <g id="xtick_73">
     <g id="line2d_89">
      <g>
       <use style="fill:#ff0000;stroke:#ff0000;stroke-width:0.6;" x="474.737198" xlink:href="#m20239287d5" y="82.28"/>
      </g>
     </g>
    </g>
    <g id="xtick_74">
     <g id="line2d_90">
      <g>
       <use style="fill:#ff0000;stroke:#ff0000;stroke-width:0.6;" x="486.301864" xlink:href="#m20239287d5" y="82.28"/>
      </g>
     </g>
    </g>
    <g id="xtick_75">
     <g id="line2d_91">
      <g>
       <use style="fill:#ff0000;stroke:#ff0000;stroke-width:0.6;" x="495.750885" xlink:href="#m20239287d5" y="82.28"/>
      </g>
     </g>
    </g>
    <g id="xtick_76">
     <g id="line2d_92">
      <g>
       <use style="fill:#ff0000;stroke:#ff0000;stroke-width:0.6;" x="503.739918" xlink:href="#m20239287d5" y="82.28"/>
      </g>
     </g>
    </g>
    <g id="xtick_77">
     <g id="line2d_93">
      <g>
       <use style="fill:#ff0000;stroke:#ff0000;stroke-width:0.6;" x="510.660333" xlink:href="#m20239287d5" y="82.28"/>
      </g>
     </g>
    </g>
    <g id="xtick_78">
     <g id="line2d_94">
      <g>
       <use style="fill:#ff0000;stroke:#ff0000;stroke-width:0.6;" x="516.764572" xlink:href="#m20239287d5" y="82.28"/>
      </g>
     </g>
    </g>
    <g id="text_34">
     <!-- Principal Components -->
     <g style="fill:#ff0000;" transform="translate(164.315234 51.92375)scale(0.25 -0.25)">
      <defs>
       <path d="M 18.109375 8.203125 
L 18.109375 -20.796875 
L 9.078125 -20.796875 
L 9.078125 54.6875 
L 18.109375 54.6875 
L 18.109375 46.390625 
Q 20.953125 51.265625 25.265625 53.625 
Q 29.59375 56 35.59375 56 
Q 45.5625 56 51.78125 48.09375 
Q 58.015625 40.1875 58.015625 27.296875 
Q 58.015625 14.40625 51.78125 6.484375 
Q 45.5625 -1.421875 35.59375 -1.421875 
Q 29.59375 -1.421875 25.265625 0.953125 
Q 20.953125 3.328125 18.109375 8.203125 
z
M 48.6875 27.296875 
Q 48.6875 37.203125 44.609375 42.84375 
Q 40.53125 48.484375 33.40625 48.484375 
Q 26.265625 48.484375 22.1875 42.84375 
Q 18.109375 37.203125 18.109375 27.296875 
Q 18.109375 17.390625 22.1875 11.75 
Q 26.265625 6.109375 33.40625 6.109375 
Q 40.53125 6.109375 44.609375 11.75 
Q 48.6875 17.390625 48.6875 27.296875 
z
" id="DejaVuSans-112"/>
       <path d="M 9.421875 75.984375 
L 18.40625 75.984375 
L 18.40625 0 
L 9.421875 0 
z
" id="DejaVuSans-108"/>
       <path d="M 64.40625 67.28125 
L 64.40625 56.890625 
Q 59.421875 61.53125 53.78125 63.8125 
Q 48.140625 66.109375 41.796875 66.109375 
Q 29.296875 66.109375 22.65625 58.46875 
Q 16.015625 50.828125 16.015625 36.375 
Q 16.015625 21.96875 22.65625 14.328125 
Q 29.296875 6.6875 41.796875 6.6875 
Q 48.140625 6.6875 53.78125 8.984375 
Q 59.421875 11.28125 64.40625 15.921875 
L 64.40625 5.609375 
Q 59.234375 2.09375 53.4375 0.328125 
Q 47.65625 -1.421875 41.21875 -1.421875 
Q 24.65625 -1.421875 15.125 8.703125 
Q 5.609375 18.84375 5.609375 36.375 
Q 5.609375 53.953125 15.125 64.078125 
Q 24.65625 74.21875 41.21875 74.21875 
Q 47.75 74.21875 53.53125 72.484375 
Q 59.328125 70.75 64.40625 67.28125 
z
" id="DejaVuSans-67"/>
       <path d="M 52 44.1875 
Q 55.375 50.25 60.0625 53.125 
Q 64.75 56 71.09375 56 
Q 79.640625 56 84.28125 50.015625 
Q 88.921875 44.046875 88.921875 33.015625 
L 88.921875 0 
L 79.890625 0 
L 79.890625 32.71875 
Q 79.890625 40.578125 77.09375 44.375 
Q 74.3125 48.1875 68.609375 48.1875 
Q 61.625 48.1875 57.5625 43.546875 
Q 53.515625 38.921875 53.515625 30.90625 
L 53.515625 0 
L 44.484375 0 
L 44.484375 32.71875 
Q 44.484375 40.625 41.703125 44.40625 
Q 38.921875 48.1875 33.109375 48.1875 
Q 26.21875 48.1875 22.15625 43.53125 
Q 18.109375 38.875 18.109375 30.90625 
L 18.109375 0 
L 9.078125 0 
L 9.078125 54.6875 
L 18.109375 54.6875 
L 18.109375 46.1875 
Q 21.1875 51.21875 25.484375 53.609375 
Q 29.78125 56 35.6875 56 
Q 41.65625 56 45.828125 52.96875 
Q 50 49.953125 52 44.1875 
z
" id="DejaVuSans-109"/>
      </defs>
      <use xlink:href="#DejaVuSans-80"/>
      <use x="58.552734" xlink:href="#DejaVuSans-114"/>
      <use x="99.666016" xlink:href="#DejaVuSans-105"/>
      <use x="127.449219" xlink:href="#DejaVuSans-110"/>
      <use x="190.828125" xlink:href="#DejaVuSans-99"/>
      <use x="245.808594" xlink:href="#DejaVuSans-105"/>
      <use x="273.591797" xlink:href="#DejaVuSans-112"/>
      <use x="337.068359" xlink:href="#DejaVuSans-97"/>
      <use x="398.347656" xlink:href="#DejaVuSans-108"/>
      <use x="426.130859" xlink:href="#DejaVuSans-32"/>
      <use x="457.917969" xlink:href="#DejaVuSans-67"/>
      <use x="527.742188" xlink:href="#DejaVuSans-111"/>
      <use x="588.923828" xlink:href="#DejaVuSans-109"/>
      <use x="686.335938" xlink:href="#DejaVuSans-112"/>
      <use x="749.8125" xlink:href="#DejaVuSans-111"/>
      <use x="810.994141" xlink:href="#DejaVuSans-110"/>
      <use x="874.373047" xlink:href="#DejaVuSans-101"/>
      <use x="935.896484" xlink:href="#DejaVuSans-110"/>
      <use x="999.275391" xlink:href="#DejaVuSans-116"/>
      <use x="1038.484375" xlink:href="#DejaVuSans-115"/>
     </g>
    </g>
   </g>
   <g id="line2d_95">
    <path clip-path="url(#p3a4ee95a00)" d="M 454.952333 98.503636 
L 452.443809 104.713788 
L 450.293645 109.072505 
L 448.143482 112.815575 
L 445.634958 118.507709 
L 443.126434 124.093081 
L 440.259549 131.057925 
L 438.109386 136.245512 
L 435.600862 142.724918 
L 434.167419 146.492764 
L 432.017256 150.851674 
L 429.867092 155.089211 
L 426.641847 161.838051 
L 424.491683 165.927484 
L 423.058241 168.727025 
L 420.191356 174.310944 
L 417.682832 180.74074 
L 414.815948 188.634765 
L 413.024145 194.445108 
L 410.515621 202.240053 
L 409.082178 207.030562 
L 404.423491 223.678067 
L 400.481524 238.147992 
L 395.106116 256.203489 
L 393.314313 261.38319 
L 387.580543 277.519685 
L 383.638577 289.354769 
L 379.696611 302.160238 
L 377.904808 307.156595 
L 374.679562 315.283066 
L 373.24612 318.515667 
L 370.020875 325.339846 
L 368.945793 327.953368 
L 365.720548 335.843074 
L 360.7035 347.801146 
L 358.194976 353.061062 
L 347.802519 373.260124 
L 345.652355 376.990372 
L 342.785471 381.660268 
L 340.276947 385.176057 
L 335.97662 390.803761 
L 333.109735 394.060183 
L 329.88449 397.152663 
L 326.659244 399.985972 
L 322.717278 403.058512 
L 319.133672 405.554041 
L 315.908427 407.520522 
L 310.174658 410.625176 
L 303.724167 413.471929 
L 299.782201 414.990804 
L 295.123513 416.417033 
L 290.823186 417.454841 
L 285.447777 418.488236 
L 278.638926 419.579861 
L 273.621878 420.164711 
L 265.021224 420.968516 
L 257.854013 421.638842 
L 248.894998 422.158857 
L 234.918935 422.756386 
L 220.942873 422.961202 
L 204.458286 422.975357 
L 96.950111 422.937031 
L 96.950111 422.937031 
" style="fill:none;stroke:#1f77b4;stroke-linecap:square;stroke-opacity:0;stroke-width:1.5;"/>
   </g>
   <g id="patch_12">
    <path d="M 79.05 439.2 
L 79.05 82.28 
" style="fill:none;stroke:#000000;stroke-linecap:square;stroke-linejoin:miter;stroke-width:0.8;"/>
   </g>
   <g id="patch_13">
    <path d="M 522.225 439.2 
L 522.225 82.28 
" style="fill:none;stroke:#000000;stroke-linecap:square;stroke-linejoin:miter;stroke-width:0.8;"/>
   </g>
   <g id="patch_14">
    <path d="M 79.05 439.2 
L 522.225 439.2 
" style="fill:none;stroke:#000000;stroke-linecap:square;stroke-linejoin:miter;stroke-width:0.8;"/>
   </g>
   <g id="patch_15">
    <path d="M 79.05 82.28 
L 522.225 82.28 
" style="fill:none;stroke:#000000;stroke-linecap:square;stroke-linejoin:miter;stroke-width:0.8;"/>
   </g>
  </g>
 </g>
 <defs>
  <clipPath id="p3a4ee95a00">
   <rect height="356.92" width="443.175" x="79.05" y="82.28"/>
  </clipPath>
  <clipPath id="p803ec8a03e">
   <rect height="356.92" width="443.175" x="626.025" y="82.28"/>
  </clipPath>
 </defs>
</svg>
